<?xml version="1.0" encoding="utf-8"?>
<!-- Generator: Adobe Illustrator 22.1.0, SVG Export Plug-In . SVG Version: 6.00 Build 0)  -->
<svg version="1.1" xmlns="http://www.w3.org/2000/svg" xmlns:xlink="http://www.w3.org/1999/xlink" x="0px" y="0px"
	 viewBox="0 0 403.1 403.1" style="enable-background:new 0 0 403.1 403.1;" xml:space="preserve">
<style type="text/css">
	.st0{fill:#00539F;stroke:#FFDF1C;stroke-width:1.2;stroke-miterlimit:1;}
	.st1{fill:#009D57;stroke:#009D57;stroke-width:0;}
	.st2{fill:#BED4E8;}
	.st3{fill:none;stroke:#00539F;stroke-width:0.6;}
	.st4{fill:none;stroke:#0072BC;stroke-width:0.5;}
	.st5{fill:#FFFFFF;stroke:#002E6C;stroke-width:0.15;stroke-miterlimit:1;}
	.st6{fill:#AE6219;stroke:#6A3E15;stroke-width:0.15;}
	.st7{fill:#FFFFFF;}
	.st8{fill:#E4E5E6;stroke:#00539F;stroke-width:0.1;stroke-miterlimit:1;}
	.st9{fill:#FFFFFF;stroke:#00539F;stroke-width:0.2;stroke-miterlimit:1;}
	.st10{fill:#FFDF1C;stroke:#002E6C;stroke-width:0.1;stroke-miterlimit:1;}
	.st11{fill:#FFDF1C;}
	.st12{fill:none;stroke:#FFDF1C;stroke-width:1.2;stroke-miterlimit:1;}
	.st13{fill:none;stroke:#FFDF1C;stroke-width:1.4;stroke-miterlimit:1;}
	.st14{fill:#00539F;stroke:#FFDF1C;stroke-width:1.2;stroke-linecap:round;stroke-miterlimit:1;}
</style>
<g id="Outside_Circle">
	
		<ellipse transform="matrix(0.9713 -0.2377 0.2377 0.9713 -42.1316 53.6836)" class="st0" cx="201.6" cy="201.6" rx="201" ry="201"/>
</g>
<g id="Green_Field">
	<path class="st1" d="M57.8,262.6c0.4,1.6,4,8.9,10.2,9.1c6.2,0.2,19.2-7.8,19.2-7.8s8.5,8.2,18.6,8.2c10.1,0,19.4-8.5,19.4-8.5
		s10.8,8.1,18.8,8.1c8,0,19.3-8.1,19.3-8.1s8.8,8.2,18.7,8.2c10.5,0,19.3-8.6,19.3-8.6s9.1,8.6,19.1,8.6s18.9-8.2,18.9-8.2
		s8.7,8.3,18.9,8.3c10.7,0,19-8.3,19-8.3s8.4,8.3,19,8.3c10.5,0,19-8.3,19-8.3s9.5,10.2,19,8c10.5-2.4,7.2-2.6,10.5-8.4
		c2.1-3.7,12.6-29.1,12.6-62.1c0-31.6-10.8-65.2-10.8-65.2l-286.4,0c0,0-4,8.5-8,21.2c-4,12.7-6.5,28.3-6.5,44
		C45.7,233.8,57.4,261.1,57.8,262.6z"/>
	<path class="st2" d="M60.5,267.3c4.8,10.1,3,8,9.6,18.3c8.6,13.6,21.5,30.5,35.4,39.8c26.1,17.5,61.1,33,95.3,33
		c34.2,0,53.7-4.4,92-28.5c38.3-24,51.3-65.2,51.3-65.2s-0.6,5.8-9.9,6.9c-9.7,1.1-19-7.9-19-7.9s-8.4,8.1-19,8.1
		c-10.5,0-19-8.1-19-8.1s-8.8,8.1-19,8.1c-10.2,0-19-8.1-19-8.1s-9.1,8.1-19,8.1c-9.9,0-19-8.5-19-8.5s-9.1,8.5-19,8.5
		c-9.9,0-19-8.1-19-8.1s-11,8.1-19,8.1c-8,0-19-8.1-19-8.1s-8.9,8.4-19,8.4c-10.1,0-19-8-19-8S72.1,272,68.2,272
		C63.6,272,60.5,267.3,60.5,267.3z"/>
	<path class="st3" d="M63.6,275c1.5,0.3,3.1,0.6,4.7,0.6c10.1,0,18.7-7.7,18.7-7.7s8.9,8,19,8c10.1,0,19-8.4,19-8.4s11,8.1,19,8.1
		c8,0,19-8.1,19-8.1s9.1,8.1,19,8.1c9.9,0,19-8.5,19-8.5s9.1,8.5,19,8.5s19-8.1,19-8.1s8.8,8.1,19,8.1c10.2,0,19-8.1,19-8.1
		s8.5,8.1,19,8.1c10.5,0,19-8.1,19-8.1s9.2,7.9,19,7.9c2.4,0,4.7-0.5,7-1.2"/>
	<path class="st4" d="M340.7,274.1c0,0,0.1,0,0.1,0"/>
</g>
<g id="Critters">
	<path class="st5" d="M148,78.2c1.2-2.1,2.1-2.5,3.6-3c1.4-0.5,5.5,1.1,7.3,0.6c4.9,0,5.7,0,10.9-0.2c5.2-0.2,10.1,0.1,15-0.8
		c0.4,0,1.1-0.2,1.9-0.4c0.8-0.2,1.7-0.4,2.6-0.4c1.8-1.3,3.9-1.2,5.5-3c1.6-1.8,5.1-6,6.3-10.3c2-1.6,9.3,1.3,12.3,1.8
		c3,0.4,3.9,1.3,6.5,2.7c1.3,1.3-0.3,1.2-0.3,2.9c0,1.7-1.3,0.3-0.9,2.1c0,0.9,5.7,2.5,6.2,2.9c1.3,0.4,4-0.2,6.5,0.7
		c3.4,1.1,9.2,1.7,9.2,1.7l-6.6,4.4c0,0-0.2,0.4-2.7,1.3c-5.5,2.1-0.2-0.1-1.2,0c-2.8,0.2,0.3,1.8-4.7,1.9c-2,0.6-4.3-0.2-6.4,0.9
		c-5.3,2.8-7.7,0.8-9,2c-1,1-1.8,3.5-4.6,9.7c-2.7,6-4,13.7-8.1,18.6c-0.9,1.3-0.4,0.4-1.7,1.7c-0.6,0.6-0.8,0.9-1.2,1.3
		c-0.5,0.5-0.5,0.8-1,1.8c-1.1,0.3-2,1.7-3.2,2.4c-0.5,0.2-1.9,1.6-3.6,1.7c-1.7,0.1-3.2-0.6-5-1c-0.6-2.9,0.8-4.2,1.1-7.2
		c0.3-3,1.5-10.5,2.2-15.5c0.7-4.7,0.8-5,2.4-8.4c-0.3-6.8,2.2-9.6,3.6-11c-3.1-2.2-4.4-1.2-7.8-1.6c-3.5-0.3-6.2-0.2-10.4,0
		c-4.5,0.4-9.1,0-13.2,0.3c-2.4,0.2-4.2,1.8-6.8,2.2c-1.9,0.3-6.4,0.3-8.1,1c-1.3-0.2,2.8-2.4,3-2.6C147.6,79,148,78.6,148,78.2z"/>
	<path class="st6" d="M139,181c1.6,0.8,3.3,0.8,4.1,0.8c4.9-3.3,4.9-9.8,9-13c5.7-4.9,13.8-4.1,21.2-2.4c13.8,2.4,26.9,7.3,39.9,1.6
		c1.6-0.8,4.1,0,5.7,0.8c5.7,4.1,13,6.5,13.8,13c0.8,8.1-4.1,14.7-6.5,22.8c-0.8,4.1-3.3,8.1-4.1,11.4c-0.8,3.3,4.1,7.3,2.4,11.4
		c-0.8,2.4-5.7,4.1-6.5,7.3c-2.4,8.1,3.3,14.7,9.8,19.5c-3.3,3.3-9,1.6-11.4,0c-5.7-2.4,0-10.6-3.3-15.5c-0.8,0-2.4,0-3.3,0
		c-5.7,4.1-9.8,12.2-15.5,10.6c-2.4,0,0.8-9.8,3.3-10.6c5.7-1.6,10.6-3.3,14.7-8.1c0-0.8,0-2.4,0-3.3c-1.6-2.4-1.6-6.5-3.3-9
		c0-1.6-0.8-3.3-0.8-4.9c-0.8-1.6-3.3-2.4-4.1-1.6c-9.8,0-18.7-4.1-28.5-2.4c-0.8,5.7-5.7,9.8-4.9,14.7c0,5.7,4.1,10.6,7.3,15.5
		c4.1,6.5,11.4,9,14.7,15.5c-4.9,1.6-11.4,0.8-15.5-3.3c-0.8-1.6,0.8-4.1,0-5.7c-4.9-8.1-11.4-14.7-16.3-22c-1.6-2.4,0.8-5.7,1.6-9
		c0.8-4.1-3.3-4.1-5.7-3.3c-5.7,3.3-12.2,5.7-14.7,12.2c-1.6,5.7-3.3,10.6-2.4,16.3c0.8,4.9,3.3,9.8,8.1,12.2
		c-4.1,2.4-9,0.8-12.2-0.8c0-0.8,0-3.3-1.6-4.1c-0.8,0-2.4,0-3.3,0c0.8-5.7,3.3-10.6,4.1-15.5c2.4-7.3,2.4-13.8,4.1-21.2
		c1.6-5.7,7.3-7.3,10.6-10.6c4.1-4.1,0.8-12.2-3.3-13c-4.1-0.8-6.5-1.6-8.1-4.9C138.2,181.8,139,181,139,181z"/>
	<path class="st7" d="M227,206.3c2.2-8.8,6.5-16.3,7.3-24.4c0-0.8-1.6-1.6-1.6-3.3c2.4,0.8,4.9,2.4,7.3,4.1c3.3,3.3,3.3,9,4.1,13
		c1.6,4.9,1.6,9.8,0.8,14.7c-0.8,2.4-3.3,4.9-4.9,5.7c-3.3,2.4-8.1,2.4-13,1.6c-0.8,0-2.4-0.8-3.3-1.6
		C222.9,212.8,226.1,209.5,227,206.3z"/>
	<path class="st6" d="M245.7,197.3c0-5-2.4-9.8-4.1-13.8c3.3,0,4.9,3.3,8.1,3.3c0.8,0,1.6-1.6,1.6-1.6c-2.4-4.1-7.3-7.3-7.3-12.2
		c-0.8-4.9,0-9.8-2.4-14.7c2.4,0.8,2.4,5.7,4.9,4.1c3.3-1.6,5.7-5.7,9-9c1.6-0.8,0-4.9,2.4-6.5c0,1.6-1.6,3.3-0.8,4.9
		c0,0.8,0.8,0.8,1.6,0.8c2.4-1.6,1.6-6.5,4.1-6.5c1.6,0-2.4,4.1,0.8,4.9c2.4,0,2.4-3.3,4.1-5.7c0,0,0.8,0,1.6,0
		c0,1.6-0.8,2.4-1.6,3.3c0,0.8,0,1.6,0.8,1.6c1.6,0,2.4,0,4.1,0c-4.9,3.3-13,3.3-16.3,9c0,0.8,1.6,0.8,2.4,0.8
		c4.1-1.6,8.1-3.3,12.2-4.9c3.3-1.6,4.9-6.5,9-8.1c-0.8,0.8-0.8,0.8-1.6,1.6c0,0.8,0,1.6,0.8,1.6c2.4,0.8,2.4-3.3,4.9-3.3
		c-1.6,0.8-1.6,2.4-2.4,3.3c0,0.8,0,1.6,0.8,1.6c3.3-0.8,2.4-5.7,6.5-4.9c-0.8,1.6-2.4,1.6-3.3,3.3c0,0.8,0,2.4,0.8,2.4
		c3.3,0.8,5.7-0.8,8.1-1.6c-0.8,1.6-4.1,1.6-4.1,3.3c0.8,1.6,2.4,1.6,4.1,0c0,0.8,0,1.6,0,1.6c-13.8,0.8-27.7,0.8-39.1,9.8
		c-1.6,1.6-2.4,4.9-1.6,7.3c2.4,4.9,3.3,9.8,8.1,12.2c5.7,2.4,11.4-3.3,17.1-4.1c-4.1,3.3-8.1,4.1-13,6.5c-0.8,0.8-2.4,0.8-1.6,2.4
		c0.8,1.6,3.3,2.4,4.9,3.3c4.9,0.8,9.8-0.8,14.7-1.6c0,2.4-3.3,1.6-4.1,3.3c0,0.8,1.6,0.8,1.6,1.6c0,3.3-4.9,0-4.1,1.6
		c0,1.6,2.4,4.9,0.8,4.9c-4.9,1.6-6.5-5.7-11.4-7.3c-0.8,0-1.6,0-1.6,0.8c0.8,5.7,4.9,10.6,4.9,14.7c-0.8,9.8-12.2,1.6-17.9-2.4
		c-2.4-0.8-4.1,0.8-6.5,0.8C245.7,205.5,245.7,201.4,245.7,197.3z"/>
	<path class="st8" d="M143.3,316.2l1-1.1c0.8-0.4,8.1-3.7,11-4.1c2.8-0.4,13.7-2.9,16.1-2.9c2.4,0,13.8-3.7,17.6-3.7
		c3.9,0,3.4-0.8,4-0.8c1.1,0,4.5-3.3,5.8-3.6c1.3-0.3,10.7-3.5,11.3-3.5c0.6,0,1.8,6.6,2.1,7.7c0.3,1.1-4.4,0.3-4.2,0.5
		c0.3,0.3,5.3,0.4,5.2,0.4c6.7,1.3,9.1,1.1,9.1,1.1l6.1,0.2c0,0,2.8-0.3,4.4-1.5c1.1-0.8,0.7-0.9,1.1-1.5c1-1.4,2.8-2.5,1.8-0.6
		c-1.2,2.4,1.8,0.9,2.8,0.1c1-0.8,1.6-1.8,2-3.1c0.4-1.2,2.6-10,3.9-11.8c1.2-1.8,1.8-5.7,4.1-6.3c2.2-0.6,0.6,1.4,0.6,1.4
		s-0.6,0.4-0.6,2.4c0,2-0.6,3.9-0.6,6.9c0,3.1,0.2,5.3,0.2,7.9c0,2.6-0.6,6.3-0.4,8.1c0.2,1.8,0,2.8,0.6,4.5c0.4,1.2,0,1.8,1.4,2.9
		c1.4,1,2.6,2,0.6,1.4c-2-0.6-2-0.2-3.3-1.2c-1.2-1-2.5-1.9-3.5-3.3c-0.4-0.6-0.4-0.6-1-1.4c-0.9-1.2-2.4-2.6-3.4-0.2
		c-1,2.4-0.6,1.3-1.2,2.9c-0.5,1.2,1.9,1.1,2,0.7c0.3-0.8-5.2,8.1-6.4,7.5c-1.2-0.6-7.1,3.4-10.3,4.6c-3.3,1.2-2.2,0.5-4.9,1.7
		c-2.6,1.2-3.1,1.3-4.1,1.7c-2.2,0.8-2.6,1.1-4.4,1.6c-1.6,0.5-1.7,0.7-1.7,0.7s1.7-1.3,4.6,3.1c0.6,0.8-3.7-0.5-4.9-1
		c-2.4-0.9-1.8-0.8-3-1.4c-0.2-0.1,0.9,0.2-1.8,0.6c-2.6,0.4-2.2,0.4-6.3,0.8c-4.1,0.4-3.7,0-6.8,0.8c-3.1,0.8-16.4-1.4-16.3,0.8
		c0,0.6,0.5,2.2,0,2.3c-0.5,0.2-3.4-3-3.2-2.9c-3.3-1.3-1.4-0.5-3-1.3c-0.2-0.1-1.3-0.5-1.3-0.5s0,0.3-2.8-1.3
		c-2.9-1.6-11.3-5.1-11.3-5.1s-1-0.8,1.5,0.2c3.3,1.3,3.9,1,6.9,1.4c3.1,0.4-1.8,0.2,1.1,0.2c2.9,0,4-1.9,5.2-3.7
		c1.2-1.8,2.1-2.1,2.6-3.9c0.6-1.9,0.3-2.2,0.4-2.8c0.1-1.4-0.7-2.7-0.8-3c0-0.5,0,1.1-0.2,2.5c0,0.3,0.5,0.9-0.8,2.8
		c-1.3,1.9-1.9,3.2-2.1,3.4c-1,1.6-1.9,2.5-1.9,2.5c-0.4,0.2-2.5,0.7-2.5,0.7s1.7-1.9,2.2-2.9c0.6-1.2,1.2-2,1.7-3.5
		c0.8-2.2,0.2-1.3,0.5-2.6c0.3-1.7-0.6-2.9-0.6-2.9l-0.4,2.5c0,0,0,2.7-1.1,3.9c-0.5,0.6-1,1.6-1.4,2.4c-0.6,1-1.7,1.5-1.6,2.1
		c0,0.5-0.3,1-1.4,1.3c-1.4,0.3-1.3,0.2-3.7-0.2c-2.4-0.4-1-0.3-3.9-1.3c-2.9-1-0.3,0.8-3.2-1.7c-2.9-2.4-2.3-1.7-3.3-2.9
		c-1.1-1.3-1.2-2.1-1.2-2.1s0.8,0.7,1.8,1.1c1,0.4,2.2,1.7,3.2,2.1c1,0.4,4.2,2,4.8,1.8c0.6-0.2,0.2-0.8-0.2-1.4
		c-0.4-0.6-1.6-1.8-2.4-2.4c-0.8-0.6-1.8-1.9-3.5-3c-1.6-1-3.8-1.8-3.8-1.8L143.3,316.2z"/>
	<path class="st9" d="M153.9,317c0.5,0,1-0.5,1-1.1c0-0.6-0.4-1.1-1-1.1c-0.5,0-1,0.5-1,1.1C153,316.5,153.4,317,153.9,317z"/>
	<polygon class="st10" points="107.1,83.4 108.2,85.6 110.7,86 108.9,87.7 109.3,90.1 107.1,89 104.9,90.1 105.3,87.7 103.5,86 
		106,85.6 	"/>
	<polygon class="st10" points="127.1,82.4 128.2,84.7 130.7,85 128.9,86.7 129.3,89.2 127.1,88 124.9,89.2 125.3,86.7 123.5,85 
		126,84.7 	"/>
	<polygon class="st10" points="153.7,87.3 154.8,89.6 157.3,89.9 155.5,91.6 155.9,94.1 153.7,92.9 151.5,94.1 151.9,91.6 
		150.2,89.9 152.6,89.6 	"/>
	<polygon class="st10" points="175.5,98.1 176.6,100.3 179.1,100.7 177.3,102.4 177.7,104.9 175.5,103.7 173.3,104.9 173.7,102.4 
		171.9,100.7 174.4,100.3 	"/>
	<polygon class="st10" points="174.7,116.6 175.8,118.9 178.3,119.2 176.5,121 176.9,123.4 174.7,122.3 172.5,123.4 172.9,121 
		171.1,119.2 173.6,118.9 	"/>
	<polygon class="st10" points="203,121.7 204.1,124 206.5,124.3 204.8,126.1 205.2,128.5 203,127.3 200.8,128.5 201.2,126.1 
		199.4,124.3 201.9,124 	"/>
	<polygon class="st10" points="210.1,108.9 211.2,111.1 213.7,111.5 211.9,113.2 212.3,115.7 210.1,114.5 207.9,115.7 208.3,113.2 
		206.6,111.5 209,111.1 	"/>
	<polygon class="st10" points="245.5,59 247.7,63.3 252.4,64 249,67.3 249.8,72 245.5,69.8 241.3,72 242.1,67.3 238.7,64 
		243.4,63.3 	"/>
</g>
<g id="Text">
	<g>
		<path class="st11" d="M76,64.3L76,64.3l11.2,4.4l-7.7,7.1L76,64.3z M81,80.9l11.2-10.3l5.8,2.4l6.9-6.4L75.5,56.2L68.2,63
			l7.9,30.1l6.7-6.2L81,80.9z"/>
		<path class="st11" d="M122.9,50.6l18.3-9.1l2.2,4.5l-26.1,13l-12.2-24.6l7.7-3.8L122.9,50.6z"/>
		<path class="st11" d="M170.4,17.3l0.1,0l6.9,9.8l-10.3,1.8L170.4,17.3z M165.6,34l15-2.6l3.6,5.1l9.2-1.6l-19.1-24.6l-9.8,1.7
			l-9.7,29.6l8.9-1.6L165.6,34z"/>
		<path class="st11" d="M215.1,27.5c-0.1,1.5,0.7,4.6,8.1,5.4c4,0.5,8.6,0.4,9-2.5c0.3-2.1-2.8-3.1-7-4.3l-4.3-1.2
			c-6.5-1.8-12.8-3.6-12-9.6c0.4-3,3.5-8.1,16.7-6.5c12.5,1.5,15.3,7.4,14.9,10.7l-8.2-1c-0.1-1.2-0.4-4.2-7.9-5.1
			c-3.2-0.4-7.2-0.1-7.5,2.4c-0.3,2.1,2.3,2.9,4,3.4l9.8,2.8c5.5,1.6,10.4,3.7,9.8,8.6c-1,8.2-13.6,7.4-17.2,7
			c-14.9-1.8-16.8-7.8-16.4-11.2L215.1,27.5z"/>
		<path class="st11" d="M263.1,46.9l-7.9-3.5l11.1-25.1l7.9,3.5L269.7,32l18.9-3.9l10.2,4.5l-19.9,3.5l9.7,22l-10.1-4.5l-6.8-16.2
			l-4.8,0.9L263.1,46.9z"/>
		<path class="st11" d="M325.9,60.7L325.9,60.7l-3.2,11.6l-7.9-6.9L325.9,60.7z M309.9,67.5l11.4,10l-1.7,6l7,6.2l7.2-30.2l-7.5-6.5
			l-29.2,11l6.8,6L309.9,67.5z"/>
	</g>
	<g>
		<path class="st11" d="M31.6,214.9l0.5,4.5c0.2,2,0,5.2-6,5.8c-3.3,0.3-7-0.6-7.4-4.4l-0.5-4.6L31.6,214.9z M14.3,212l1,9.7
			c0.8,7.4,7.2,8.6,11.6,8.2c3.9-0.4,9.5-2.6,8.8-10.1l-1-9.9L14.3,212z"/>
		<path class="st11" d="M37.4,248.5l-2.7-11.6l-4.2,1l2.5,10.7l-3.5,0.8L27,238.6l-5.2,1.2l2.8,12.2l-3.5,0.8l-3.9-16.6l19.9-4.6
			l3.7,16.1L37.4,248.5z"/>
		<path class="st11" d="M34.6,258.7l5.7-2.1l1.3,3.5c1,2.7,0.6,4.2-1.2,4.9c-0.9,0.3-3,1.1-4.2-2.2L34.6,258.7z M31.3,259.9l1.8,5.1
			c2.1,5.7,6.8,5.1,8.6,4.5c3.8-1.4,5.3-4.7,3.8-8.8l-3.5-9.7l-19.2,7l1.6,4.4L31.3,259.9z"/>
		<path class="st11" d="M48.9,279.8L48.9,279.8l-5.9,6.2l-2.6-5.1L48.9,279.8z M36.7,281.5l3.8,7.4l-3.1,3.2l2.3,4.5l14.6-16.4
			l-2.5-4.8L30,277.6l2.3,4.4L36.7,281.5z"/>
		<path class="st11" d="M54.4,298l4.5-3.1l3.3,4.8c1.6,2.3,0.6,3.6-0.3,4.2c-1.7,1.1-3,0.6-4.4-1.4L54.4,298z M42.3,300.7l2.6,3.8
			l6.6-4.6l2.8,4c2,2.9,1.2,3.6-1.1,5.2c-1.7,1.2-2.5,2-3.1,2.8l3,4.3l0.4-0.3c-0.3-1,0.3-1.4,2.8-3.1c3.1-2.2,3.1-3.4,2.6-5.3
			c1.8,1.4,4.1,1.4,6,0.1c1.5-1,4.1-4.2,0.7-9.1l-6.5-9.4L42.3,300.7z"/>
		<path class="st11" d="M62.9,327.5l-3.1-3.5l12.6-11.2l-4.5-5.1l2.7-2.4l12.1,13.7l-2.7,2.4l-4.5-5.1L62.9,327.5z"/>
		<path class="st11" d="M86.9,350.2l-3.3-2.9l11.2-12.9l0,0l-14.4,10.1l-3.5-3l8.1-15.6l0,0l-11.2,12.9l-3.3-2.9l13.4-15.4l5.2,4.5
			l-7.5,14.8l0,0l13.6-9.5l5.1,4.5L86.9,350.2z"/>
		<path class="st11" d="M115.2,348.9l-10-6.6l-2.4,3.6l9.2,6l-2,3l-9.2-6l-2.9,4.4l10.4,6.8l-2,3l-14.3-9.4l11.2-17.1l13.8,9.1
			L115.2,348.9z"/>
		<path class="st11" d="M132.6,353.7l3.9,1.9l-9,18.4l-4.2-2.1l-1.8-17.1l-0.1,0l-6.4,13.1l-3.9-1.9l9-18.4l4.4,2.2l1.8,16.7l0.1,0
			L132.6,353.7z"/>
		<path class="st11" d="M142.4,379.4l-4.4-1.5l5.5-15.9l-6.4-2.2l1.2-3.4l17.3,6l-1.2,3.4l-6.4-2.2L142.4,379.4z"/>
		<path class="st11" d="M167.6,375.6c0.9-5.7,4.7-6.5,7.2-6.1c2.5,0.4,5.8,2.4,4.9,8c-0.9,5.7-4.7,6.5-7.2,6.1
			C170,383.2,166.7,381.2,167.6,375.6z M162.9,374.8c-1.5,9.5,6.1,11.9,9,12.3c2.9,0.5,10.9,0.5,12.4-8.9c1.5-9.5-6.1-11.9-9-12.3
			C172.4,365.4,164.4,365.3,162.9,374.8z"/>
		<path class="st11" d="M192.9,388.8l-4.7-0.2l0.7-20.5l16,0.5l-0.1,3.6l-11.3-0.4l-0.1,4.6l9.9,0.3l-0.1,3.6l-9.9-0.3L192.9,388.8z
			"/>
		<path class="st11" d="M222.9,387.8l-4.7,0.6l-2.6-20.3l15.9-2l0.5,3.6l-11.2,1.4l0.6,4.6l9.8-1.2l0.5,3.6l-9.8,1.2L222.9,387.8z"
			/>
		<path class="st11" d="M242.5,384.5l-4.6,1l-4.2-20l4.6-1L242.5,384.5z"/>
		<path class="st11" d="M249.4,376.4c0.4,1.1,1.6,3,5.5,1.8c2.1-0.6,4.4-1.8,3.7-3.9c-0.5-1.5-2.2-1.5-4.6-1.3l-2.5,0.2
			c-3.7,0.3-7.3,0.6-8.6-3.7c-0.7-2.2-0.5-6.4,6.5-8.5c6.6-2,9.6,1.4,10.3,3.8l-4.3,1.3c-0.4-0.8-1.4-2.8-5.3-1.6
			c-1.7,0.5-3.6,1.7-3,3.5c0.5,1.5,1.9,1.4,2.9,1.4l5.6-0.4c3.1-0.2,6.2,0,7.2,3.6c1.8,5.9-4.7,8.4-6.6,9
			c-7.9,2.4-10.5-1.3-11.2-3.8L249.4,376.4z"/>
		<path class="st11" d="M269.9,366.3l3.7,8.4l-4.3,1.9l-8.3-18.7l4.3-1.9l3.1,7.1l8-3.6l-3.1-7.1l4.3-1.9l8.3,18.7l-4.3,1.9
			l-3.7-8.4L269.9,366.3z"/>
		<path class="st11" d="M298.2,343.4L298.2,343.4l6.9,5.1l-4.7,3.2L298.2,343.4z M301.3,355.3l6.9-4.7l3.6,2.7l4.2-2.9L297.9,338
			l-4.5,3.1l4.9,21.4l4.1-2.8L301.3,355.3z"/>
		<path class="st11" d="M316.3,322.9l3.3-2.9l13.6,15.3l-3.5,3.1l-16.6-4.8l0,0l9.7,10.9l-3.3,2.9l-13.6-15.3l3.7-3.3l16.2,4.7l0,0
			L316.3,322.9z"/>
		<path class="st11" d="M327.9,316.2l3-3.4c1.3-1.5,3.7-3.6,8.3,0.3c2.5,2.2,4.4,5.5,1.9,8.4l-3,3.5L327.9,316.2z M337.7,330.7
			l6.4-7.4c4.9-5.6,1.3-11.2-2-14.1c-2.9-2.5-8.4-5.2-13.4,0.6l-6.5,7.5L337.7,330.7z"/>
		<path class="st11" d="M354.5,289.5l4.7-8.1l9.5,5.6l-1.6,2.7l-2.5-0.9c0.5,1.7,1.2,4.1-0.9,7.6c-2.7,4.7-8.3,7.2-14.5,3.5
			c-4.8-2.8-7.7-8.4-3.8-15c3.5-6,8.4-6.3,10.9-5.1l-2.4,4.1c-0.7-0.4-3.7-0.3-5.4,2.6c-1.7,2.9-1.4,6.6,3.1,9.3
			c4.8,2.8,7.8,0.6,9.4-2.1c0.5-0.9,1.9-4.1-1.1-7l-2.6,4.5L354.5,289.5z"/>
		<path class="st11" d="M360.3,267L360.3,267l8.6,0.4l-2.2,5.3L360.3,267z M369.4,275.2l3.2-7.7l4.4,0.3l1.9-4.7l-21.9-0.5l-2.1,5
			l15.9,15.2l1.9-4.6L369.4,275.2z"/>
		<path class="st11" d="M385.9,237.4l-1.1,4.2l-16.6-4.2l0,0.1l15.5,8.3l-1.1,4.5l-17.6-0.2l0,0.1l16.6,4.2l-1.1,4.3l-19.8-5.1
			l1.7-6.7l16.6,0l0-0.1l-14.6-7.9l1.7-6.6L385.9,237.4z"/>
		<path class="st11" d="M372,212.6l-1.4,11.9l4.3,0.5l1.2-10.9l3.6,0.4l-1.2,10.9l5.3,0.6l1.4-12.4l3.6,0.4l-1.9,17l-20.3-2.3
			l1.9-16.4L372,212.6z"/>
	</g>
</g>
<g id="Inside_Circle">
	<path class="st12" d="M201.6,42.8c-87.7,0-158.7,71.1-158.7,158.7c0,87.7,71.1,158.7,158.7,158.7c87.7,0,158.7-71.1,158.7-158.7
		C360.3,113.9,289.2,42.8,201.6,42.8z"/>
	<path class="st13" d="M201.6,42.8c-87.7,0-158.7,71.1-158.7,158.7c0,87.7,71.1,158.7,158.7,158.7c87.7,0,158.7-71.1,158.7-158.7
		C360.3,113.9,289.2,42.8,201.6,42.8z"/>
	<line class="st14" x1="57.4" y1="136" x2="345.3" y2="136"/>
</g>
</svg>
