<?xml version="1.0" encoding="utf-8"?>
<!-- Generator: Adobe Illustrator 22.1.0, SVG Export Plug-In . SVG Version: 6.00 Build 0)  -->
<svg version="1.1" xmlns="http://www.w3.org/2000/svg" xmlns:xlink="http://www.w3.org/1999/xlink" x="0px" y="0px"
	 viewBox="0 0 498.8 328.6" style="enable-background:new 0 0 498.8 328.6;" xml:space="preserve">
<style type="text/css">
	.st0{fill:#3E4558;}
	.st1{fill:#8AB8C7;}
	.st2{fill:#9EA66A;}
	.st3{fill:#FF674B;}
</style>
<g id="Layer_1">
	<g>
		<path class="st0" d="M17.3,229.5v-8.8c0-3.6-2.9-6.5-6.5-6.5c-3.6,0-6.5,2.9-6.5,6.5v36.1c0,3.6,2.9,6.5,6.5,6.5
			c3.6,0,6.5-2.9,6.5-6.5v-7.6h4.3v7.6c0,6-4.8,10.8-10.8,10.8c-6,0-10.8-4.8-10.8-10.8v-36.1c0-6,4.8-10.8,10.8-10.8
			c6,0,10.8,4.8,10.8,10.8v8.3L17.3,229.5z"/>
		<path class="st0" d="M27,234.8c0-5,4-9,9-9c5,0,9,4,9,9v23.4c0,5-4,9-9,9c-5,0-9-4-9-9V234.8z M31.3,258.2c0,2.6,2.1,4.6,4.6,4.6
			c2.6,0,4.6-2.1,4.6-4.6v-23.4c0-2.6-2.1-4.6-4.6-4.6c-2.6,0-4.6,2.1-4.6,4.6V258.2z"/>
		<path class="st0" d="M79.1,234.8c0-2.6-2.1-4.6-4.6-4.6c-2.6,0-4.6,2.1-4.6,4.6v31.9h-4.3v-31.9c0-2.6-2.1-4.6-4.6-4.6
			c-2.6,0-4.6,2.1-4.6,4.6v31.9h-4.3v-40.5h3l0.7,3.2c1.4-2.2,3.7-3.6,6.3-3.6c2.3,0,4.4,1.2,5.9,3c1.6-1.8,4-3,6.6-3c5,0,9,4,9,9
			v31.9h-4.3V234.8z"/>
		<path class="st0" d="M117.7,234.8c0-2.6-2.1-4.6-4.6-4.6s-4.6,2.1-4.6,4.6v31.9h-4.3v-31.9c0-2.6-2.1-4.6-4.6-4.6
			c-2.6,0-4.6,2.1-4.6,4.6v31.9h-4.3v-40.5h3l0.7,3.2c1.4-2.2,3.7-3.6,6.3-3.6c2.3,0,4.4,1.2,5.9,3c1.6-1.8,4-3,6.6-3c5,0,9,4,9,9
			v31.9h-4.3V234.8z"/>
		<path class="st0" d="M146.6,226.2v40.5h-3l-0.7-3.2c-1.4,2.2-3.7,3.6-6.3,3.6c-4.3,0-7.9-4-7.9-9v-31.9h4.3v31.9
			c0,2.6,2.1,4.6,4.6,4.6c2.6,0,4.6-2.1,4.6-4.6v-31.9H146.6z"/>
		<path class="st0" d="M154,266.7v-40.5h3l0.7,3.2c1.4-2.2,3.7-3.6,6.3-3.6c4.3,0,7.9,4,7.9,9v31.9h-4.3v-31.9
			c0-2.6-2.1-4.6-4.6-4.6c-2.6,0-4.6,2.1-4.6,4.6v31.9H154z"/>
		<path class="st0" d="M179.4,215.8h4.3v5.8h-4.3V215.8z M183.7,226.2h-4.3v40.5h4.3V226.2z"/>
		<path class="st0" d="M188.3,226.2h5.2v-7.8l4.3-0.5v8.3h5.2v4.3h-5.2v30.6c0,0.9,0.7,1.7,1.7,1.7v4.3c-3.3,0-6-2.7-6-6v-30.6h-5.2
			V226.2z"/>
		<path class="st0" d="M216.2,271.4c0,0-1.6,8.8-9,8.8v-4.3c3.8,0,4.6-4.5,4.6-4.5l0.8-4.6l-7.2-40.5h4.3l5,31.8h0.2l5-31.8h4.3
			L216.2,271.4z"/>
		<path class="st0" d="M248.6,242.3v24.4h-4.3v-56h9.5c6.4,0,11.6,5.2,11.6,11.6v8.4c0,6.4-5.2,11.6-11.6,11.6H248.6z M253.9,238
			c4.1,0,7.3-3.2,7.3-7.3v-8.4c0-4.1-3.2-7.3-7.3-7.3h-5.2v23H253.9z"/>
		<path class="st0" d="M287.5,260.9c0,0.8,0.7,1.5,1.5,1.5v4.3c-1.7,0-3.3-0.7-4.4-1.9c-1.6,1.5-3.7,2.3-6.1,2.3c-5,0-9-4-9-9v-4.6
			c0-4.1,3.6-6.2,3.6-6.2l6.4-3.6c0,0,3.6-2.1,3.6-5.4v-4.1c0-2.3-1.8-4.1-4.1-4.1c-2.3,0-4.1,1.8-4.1,4.1v4.8l-4.3,0.5v-5.3
			c0-4.6,3.8-8.5,8.5-8.5c4.6,0,8.5,3.8,8.5,8.5V260.9z M273.9,258.2c0,2.6,2.1,4.6,4.6,4.6c2.6,0,4.6-2.1,4.6-4.6v-11.8
			c-0.7,0.7-1.4,1.1-1.4,1.1l-6.4,3.7c0,0-1.5,0.8-1.5,2.5V258.2z"/>
		<path class="st0" d="M306.6,230.1h-3.1c-2.8,0-5,2.2-5,5.1v31.5h-4.3v-40.5h3l0.7,3.2c1.4-2.2,4.2-3.6,8.6-3.6V230.1z"/>
		<path class="st0" d="M310.5,226.2h5.2v-7.8l4.3-0.5v8.3h5.2v4.3H320v30.6c0,0.9,0.7,1.7,1.7,1.7v4.3c-3.3,0-6-2.7-6-6v-30.6h-5.2
			V226.2z"/>
		<path class="st0" d="M330.2,266.7v-40.5h3l0.7,3.2c1.4-2.2,3.7-3.6,6.3-3.6c4.3,0,7.9,4,7.9,9v31.9h-4.3v-31.9
			c0-2.6-2.1-4.6-4.6-4.6c-2.6,0-4.6,2.1-4.6,4.6v31.9H330.2z"/>
		<path class="st0" d="M372.7,252.9v5.3c0,5-4,9-9,9c-5,0-9-4-9-9v-23.4c0-5,4-9,9-9c5,0,9,4,9,9v12.4h-13.6v10.9
			c0,2.6,2.1,4.6,4.6,4.6c2.6,0,4.6-2.1,4.6-4.6v-4.8L372.7,252.9z M359.1,242.9h9.3v-8.1c0-2.6-2.1-4.6-4.6-4.6
			c-2.6,0-4.6,2.1-4.6,4.6V242.9z"/>
		<path class="st0" d="M392.1,230.1H389c-2.8,0-5,2.2-5,5.1v31.5h-4.3v-40.5h3l0.7,3.2c1.4-2.2,4.2-3.6,8.6-3.6V230.1z"/>
		<path class="st0" d="M409,254.7c0-2.3-1.4-3.5-1.4-3.5l-9-7.5c0,0-2.9-2.4-2.9-6.8v-2.5c0-4.7,3.9-8.6,8.6-8.6
			c4.7,0,8.6,3.9,8.6,8.6v3.7l-4.3,0.5v-4.2c0-2.4-1.9-4.3-4.3-4.3c-2.4,0-4.3,1.9-4.3,4.3v2.5c0,2.3,1.4,3.5,1.4,3.5l9,7.5
			c0,0,2.9,2.4,2.9,6.8v3.5c0,5-4,9-9,9c-5,0-9-4-9-9v-4l4.3-0.5v4.5c0,2.6,2.1,4.6,4.6,4.6c2.6,0,4.6-2.1,4.6-4.6V254.7z"/>
		<path class="st0" d="M433.2,266.7v-31.9c0-2.6-2.1-4.6-4.6-4.6c-2.5,0-4.5,1.9-4.6,4.3v32.3h-4.3v-55.5l4.3-0.5v17.9
			c1.4-1.7,3.5-2.8,5.7-2.8c4.3,0,7.9,4,7.9,9v31.9H433.2z"/>
		<path class="st0" d="M444.9,215.8h4.3v5.8h-4.3V215.8z M449.3,226.2h-4.3v40.5h4.3V226.2z"/>
		<path class="st0" d="M457.1,226.2h3l0.7,3.2c1.4-2.2,3.7-3.6,6.3-3.6c4.3,0,7.9,4,7.9,9v23.4c0,5-3.6,9-7.9,9
			c-2.2,0-4.3-1.1-5.7-2.8v15.3l-4.3,0.5V226.2z M461.4,258.2c0,2.6,2.1,4.6,4.6,4.6c2.6,0,4.6-2.1,4.6-4.6v-23.4
			c0-2.6-2.1-4.6-4.6-4.6c-2.6,0-4.6,2.1-4.6,4.6V258.2z"/>
		<path class="st0" d="M494.5,254.7c0-2.3-1.4-3.5-1.4-3.5l-9-7.5c0,0-2.9-2.4-2.9-6.8v-2.5c0-4.7,3.9-8.6,8.6-8.6
			c4.7,0,8.6,3.9,8.6,8.6v3.7l-4.3,0.5v-4.2c0-2.4-1.9-4.3-4.3-4.3c-2.4,0-4.3,1.9-4.3,4.3v2.5c0,2.3,1.4,3.5,1.4,3.5l9,7.5
			c0,0,2.9,2.4,2.9,6.8v3.5c0,5-4,9-9,9c-5,0-9-4-9-9v-4l4.3-0.5v4.5c0,2.6,2.1,4.6,4.6,4.6c2.6,0,4.6-2.1,4.6-4.6V254.7z"/>
		<path class="st0" d="M2.9,294.9v13.8h6.4v2.8H2.9v16.5H0.1v-35.9h11.5v2.8H2.9z"/>
		<path class="st0" d="M29.7,298.5c0-3.8,3.1-6.9,6.9-6.9c3.8,0,6.9,3.1,6.9,6.9v23.1c0,3.8-3.1,6.9-6.9,6.9c-3.8,0-6.9-3.1-6.9-6.9
			V298.5z M32.5,321.7c0,2.3,1.9,4.1,4.2,4.1c2.3,0,4.1-1.9,4.1-4.1v-23.1c0-2.3-1.9-4.1-4.1-4.1c-2.3,0-4.2,1.9-4.2,4.1V321.7z"/>
		<path class="st0" d="M77.1,328.1h-2.8v-11.9c0-2.6-2.1-4.7-4.7-4.7h-3.4v16.6h-2.8v-35.9h6.1c4.1,0,7.4,3.4,7.4,7.4v4.4
			c0,2.5-1.3,4.7-3.1,6.1c1.9,1.4,3.1,3.6,3.1,6.1V328.1z M69.6,308.7c2.6,0,4.7-2.1,4.7-4.7v-4.4c0-2.6-2.1-4.7-4.7-4.7h-3.4v13.8
			H69.6z"/>
		<path class="st0" d="M118.9,305.4c0,0-1.6-1.9-1.6-4.5v-2.4c0-3.8,3.1-6.9,6.9-6.9c3.8,0,6.9,3.1,6.9,6.9v4.5l-2.8,0.3v-4.8
			c0-2.3-1.9-4.1-4.1-4.1s-4.1,1.9-4.1,4.1v2.4c0,1.5,1,2.7,1,2.7l8.5,10.1c0,0,1.6,2,1.6,4.6v3.5c0,3.8-3.1,6.9-6.9,6.9
			c-3.8,0-6.9-3.1-6.9-6.9v-5.3l2.8-0.3v5.6c0,2.3,1.9,4.1,4.1,4.1s4.1-1.9,4.1-4.1v-3.5c0-1.5-1-2.8-1-2.8L118.9,305.4z"/>
		<path class="st0" d="M153.3,294.9v13.8h6.4v2.8h-6.4v13.8h9.1v2.8h-11.9v-35.9h11.5v2.8H153.3z"/>
		<path class="st0" d="M193.1,325.3v2.8h-11.4v-35.9h2.8v33.1H193.1z"/>
		<path class="st0" d="M214.7,294.9v13.8h6.4v2.8h-6.4v16.5H212v-35.9h11.5v2.8H214.7z"/>
		<path class="st0" d="M279.9,328.1h-2.8v-11.9c0-2.6-2.1-4.7-4.7-4.7h-3.4v16.6h-2.8v-35.9h6.1c4.1,0,7.4,3.4,7.4,7.4v4.4
			c0,2.5-1.3,4.7-3.1,6.1c1.9,1.4,3.1,3.6,3.1,6.1V328.1z M272.5,308.7c2.6,0,4.7-2.1,4.7-4.7v-4.4c0-2.6-2.1-4.7-4.7-4.7h-3.4v13.8
			H272.5z"/>
		<path class="st0" d="M302.6,294.9v13.8h6.4v2.8h-6.4v13.8h9.1v2.8h-11.9v-35.9h11.5v2.8H302.6z"/>
		<path class="st0" d="M342.4,325.3v2.8h-11.4v-35.9h2.8v33.1H342.4z"/>
		<path class="st0" d="M361.8,328.1v-35.9h2.8v35.9H361.8z"/>
		<path class="st0" d="M399.6,328.1h-2.8l-1.4-9.2h-7.3l-1.4,9.2H384l5.5-35.9h4.7L399.6,328.1z M388.5,316.1h6.4l-3.1-20.9h-0.1
			L388.5,316.1z"/>
		<path class="st0" d="M418.5,292.2h3.4l8.5,27.2h0.1v-27.2h2.8v35.9h-2.8l-9-28.7h-0.1v28.7h-2.8V292.2z"/>
		<path class="st0" d="M464.2,304.2v-5.6c0-2.3-1.9-4.1-4.1-4.1c-2.3,0-4.1,1.9-4.1,4.1v23.1c0,2.3,1.9,4.1,4.1,4.1
			c2.3,0,4.1-1.9,4.1-4.1v-4.9h2.8v4.9c0,3.8-3.1,6.9-6.9,6.9c-3.8,0-6.9-3.1-6.9-6.9v-23.1c0-3.8,3.1-6.9,6.9-6.9
			c3.8,0,6.9,3.1,6.9,6.9v5.3L464.2,304.2z"/>
		<path class="st0" d="M489.7,294.9v13.8h6.4v2.8h-6.4v13.8h9.2v2.8h-11.9v-35.9h11.5v2.8H489.7z"/>
	</g>
</g>
<g id="Layer_2">
	<g>
		<path class="st1" d="M291.2,15.8c-24,0-46.2,7.4-64.5,20c45.8,14.4,79,57.2,79,107.7c0,11.3-1.7,22.2-4.8,32.6h94.3
			c6.3-14.2,9.9-29.9,9.9-46.4C405.2,66.8,354.1,15.8,291.2,15.8z"/>
		<path class="st2" d="M161.5,129.7c0-32.5,12-62.2,31.7-85c-0.2,0-0.3,0-0.5,0c-54.6,0-98.9,44.3-98.9,98.9c0,11.4,2,22.4,5.5,32.6
			h70.7C164.6,161.7,161.5,146,161.5,129.7z"/>
		<path class="st3" d="M177.3,129.7c0,16.5,3.6,32.2,9.9,46.4h98.9c3.6-10.2,5.5-21.1,5.5-32.6c0-47.6-33.7-87.4-78.5-96.8
			C191.1,67.6,177.3,97,177.3,129.7z"/>
		<path class="st0" d="M412.4,176.1c5.5-14.4,8.6-30.1,8.6-46.4C420.9,58.1,362.9,0,291.2,0c-32.4,0-62,11.9-84.7,31.5
			c-4.5-0.5-9.1-0.9-13.8-0.9c-62.4,0-112.9,50.6-112.9,112.9c0,11.3,1.7,22.2,4.8,32.6H0v14.3h90h15.7h70.9h18.2h85h15.7h92.1h18.2
			h92.9v-14.3H412.4z M99.4,176.1c-3.6-10.2-5.5-21.1-5.5-32.6c0-54.6,44.3-98.9,98.9-98.9c0.2,0,0.3,0,0.5,0
			c-19.8,22.8-31.7,52.5-31.7,85c0,16.4,3,32,8.6,46.4H99.4z M187.2,176.1c-6.3-14.2-9.9-29.9-9.9-46.4c0-32.7,13.8-62.1,35.8-82.9
			c44.8,9.4,78.5,49.1,78.5,96.8c0,11.4-2,22.4-5.5,32.6H187.2z M300.9,176.1c3.1-10.3,4.8-21.2,4.8-32.6c0-50.5-33.2-93.3-79-107.7
			c18.3-12.6,40.6-20,64.5-20c62.9,0,113.9,51,113.9,113.9c0,16.5-3.6,32.2-9.9,46.4H300.9z"/>
	</g>
</g>
</svg>
