<?xml version="1.0" encoding="UTF-8" standalone="no"?>
<svg
   xmlns:dc="http://purl.org/dc/elements/1.1/"
   xmlns:cc="http://creativecommons.org/ns#"
   xmlns:rdf="http://www.w3.org/1999/02/22-rdf-syntax-ns#"
   xmlns:svg="http://www.w3.org/2000/svg"
   xmlns="http://www.w3.org/2000/svg"
   xmlns:xlink="http://www.w3.org/1999/xlink"
   xmlns:sodipodi="http://sodipodi.sourceforge.net/DTD/sodipodi-0.dtd"
   xmlns:inkscape="http://www.inkscape.org/namespaces/inkscape"
   viewBox="0 0 250.55355 208.04085"
   id="svg3566"
   version="1.1"
   inkscape:version="0.91 r13725"
   sodipodi:docname="IARC_color_square_acronym_rev.svg"
   width="250.55356"
   height="208.04085">
  <metadata
     id="metadata3756">
    <rdf:RDF>
      <cc:Work
         rdf:about="">
        <dc:format>image/svg+xml</dc:format>
        <dc:type
           rdf:resource="http://purl.org/dc/dcmitype/StillImage" />
        <dc:title></dc:title>
      </cc:Work>
    </rdf:RDF>
  </metadata>
  <defs
     id="defs3754">
    <radialGradient
       inkscape:collect="always"
       xlink:href="#a"
       id="radialGradient3758"
       gradientUnits="userSpaceOnUse"
       cx="146.7"
       cy="172.96001"
       r="208.17"
       gradientTransform="translate(0.13838481,-0.00957586)" />
    <linearGradient
       inkscape:collect="always"
       xlink:href="#f"
       id="linearGradient3760"
       gradientUnits="userSpaceOnUse"
       gradientTransform="matrix(-7.88,91.5,91.5,7.88,-69127.48,90903.96)"
       x1="-1050.26"
       y1="666.40997"
       x2="-1048.33"
       y2="666.40997" />
  </defs>
  <sodipodi:namedview
     pagecolor="#ffffff"
     bordercolor="#666666"
     borderopacity="1"
     objecttolerance="10"
     gridtolerance="10"
     guidetolerance="10"
     inkscape:pageopacity="0"
     inkscape:pageshadow="2"
     inkscape:window-width="1234"
     inkscape:window-height="814"
     id="namedview3752"
     showgrid="false"
     fit-margin-top="0"
     fit-margin-left="0"
     fit-margin-right="0"
     fit-margin-bottom="0"
     inkscape:zoom="3.1389704"
     inkscape:cx="125.28339"
     inkscape:cy="104.03542"
     inkscape:window-x="0"
     inkscape:window-y="0"
     inkscape:window-maximized="0"
     inkscape:current-layer="svg3566" />
  <radialGradient
     id="a"
     cx="146.7"
     cy="172.96001"
     gradientUnits="userSpaceOnUse"
     r="208.17">
    <stop
       offset="0"
       stop-color="#fff"
       id="stop3569" />
    <stop
       offset="1"
       stop-color="#0065a4"
       id="stop3571" />
  </radialGradient>
  <clipPath
     id="b"
     transform="translate(.14)">
    <path
       d="m 22.33,104.13 c 0,57.18 45,103.4 102.34,103.4 a 103.52,103.52 0 1 0 0,-207 C 76.64,0.5 22.33,42.33 22.33,104.13"
       id="path3574"
       inkscape:connector-curvature="0" />
  </clipPath>
  <radialGradient
     id="c"
     cx="-1040.38"
     cy="660.58002"
     gradientTransform="matrix(107.82,0,0,-107.57,112322.78,71095.35)"
     gradientUnits="userSpaceOnUse"
     r="1.9299999">
    <stop
       offset="0"
       stop-color="#fff"
       id="stop3577" />
    <stop
       offset="1"
       stop-color="#5a91c2"
       id="stop3579" />
  </radialGradient>
  <clipPath
     id="d"
     transform="translate(.14)">
    <path
       d="m 22.33,104.13 c 0,57.18 45,103.4 102.34,103.4 a 103.52,103.52 0 1 0 0,-207 C 76.64,0.5 22.33,42.33 22.33,104.13"
       id="path3582"
       inkscape:connector-curvature="0" />
  </clipPath>
  <radialGradient
     id="e"
     cx="-1040.38"
     cy="660.58002"
     gradientTransform="matrix(107.82,0,0,-107.57,112322.78,71095.35)"
     r="1.9299999"
     xlink:href="#a" />
  <linearGradient
     id="f"
     gradientTransform="matrix(-7.88,91.5,91.5,7.88,-69127.48,90903.96)"
     gradientUnits="userSpaceOnUse"
     x1="-1050.26"
     x2="-1048.33"
     y1="666.40997"
     y2="666.40997">
    <stop
       offset="0"
       stop-color="#fff"
       id="stop3586" />
    <stop
       offset=".15"
       stop-color="#fbfcfd"
       id="stop3588" />
    <stop
       offset=".3"
       stop-color="#eef3f9"
       id="stop3590" />
    <stop
       offset=".46"
       stop-color="#d8e5f1"
       id="stop3592" />
    <stop
       offset=".63"
       stop-color="#bad1e6"
       id="stop3594" />
    <stop
       offset=".8"
       stop-color="#93b7d7"
       id="stop3596" />
    <stop
       offset=".97"
       stop-color="#6598c6"
       id="stop3598" />
    <stop
       offset="1"
       stop-color="#5a91c2"
       id="stop3600" />
  </linearGradient>
  <linearGradient
     id="g"
     x1="-1050.26"
     x2="-1048.33"
     xlink:href="#f"
     y1="666.20001"
     y2="666.20001" />
  <clipPath
     id="h"
     transform="translate(.14)">
    <path
       d="m 22.33,104.13 c 0,57.18 45,103.4 102.34,103.4 a 103.52,103.52 0 1 0 0,-207 C 76.64,0.5 22.33,42.33 22.33,104.13"
       id="path3604"
       inkscape:connector-curvature="0" />
  </clipPath>
  <g
     clip-path="url(#b)"
     id="g3606"
     transform="translate(-0.00161519,-0.00957586)">
    <path
       d="m 22.47,0.5 206.1,0 0,207.03 -206.1,0 z"
       id="path3608"
       inkscape:connector-curvature="0"
       style="fill:url(#c)" />
  </g>
  <path
     d="m 22.468385,104.12042 c 0,57.18 45,103.4 102.339995,103.4 a 103.52,103.52 0 1 0 0,-206.99999586 C 76.778385,0.49042414 22.468385,42.320424 22.468385,104.12042"
     id="path3610"
     inkscape:connector-curvature="0"
     style="fill:url(#radialGradient3758)" />
  <g
     clip-path="url(#d)"
     id="g3612"
     transform="translate(-0.00161519,-0.00957586)">
    <path
       d="m 22.47,0.5 206.1,0 0,207.03 -206.1,0 z"
       id="path3614"
       inkscape:connector-curvature="0"
       style="fill:url(#e)" />
  </g>
  <g
     transform="translate(0.13838481,-0.00957586)"
     id="g3616">
    <path
       d="m 123.93,8.67 c -0.06,-0.41 1.51,-0.69 1,0.21 0,0 -0.93,0 -1,-0.21"
       id="path3618"
       inkscape:connector-curvature="0"
       style="fill:#91ba4d;fill-rule:evenodd" />
    <path
       d="m 120.23,11.2 c -0.28,-0.36 1.06,-0.52 1.28,-0.33 0.43,0.38 -1.28,0.33 -1.28,0.33"
       id="path3620"
       inkscape:connector-curvature="0"
       style="fill:#91ba4d;fill-rule:evenodd" />
    <path
       d="M 149.94,3.63 149.8,3.55 Z"
       id="path3622"
       inkscape:connector-curvature="0"
       style="fill:#91ba4d;fill-rule:evenodd" />
    <path
       d="m 123.07,10.71 a 6.12,6.12 0 0 1 3.54,-0.43 10.87,10.87 0 0 0 1.36,2 c -0.22,0.61 1.25,0.6 0.94,2 0,-0.18 -1.34,2 -0.84,1.79 -1.3,0.67 -1.13,-2.74 -1.39,-3.62 -0.49,-1.55 -2.66,-1.13 -4,-1.42 a 0.53,0.53 0 0 1 0.38,-0.33"
       id="path3624"
       inkscape:connector-curvature="0"
       style="fill:#91ba4d;fill-rule:evenodd" />
    <path
       d="m 166.28,9.24 c -0.13,-0.08 0.1,-0.31 0.17,-0.28 0.07,0.03 -0.08,0.32 -0.17,0.28"
       id="path3626"
       inkscape:connector-curvature="0"
       style="fill:#91ba4d;fill-rule:evenodd" />
    <path
       d="m 129.25,21.71 a 2.52,2.52 0 0 1 2.55,0.83 c 0.32,0.44 -8.08,0.73 -2.55,-0.83 z"
       id="path3628"
       inkscape:connector-curvature="0"
       style="fill:#91ba4d;fill-rule:evenodd" />
    <path
       d="m 126,23.22 c 0,-0.11 2.34,0.14 2.31,0.1 0.63,1 -2.73,1.44 -2.31,-0.1 0.13,-0.52 0,0.14 0,0"
       id="path3630"
       inkscape:connector-curvature="0"
       style="fill:#91ba4d;fill-rule:evenodd" />
    <path
       d="m 159.25,15.79 c -0.17,-0.32 0.63,-0.22 0.65,-0.16 0.1,0.3 -0.53,0.38 -0.65,0.16"
       id="path3632"
       inkscape:connector-curvature="0"
       style="fill:#91ba4d;fill-rule:evenodd" />
    <path
       d="m 167.53,16.91 c -0.14,-0.08 0.08,-0.32 0.16,-0.27 0.08,0.05 -0.09,0.32 -0.16,0.27"
       id="path3634"
       inkscape:connector-curvature="0"
       style="fill:#91ba4d;fill-rule:evenodd" />
    <path
       d="m 125.88,33.74 a 2,2 0 0 1 1.71,-0.43 6.21,6.21 0 0 0 -0.27,0.76 c 0,0 2.2,1.28 0.8,1.59 -0.84,0.19 -2.68,-0.36 -2.83,-1.55 a 1.29,1.29 0 0 1 0.59,-0.37 z"
       id="path3636"
       inkscape:connector-curvature="0"
       style="fill:#91ba4d;fill-rule:evenodd" />
    <path
       d="m 160.87,25.89 c 0.85,0.24 3.59,1.8 3.82,2.46 l 0.7,1 a 0.36,0.36 0 0 0 0.38,-0.32 1,1 0 0 1 0.21,0.85 1.61,1.61 0 0 0 0.54,-0.59 0.48,0.48 0 0 1 0.32,0.38 c 0.16,0 0.21,-0.13 0.16,-0.28 0.84,0.28 1.78,1.34 1.45,2 0.07,-0.14 1.7,-0.58 2.09,0.38 0.05,0.11 -0.69,2.41 -1,2.41 0.65,0 -2.19,-1.62 -1.94,-1.33 -0.33,-0.38 1,-0.34 1,-0.49 0.26,-0.94 -2.12,0 -1.6,0 0.29,0 -1.21,-0.55 -0.7,0 0.25,0.25 1.07,0 0.86,0.68 -0.16,0.53 -1.86,0.32 -2,0.05 a 1,1 0 0 0 0,-0.7 c 0.4,0.08 -1.73,1.18 -1.78,0.22 A 19.71,19.71 0 0 1 161.63,31 c 0.11,0 3.4,0.05 3.33,0.26 -0.21,0.6 -1.75,-2.51 -1.77,-2.53 a 10.13,10.13 0 0 0 0.26,1.08 0.19,0.19 0 0 1 -0.26,-0.16 c -0.47,0.1 0.24,1.53 -1.22,0.75 0.2,0.11 -0.77,0.05 -0.61,0.16 -0.49,-0.33 -1.09,-2.11 -0.64,-1.66 -0.74,-1 -2.31,-1 -1.62,-2.79 0.15,-0.05 0.23,0 0.27,0.15 0.32,-0.93 0.33,-0.71 1.5,-0.36 0.22,0.05 -0.76,-0.23 0,0 m 5.13,4.86 c 0.13,0 -0.4,0.23 -0.38,0.33 0.18,0.69 1,-0.07 0.38,-0.33"
       id="path3638"
       inkscape:connector-curvature="0"
       style="fill:#91ba4d;fill-rule:evenodd" />
    <path
       d="m 124,36.27 c 0,-0.39 0.58,-0.43 1,-0.16 1.14,0.78 -1.31,1.64 -1,0.16 0,0 -0.18,0.76 0,0"
       id="path3640"
       inkscape:connector-curvature="0"
       style="fill:#91ba4d;fill-rule:evenodd" />
    <path
       d="m 128.56,36.27 c 0.43,-0.3 1.21,0.56 1.13,0.85 -0.26,0.88 -2.18,-0.12 -1.13,-0.85 z"
       id="path3642"
       inkscape:connector-curvature="0"
       style="fill:#91ba4d;fill-rule:evenodd" />
    <path
       d="m 177,25.71 c 0.37,-0.59 1.63,0.54 1.13,0.85 -0.34,0.23 -1.43,-0.34 -1.13,-0.85"
       id="path3644"
       inkscape:connector-curvature="0"
       style="fill:#91ba4d;fill-rule:evenodd" />
    <path
       d="m 166,34.63 c 0.09,0 -0.81,-0.7 -0.8,-0.48 0,-0.89 1.47,-0.34 1.58,0.19 -0.12,0.32 -0.38,0.41 -0.78,0.29 z"
       id="path3646"
       inkscape:connector-curvature="0"
       style="fill:#91ba4d;fill-rule:evenodd" />
    <path
       d="m 171.45,32.59 c 0.18,-0.16 1.38,0.1 1.14,-0.05 a 2.83,2.83 0 0 1 0.48,2.84 0.52,0.52 0 0 1 -0.5,-0.14 c 0.78,0.2 -1,0.6 -1.22,0.57 a 7.17,7.17 0 0 0 -1.82,0 c -0.37,-0.05 -1.44,-0.21 -1.35,-0.81 0,0.19 1.79,-0.68 1.88,-0.7 -0.22,0 0.38,0.88 1.25,0.21 0.87,-0.67 -0.46,-1.34 0.14,-1.92 0.6,-0.58 -0.42,0.42 0,0"
       id="path3648"
       inkscape:connector-curvature="0"
       style="fill:#91ba4d;fill-rule:evenodd" />
    <path
       d="m 165.77,34.47 a 0.76,0.76 0 0 0 0.54,0.32 c -0.8,1.89 -2.6,-0.48 -2.8,-0.22 0.37,-0.48 1.76,-0.33 2.26,-0.1 z"
       id="path3650"
       inkscape:connector-curvature="0"
       style="fill:#91ba4d;fill-rule:evenodd" />
    <path
       d="m 167.86,33.72 a 0.22192341,0.22192341 0 0 1 0.43,-0.11 c 0,0.34 -0.19,0 -0.43,0.11"
       id="path3652"
       inkscape:connector-curvature="0"
       style="fill:#91ba4d;fill-rule:evenodd" />
    <path
       d="m 180.48,37.63 c -0.25,1 -0.55,0.37 -1,0.69 -0.75,0.58 1.2,1.06 -1,0.75 -0.83,-0.11 -0.29,-1 -0.46,-1.07 -0.68,-0.19 -0.23,1.07 -1.22,0.32 -0.81,-0.61 -2.84,-1.69 -2.86,-2.94 a 0.82,0.82 0 0 1 0.84,-0.22 c -0.09,-0.35 -0.18,-0.71 -0.26,-1.07 a 1,1 0 0 0 0.7,0 c 0,-0.11 -1.42,-0.52 -0.53,-1.23 0.89,-0.71 1.42,0.39 1.23,0.37 a 3.46,3.46 0 0 1 1.18,0.17 0.45,0.45 0 0 0 0.1,-0.49 2.48,2.48 0 0 0 0.54,0.32 c 0.37,-1.47 0.57,-0.3 1.18,-0.75 0.61,-0.45 -0.91,-1 0.43,-1 1,0 0.36,0.39 1.08,0.64 a 0.88,0.88 0 0 1 0.54,-0.59 c 0.18,0 0.35,1.36 1.47,0.43 0.13,-0.1 1,-1.51 1,-1.51 0.18,0 3,2.08 3,2 0,0.19 -2.23,1.15 -1.71,1.2 0.75,0.08 0.88,0.67 1.28,0.73 a 0.43,0.43 0 0 0 0.11,-0.48 12.19,12.19 0 0 1 1.5,-0.37 c 0,0.14 0.08,0.28 0.11,0.42 0.32,0.18 1.53,-0.1 2,0.64 0.21,0.35 -0.68,0.51 -0.74,0.65 0,-0.1 0.3,0.61 0.1,0.43 0.42,0.39 1.64,-0.3 1.89,0.22 a 10.25,10.25 0 0 1 -0.87,2 c -0.12,0.09 -1.5,-1.09 -2,0 0,0.09 1.27,1.44 0.48,1.93 -0.25,0.14 -1.28,-0.79 -1.39,-1 -0.81,-1.77 0.1,-1.07 -1.4,-1.92 -1.66,-1 -1.91,-2.78 -3.93,-1.47 a 6.3,6.3 0 0 0 -2.35,0.06 c -0.1,0.14 1.33,0.59 1,0.22 -0.15,-0.14 0,1.91 0,1.83 m -3.43,-3.7 c 0,0.29 -1.31,-0.68 -0.92,0 0.39,0.68 1,0.3 0.92,0 m -0.22,2.79 c 0.38,-0.63 -1.1,-0.9 -1,-0.43 a 4.72,4.72 0 0 0 1,0.43"
       id="path3654"
       inkscape:connector-curvature="0"
       style="fill:#91ba4d;fill-rule:evenodd" />
    <path
       d="m 163.3,36.46 c 0,-0.09 0.33,-0.5 0.58,-0.38 0.6,0.28 -1,1.73 -0.58,0.38"
       id="path3656"
       inkscape:connector-curvature="0"
       style="fill:#91ba4d;fill-rule:evenodd" />
    <path
       d="m 164.21,37.37 c 0.41,-0.69 1.21,0.12 1,0.43 -0.27,0.46 -1.28,0 -1,-0.43"
       id="path3658"
       inkscape:connector-curvature="0"
       style="fill:#91ba4d;fill-rule:evenodd" />
    <path
       d="m 170.61,36.46 c 0.06,-0.4 1.73,-0.37 1.25,0.34 -0.48,0.71 -1.39,0.34 -1.25,-0.34 0,-0.26 0,-0.34 0,0"
       id="path3660"
       inkscape:connector-curvature="0"
       style="fill:#91ba4d;fill-rule:evenodd" />
    <path
       d="m 163.67,38.87 c 0.63,-0.82 1.27,0.68 1.41,1 a 3.63,3.63 0 0 0 -0.76,-0.27 3.88,3.88 0 0 1 0.54,1.23 c 0,-0.16 -1.25,0.06 -0.81,0.43 a 1.79,1.79 0 0 1 -0.38,-2.42 c 0.57,-0.74 -0.59,0.8 0,0"
       id="path3662"
       inkscape:connector-curvature="0"
       style="fill:#91ba4d;fill-rule:evenodd" />
    <path
       d="m 183.16,35.58 c 0,-0.27 0.37,-0.32 0.43,-0.1 -0.16,0.17 -0.32,0.36 -0.43,0.1"
       id="path3664"
       inkscape:connector-curvature="0"
       style="fill:#91ba4d;fill-rule:evenodd" />
    <path
       d="m 180.64,36.44 c 0,-0.35 0.25,-0.07 0.27,0.17 0.02,0.24 -0.24,0.07 -0.27,-0.17"
       id="path3666"
       inkscape:connector-curvature="0"
       style="fill:#91ba4d;fill-rule:evenodd" />
    <path
       d="m 165.29,40.75 c -0.15,-0.28 0,-0.33 0.33,-0.12 0.12,0.6 -0.73,0.83 -0.33,0.12 z"
       id="path3668"
       inkscape:connector-curvature="0"
       style="fill:#91ba4d;fill-rule:evenodd" />
    <path
       d="m 172.8,38.87 c 0,0 4.41,1.36 3.38,2.57 -0.8,0.94 -2.78,-0.6 -3.21,-1 0.35,0.23 0.56,0.16 0.63,-0.24 0.07,-0.4 -2.55,-0.69 -0.8,-1.32 0.39,-0.22 0,0 0,0"
       id="path3670"
       inkscape:connector-curvature="0"
       style="fill:#91ba4d;fill-rule:evenodd" />
    <path
       d="m 183.11,36.28 c 0.46,-0.77 1.72,0.48 1.39,1 0,0 -1.64,-0.61 -1.39,-1"
       id="path3672"
       inkscape:connector-curvature="0"
       style="fill:#91ba4d;fill-rule:evenodd" />
    <path
       d="m 139.36,48.39 c 0.4,-0.18 0.92,-0.52 1.26,0.09 0.34,0.61 -1.58,0.76 -1.85,0.28 a 0.62,0.62 0 0 1 0.59,-0.37 z"
       id="path3674"
       inkscape:connector-curvature="0"
       style="fill:#91ba4d;fill-rule:evenodd" />
    <path
       d="m 169.16,44.35 c 0.49,-0.09 0,-1 0.28,-1.13 0.28,-0.13 0.57,0.82 0.79,0.86 -1.07,-0.19 2.29,-1.14 1.29,-0.33 0.28,-0.23 -0.14,-1 -0.28,-1 0.18,0 1.69,0.75 1.78,0.64 -0.17,0.21 -2,-2 -1.93,-2.26 0.32,-1.38 1.88,0.7 2.37,1.07 a 6,6 0 0 0 3.25,1.14 c 0.94,0.14 1.61,0.86 1.2,1.74 l 0,-0.41 c 0.63,-0.22 0.75,0.57 0.6,1 -0.32,0.89 -1,0.12 -1.52,0.51 -0.52,0.39 0.51,2.23 -1,2.89 0,0 -2.8,-0.33 -3.12,-0.38 -1.6,-0.32 1.37,-2 1,-2.26 -0.66,-0.45 -1.72,0.86 -2.28,1 -1.36,0.32 0,-1.36 -0.23,-1.52 a 1.79,1.79 0 0 0 -0.54,0.59 c 0,0 -2,-0.87 -1.44,-1.24 -0.73,0.45 1,3.45 -1,2.32 -0.53,-0.31 -0.35,-0.67 -1.05,-0.42 -0.93,0.34 -0.92,-1.85 -1.27,-2.43 -1,-1.65 -0.7,-1.35 1,-1.4 0.55,0 0.39,-0.7 1,-0.54 1.58,0.46 0.25,0.83 1.12,1.62 0.53,-0.1 -0.37,-0.33 0,0"
       id="path3676"
       inkscape:connector-curvature="0"
       style="fill:#91ba4d;fill-rule:evenodd" />
    <path
       d="m 186.28,42.56 c -0.19,-1 0.13,0 0.43,-0.1 a 8.12,8.12 0 0 1 1.94,-0.49 c 2.46,0 0.18,0.6 0.21,0.86 0.08,0.5 1.38,1.12 1.13,1.77 0,-0.08 -1.13,0 -0.78,0.28 -0.47,-0.41 -2.84,-1.94 -2.93,-2.32 -0.18,-0.94 0,0 0,0"
       id="path3678"
       inkscape:connector-curvature="0"
       style="fill:#91ba4d;fill-rule:evenodd" />
    <path
       d="m 119.61,61.55 c 0.07,0 0.93,-0.16 0.92,0 0,0.69 -1.54,0.43 -1.5,0.36 z"
       id="path3680"
       inkscape:connector-curvature="0"
       style="fill:#91ba4d;fill-rule:evenodd" />
    <path
       d="m 190.68,43.75 c 0,-0.38 1,0.8 0.75,1.17 -0.62,0.33 -0.75,-1.07 -0.75,-1.17 0,-0.29 0,1.38 0,0"
       id="path3682"
       inkscape:connector-curvature="0"
       style="fill:#91ba4d;fill-rule:evenodd" />
    <path
       d="m 204.91,43.14 c 0.16,-1.49 0.84,2.41 0.17,0.65 a 2.23,2.23 0 0 1 -0.17,-0.65"
       id="path3684"
       inkscape:connector-curvature="0"
       style="fill:#91ba4d;fill-rule:evenodd" />
    <path
       d="m 142.16,61.39 c 0.42,-0.71 2.3,1 2.31,1 -0.49,0.81 -2.54,-0.62 -2.31,-1 0.41,-0.69 -0.17,0.28 0,0"
       id="path3686"
       inkscape:connector-curvature="0"
       style="fill:#91ba4d;fill-rule:evenodd" />
    <path
       d="m 199.12,48.24 c 0,-0.4 1.27,0.33 0.91,0.93 0,0 -0.9,-0.67 -0.91,-0.93"
       id="path3688"
       inkscape:connector-curvature="0"
       style="fill:#91ba4d;fill-rule:evenodd" />
    <path
       d="m 145.06,67.5 c 0.29,-1.08 1.8,0.19 1.24,0.79 -0.32,0.34 -1.31,-0.5 -1.24,-0.79 0.07,-0.29 0,0 0,0"
       id="path3690"
       inkscape:connector-curvature="0"
       style="fill:#91ba4d;fill-rule:evenodd" />
    <path
       d="m 203.2,53.62 a 5.43,5.43 0 0 1 -0.22,-0.86 c 0.49,-0.58 1.06,1.08 0.22,0.86 z"
       id="path3692"
       inkscape:connector-curvature="0"
       style="fill:#91ba4d;fill-rule:evenodd" />
    <path
       d="m 157.84,72.06 c -0.59,-0.24 0.5,-1.14 0.75,-0.65 0.09,0.18 -0.45,0.76 -0.75,0.65"
       id="path3694"
       inkscape:connector-curvature="0"
       style="fill:#91ba4d;fill-rule:evenodd" />
    <path
       d="m 157.84,72.06 c 2.14,0.6 -1.5,3.6 -1.61,0.86 0,-0.27 0.81,0.25 0.75,0.27 a 0.68,0.68 0 0 0 0.06,-0.7 c -0.14,0.3 1,-0.37 0.8,-0.43 z"
       id="path3696"
       inkscape:connector-curvature="0"
       style="fill:#91ba4d;fill-rule:evenodd" />
    <path
       d="m 211,61.93 c 0.48,-0.83 0.68,1.14 -0.05,0.7 -0.13,-0.08 0,-0.65 0.05,-0.7"
       id="path3698"
       inkscape:connector-curvature="0"
       style="fill:#91ba4d;fill-rule:evenodd" />
    <path
       d="m 94.68,5.52 c 1.63,-0.4 0.1,-0.28 1.73,-0.67 0.11,0.23 0.61,0 0.57,-0.15 3.29,-0.83 8.86,-2.32 12.15,-3.15 2.7,-0.45 26.12,-2.49 31.09,0.14 -0.47,-0.24 -4.17,-0.63 -5,0.74 -0.3,0.49 -4.32,-0.57 -4.66,0 0,0 7.82,-0.21 7.42,1.79 0.15,-0.77 -1.78,0 -1.95,0.3 -0.3,0.47 4.36,-0.23 4.47,-0.7 0.15,-0.77 -2.07,-0.77 -2,-0.86 a 13.7,13.7 0 0 1 2.46,-1.07 c 0.55,0 1.45,0.07 1.28,0.12 1.38,0.11 0.89,0.31 2.32,0.57 a 24.12,24.12 0 0 0 4.08,0.64 16.49,16.49 0 0 1 -4.45,-0.32 c -0.1,0.19 7.42,1.51 6.55,2.47 0.34,-0.37 -7.88,0.79 -7,1.46 l 0.6,0.16 a 2.76,2.76 0 0 1 -1.67,-0.28 6.73,6.73 0 0 0 -0.75,0.65 c -0.31,0.09 -1.13,0.09 -1.56,0.16 a 21.94,21.94 0 0 1 -2.42,0.39 3.48,3.48 0 0 0 -0.1,-0.44 0.51,0.51 0 0 0 -0.11,0.47 c -0.9,0.4 -3,-1 -3.37,-0.59 -0.37,0.41 -7.39,-0.16 -7.69,-0.73 -0.85,-1.8 4.11,-0.45 4.35,-0.87 0,0.07 -3.81,-2.17 -4.62,-1.12 0,0 1,0.29 1.18,0.17 -0.61,0.4 -1.47,0.17 -2.07,0.63 2,-1.49 -1.32,2.79 -1,0.81 -0.13,0.79 1.88,1.2 1.88,1.13 -0.07,1.17 -2.69,-0.27 -3,-0.16 0,0 -0.2,1 0,0.7 -0.13,0.21 -1.35,1.53 -1.57,1.5 -0.49,-0.05 -0.28,-1 -1.16,-0.07 -0.13,0.15 -1.15,1.79 -1.68,1.38 -0.06,-0.05 1.32,0.34 1.13,0.52 -1.19,1.11 -4.08,0.2 -4.94,1.23 -0.28,0.36 4.27,0.34 4.27,0.33 a 11.45,11.45 0 0 1 2.77,2.25 c 0,0.34 -1.25,-0.49 -0.6,-0.54 -0.87,0.07 -1.3,1.23 -2.22,0.2 -0.56,-0.63 -2,0.07 -2.84,-0.26 -1.23,-0.51 -2.21,0.13 -3.2,-0.15 -0.52,-0.14 -1.72,-1.78 -1.35,-1.72 a 2,2 0 0 0 -1.23,0.54 c -0.39,1.42 2.71,1.15 3.06,1.29 a 1.08,1.08 0 0 0 0,0.71 2.27,2.27 0 0 0 0.75,-0.66 c 0.91,-0.26 1.92,0.53 2.95,0.31 0.57,-0.11 2.21,1 2.14,1.05 -0.37,0.28 -1.4,-0.71 -1.5,0.25 a 0.81,0.81 0 0 1 0.59,0.54 c -0.1,0.09 -2.15,0.73 -2,1 0.15,0.27 2.83,-0.72 3.32,-0.37 0.65,0.46 -0.52,1.38 -0.21,1.87 0.55,0.87 2.06,-0.62 2.41,1.1 0.16,0.85 1.1,1.75 0.94,2.51 -0.11,0.58 2.43,0.4 2.51,1.55 0,0.14 -1.79,0.31 -1.93,0.48 -0.49,0.62 1.07,1 0.19,1.55 -0.88,0.55 -1.44,0.33 -2.27,0.6 -0.83,0.27 -2.6,-1.32 -2.76,-1.39 a 1.7,1.7 0 0 0 -1.15,-0.13 c -0.43,0.22 1.52,0.8 1.59,0.93 0.52,1.14 -0.82,0.75 -0.87,1.13 -0.13,1 2,1.25 0.32,1.88 -2,0.76 2.1,1.73 1.89,1.45 0.41,0.58 -1,2.84 -1.08,2.47 0,-0.21 -2.48,1.23 -2.25,1.55 0.66,0.9 1.57,-0.55 2.26,-0.1 -0.15,-0.09 0.44,2.31 0.32,2.2 -0.12,-0.11 1.65,0.7 1.07,0.65 0.5,0 1,-0.77 1.88,-0.71 1.13,0.06 2.47,2.37 2.75,3.66 a 1,1 0 0 0 -0.7,-0.06 c -0.4,1.44 0.81,2.05 1.88,2.46 1.85,0.71 1.23,1.73 1,3.23 -0.07,0.59 3.13,1.42 3.8,1.8 0.67,0.38 -0.33,1.69 1.27,1.69 0.13,0 0.16,-1.34 0.54,-1.5 0.38,-0.16 1.33,1 1.66,1.18 0.94,0.4 1.45,-0.12 2.09,0.79 a 26.56,26.56 0 0 0 3.22,3.57 c 0.5,0.49 0.35,1.26 0.77,1.64 1,0.92 2.49,0.64 3.18,2.11 0.61,1.3 -1.73,0.69 -1.8,0.75 0.25,-0.2 -0.94,1.53 -0.85,1.11 a 7.94,7.94 0 0 1 0.43,0.81 c -1.93,0.84 -2.07,-1.87 -2.9,-2.47 a 3,3 0 0 1 -1.23,-0.37 c -0.11,-0.22 0.49,-1.57 -0.17,-1.56 -0.48,0 -0.19,1 -0.36,1.23 -0.72,1 -1.77,0.58 -2.71,0.62 0.54,0 0.33,2.91 0.36,3.25 0.1,1.19 -2.33,-0.23 -2.81,-0.18 a 28.21,28.21 0 0 0 -4,0.58 19.61,19.61 0 0 0 -2.36,1.29 c -0.49,-0.06 -0.29,-1.16 -0.91,-1.42 -0.46,-0.19 -2.56,-0.29 -2.66,0 0.06,-0.18 0.94,-0.53 0.51,-0.82 -0.43,-0.29 -1,0.64 -1.45,0.61 -0.45,-0.03 0,-1.07 -0.91,-0.92 -0.45,0.06 -3.06,1.72 -3.11,2.14 a 7.19,7.19 0 0 0 0.85,0.7 29.58,29.58 0 0 1 -1.39,2.63 4.92,4.92 0 0 0 -1.24,-0.37 c -0.8,0.25 -0.26,1.49 -0.91,1.83 -0.65,0.34 -1.71,-0.41 -2.52,0 -0.59,0.24 -0.53,1.2 -1,1.39 a 0.62,0.62 0 0 1 -0.88,-0.38 c -0.75,-0.78 -1.11,0.73 -1.48,1 -0.37,0.27 -2.55,1.21 -2.95,1 -0.23,-0.14 4.75,-11.05 7.86,-9.56 2.2,1.07 4.58,-2.17 6.73,-1.5 0.3,0.09 3.46,-1.8 3.43,-1.69 0.21,-0.93 -4.26,1.1 -5.1,0.6 -0.42,-0.24 0.29,-0.89 0.43,-1 1.21,-1.08 -1.16,-1 -1.72,-1.41 -0.74,-0.49 -2.49,0.31 -3.24,0.57 -1,0.34 -0.95,1.65 -0.78,1.59 -0.47,0.15 -3.7,-1.08 -3.26,-1.78 0.12,-0.21 1,0.35 1.06,0.28 0.62,-1.41 -2.37,-1.7 -2.59,-2 a 9.58,9.58 0 0 0 -3.36,-2.68 c -2,-0.33 -4.57,0.81 -6.67,0.81 -1,0 -1.9,-0.32 -2.87,-0.36 -1.46,0 0,1.07 0,1.54 -0.27,0.1 -1,0.3 -1,0.63 0,0.33 1,0.11 1,0.15 a 5.72,5.72 0 0 0 -0.82,0.57 c 0.49,-1 2.23,0.82 2.12,1.75 -0.06,0.44 -1.69,2 -1.51,2.2 0.33,0.32 3,-1.63 3.44,-1.76 0.29,1.16 -2.63,3 -3.17,3.76 -0.54,0.76 -1.27,4.4 -2.25,4.67 -0.74,0.18 -0.25,-2.66 -2.47,-0.43 -0.79,0.78 -0.87,2.82 -1.87,3.12 1.57,-0.47 -1,-1.85 -1.14,-0.86 -0.08,-1 8,-7.64 7.35,-8 -0.65,-0.36 -3.28,1.49 -3.72,2 -1.5,1.67 -3.23,1.82 -5.36,2.51 -2,0.64 -8.69,3.16 -9,-0.2 -0.17,-1.73 -4.69,0.54 -5.54,0.35 -2.88,-0.67 -1.7,0.73 -2.93,2.54 -1,1.47 -1.34,4 -3.65,4.25 0,-0.22 -0.11,-0.42 -0.17,-0.64 a 1.1,1.1 0 0 1 -0.58,0.38 7.88,7.88 0 0 0 -1.07,-0.64 c 0.31,0.12 -0.7,-1 -0.71,-1 0.1,-0.71 1.78,-1 2.15,-1.45 1,-1.14 0.19,-1 1.29,-1.23 1.3,-0.34 0.59,-2 0.32,-2.66 -0.33,-0.87 1,-0.82 1.45,-1.2 3.08,-2.56 -2.11,-2.24 -2.36,-3.06 -0.12,-0.33 2.13,-1 2.46,-1.07 3.22,-1.19 -2.76,-1.63 -3,-2 -0.91,-1.34 -1.25,1.53 -1.76,2 -0.76,0.73 2.78,2.74 1,4.08 -0.1,0.07 -3.23,-1.7 -4.51,-0.7 -0.39,0.31 -0.54,2.19 -1,2.87 -0.82,1.1 -0.81,2.43 -1.47,3.46 -0.08,0.13 -0.6,-0.69 -0.43,-0.8 -0.55,0.35 -0.08,1.28 -0.56,1.69 -0.48,0.41 -1.08,-0.46 -1.16,-0.34 -0.62,0.81 0.29,1.76 -0.7,2.68 a 0.44,0.44 0 0 1 -0.32,-0.37 0.45,0.45 0 0 0 -0.11,0.48 6.75,6.75 0 0 1 -1.18,0.75 c -0.05,-0.22 -0.1,-0.43 -0.16,-0.65 -0.68,0 -1.37,1.17 -2.2,1.24 a 1.25,1.25 0 0 0 0.05,-0.69 14.37,14.37 0 0 0 -1.59,1.71 c 0,-0.28 -1.47,-0.69 -1.57,-0.7 -0.31,0 -2.37,0.7 -2.67,0 -0.14,-0.34 -0.24,-1.34 -0.76,-1.31 -1,0.08 0.21,-1 0.09,-1.06 -0.35,-0.34 -0.45,0.55 -0.53,0.58 a 0.27,0.27 0 0 1 -0.1,-0.42 3.63,3.63 0 0 1 -0.65,0.16 0.37,0.37 0 0 1 0.11,-0.48 c -0.09,-0.13 -0.84,-0.42 -1.14,-0.86 -0.55,-0.86 -1,0.65 -1.24,0.41 0,0 0.33,-1.32 0.34,-1.33 0.74,-1 0.81,-0.79 0.74,-2.16 -0.1,-2 -3,-0.1 -3.37,0.77 -1.42,3.3 -1.79,7 -3.51,10.2 a 8.74,8.74 0 0 1 -0.79,1.28 c -1.59,2.26 -1.38,-0.29 -2.36,0.23 -0.05,-0.22 -0.11,-0.43 -0.16,-0.64 a 19.84,19.84 0 0 1 1.34,-6.5 c 0.16,-0.46 1.13,-3.82 1.07,-3.93 0,0 -1.65,1.91 -1.8,2.18 -0.64,1.25 -2.71,-1.06 -2.22,-2.44 0.92,-2.58 2,-5 3.21,-7.49 a 40.27,40.27 0 0 1 2.77,-5.72 c 1.07,-1.6 3.75,-5.94 5.18,-7.92 12.34,-17 28.64,-32.27 53.83,-40.65 5.54,-1.37 1.29,-0.52 0,0 m 18.79,9.64 c -0.21,-0.28 -2.08,0.19 -2,0.28 0.32,0.35 2.13,-0.08 2,-0.28 0.07,0.12 0.24,0.34 0,0 m 2.89,2.48 c -0.84,0.08 -2.15,-0.66 -2.73,0 0.92,-0.23 2.17,0.62 2.73,0 M 120,24 c -0.24,0.14 0,-1.22 0.21,-1 -0.53,-0.75 -1.21,1.62 -0.21,1 z M 93.79,58.67 c 0.37,-0.48 -1.36,-0.89 -1.25,-0.37 0,-0.12 1,0.67 1.25,0.37 0.25,-0.3 -0.27,0.35 0,0"
       id="path3700"
       inkscape:connector-curvature="0"
       style="fill:#91ba4d;fill-rule:evenodd" />
    <path
       d="m 218.76,119.32 c -0.6,-1.38 -1.95,-0.66 -1.77,-2.53 0.18,-1.87 -1,-2.55 -2.32,-3.3 a 0.86,0.86 0 0 1 -0.77,-0.84 c -0.07,-0.76 -1,0 -1.49,-0.41 -0.8,-0.73 1,-1.1 -0.89,-1.51 -2.17,-0.48 0.35,-0.46 -0.66,-1.08 0,0 -2.52,0.28 -2.19,-0.88 0.59,-2.08 -3.29,-2.8 -3.29,-2.75 -0.94,1.57 2.43,3.43 3.12,4.23 0.8,1 5.4,6.51 4.24,6.93 -1.16,0.42 -3.21,-3.86 -4,-4.24 A 1.43,1.43 0 0 1 208.47,113.7 5.74,5.74 0 0 1 207,113 c -0.13,-0.25 1.53,-1.54 0.08,-2.21 -2.31,-1.06 -2.77,-3.17 -4.33,-5 -0.86,-1 -4,-0.91 -4.16,-1.43 -0.42,-1.62 -3,-2.28 -3.07,-4 0,0 0.84,0.16 0.37,-0.32 -0.47,-0.48 -0.55,0.42 -1.07,0.26 -0.52,-0.16 -0.93,-1.29 -1.12,-1.58 A 13.74,13.74 0 0 0 192.56,97 c -0.76,-0.9 0,-2.08 -0.73,-3.09 -1.58,-2.23 -1.56,-4.49 -2.14,-7.08 -0.17,-0.66 -2.5,-2.91 -2.09,-3.47 0.19,-0.27 1.71,-0.08 2,0 0.16,-0.52 -1.34,-2.15 -1.77,-2.52 a 0.59,0.59 0 0 1 -0.32,0.53 c -0.14,0 0.65,-0.85 -0.43,-0.8 1,0 -0.47,0.87 -0.6,0.37 0.11,0.43 2.3,1.57 2.1,2 -0.51,1.09 -1.79,-0.49 -1.71,-0.48 -0.67,-0.1 -1.62,0.46 -2.12,-0.73 0,0.08 -2.24,-0.62 -1.75,-1.05 0.49,-0.43 1.43,0.17 2,-0.26 -0.62,-0.54 -1.52,-0.2 -2,-0.86 -0.48,-0.66 0,-1.1 -0.44,-1.71 0.3,0.43 -0.9,-0.91 -0.92,-0.92 l -2,-0.86 a 1,1 0 0 1 0.06,-0.7 c -0.16,-0.15 -1,0.59 -1,-0.12 0,-0.93 0.39,-0.36 -0.26,-1.16 a 0.66,0.66 0 0 1 0,0.69 c -0.27,-0.16 -0.83,-2.31 -1.18,-2 -0.94,0.1 1,0.87 0.32,1.28 -0.87,0.53 -0.92,-3 -2.1,-2 -0.41,0.37 2,3.08 2,3.08 -0.92,-0.2 -1.92,-1.47 -2.44,-2.27 0.33,0.51 -0.91,0 -0.37,-0.79 0.28,-0.41 0.16,-2.13 -0.7,-1.81 0.14,-0.06 0.66,1.94 -0.07,1.74 -0.43,-0.13 -0.33,-1.22 -0.79,-1.4 0.33,0.13 -0.58,0.66 -0.52,0.66 a 1.48,1.48 0 0 1 -0.51,-1.08 c 0,0.06 1.13,0.21 0.64,-0.16 -2.24,0.38 -2.95,-1.07 -4.56,-1.83 -0.47,-0.21 -3.46,0.41 -3.84,-0.3 a 23.07,23.07 0 0 0 -3.15,-1.15 c -0.51,0.39 0.12,1 0.31,1.35 0.54,0.91 -0.7,0.5 -0.75,0.64 -0.24,0.49 -0.08,0.4 -0.46,0.76 -1.36,1.33 -1.05,-0.17 -1.29,-0.17 -2.12,-0.1 1.14,-2.63 0.91,-2.25 a 0.47,0.47 0 0 1 0.06,-0.7 c -1.08,0.46 -4.08,4.69 -2.34,4.16 a 28.2,28.2 0 0 1 -2.06,2 c -1.41,0.91 -2.08,2.93 -3.66,3.65 -0.46,0 -1.8,0.55 -2.57,0.64 A 0.52,0.52 0 0 0 149,76.46 c 0.12,0 -1.39,1.93 -2.12,0.94 0.07,0.1 4.26,-2.53 4.24,-1.94 0,-1.12 1.73,-1.74 2.57,-2.26 0.84,-0.52 -0.07,-1.61 0.45,-2.48 -0.55,0.92 -1,-0.25 -1.38,-0.23 a 0.69,0.69 0 0 1 -0.28,0.76 c -0.33,-0.05 -0.81,-0.7 -1.07,-0.93 -0.56,-0.51 -1.31,0.94 -1.77,0.5 0.2,0.19 0.2,-2 0.16,-2.16 -0.28,-1 -1.24,0.12 -1.88,-0.15 a 8.17,8.17 0 0 1 -1.52,-3 7.05,7.05 0 0 1 1.52,-2.43 c 0.47,-0.31 0.87,0.79 1.24,-0.17 0.16,-0.4 2,0.09 1.53,-0.72 -0.06,-0.12 -0.41,-1.6 -0.14,-1.36 -0.68,-0.61 -0.88,0.54 -1.45,0.59 0.06,0 -2.42,-0.8 -1.7,-0.62 -0.28,-0.07 -1.84,-2 -1.67,-2.31 1.38,-2.39 3.25,1.11 4.44,-0.07 0.7,-0.72 -4.74,-3.93 -3,-4.45 1.74,-0.52 1.64,-1.58 3.18,-2.33 0.55,-0.27 1.27,-0.05 1.73,-0.31 1.27,-0.73 0.12,-0.75 1.35,-0.11 a 0.37,0.37 0 0 1 0.38,-0.33 2,2 0 0 0 0.37,0.59 4.78,4.78 0 0 1 1.07,-0.26 c 0.54,0.26 -0.9,0.46 0.29,0.81 1.19,0.35 2.88,0 4.08,0 1.59,0 4.22,2 5.72,1.23 -0.77,0.4 0,-1.3 0.12,-1.4 -0.35,0.31 0.65,0.54 0.8,0.49 0.52,-0.21 0.34,-1.51 0.87,-1.75 0.25,-0.11 0.26,1.4 0.58,1.16 0.32,-0.24 0.38,-1.92 0.43,-1.94 0.2,0 1.36,1.12 1.88,1.13 a 2.74,2.74 0 0 1 -0.51,-1.17 c 0.09,-0.1 0.81,0.81 1.07,0.69 0.59,-0.26 0.14,-0.74 0.67,-1 a 19.72,19.72 0 0 1 3.82,-0.26 c 1.08,0 0.72,2.43 2.46,0.75 0.42,-0.4 -0.08,-1 0.65,-1.08 0.73,-0.08 1.07,1 1.82,0.92 0.18,-0.13 -1.25,-1.72 -1.61,-1.88 -2.4,-1.18 1.62,-0.63 2.25,-1 2.16,0 -1.73,-3.77 -1.73,-3.76 0.33,-1.32 3.26,2.08 3.77,1.88 0,-0.48 -1,-1.1 -1.19,-1.68 -0.44,-1.61 -0.66,-0.05 -1.23,-0.68 -0.24,-0.31 0.14,-1.3 -0.83,-0.49 -0.73,0.63 -0.74,-0.44 -1.56,-0.67 -0.82,-0.23 -0.88,-1 -1.47,-1.53 -0.9,-0.71 -2.17,-0.85 -3,-1.64 -0.67,-0.65 0.23,-2.11 1,-1.29 0.77,0.82 0.35,1.12 0.8,1.86 0.36,0.54 6.35,3.21 6.83,2.63 -0.63,-0.09 -0.94,-0.4 -0.92,-0.91 0.78,-0.78 2.09,1 2.83,1.08 a 15.7,15.7 0 0 0 -1.59,-1.62 c -0.44,-0.44 -2.79,-1.83 -1.5,-2.36 1.09,-0.48 5.14,2.3 4.67,3.16 a 2.44,2.44 0 0 0 -0.71,-0.06 c 0.18,0.54 1.27,0.32 0.93,0.91 -0.18,0.31 0.61,1.36 0.86,1.62 0.58,0.63 2.34,1 1.72,2.28 -0.45,0.93 0.77,0.71 0.77,1.55 a 22.57,22.57 0 0 0 1.1,2.49 c 0.58,1.47 2.56,4.2 4.2,4.73 -0.14,0 0.23,-1.41 0.91,-0.45 a 4.22,4.22 0 0 0 1.4,1.03 3.3,3.3 0 0 1 1.66,-1.54 c 0.57,-0.1 1.48,-0.09 1.94,-0.5 0.28,-0.23 -0.06,-1.45 0.54,-1.5 0.82,-0.08 1.7,2 2.41,2.37 0.71,0.37 1.51,0.16 2.21,0.57 0.59,-0.62 -1.81,-3 -2.48,-3.48 -2.24,-1.45 -2.75,-3.89 -5.32,-5.43 -0.71,-0.42 -1.37,0.2 -1.84,-0.53 -0.77,-1.22 -1.46,-1.24 -2.56,-1.87 -0.53,-0.3 -2.33,-1.47 -2.06,-2.18 0.2,-0.5 -0.1,-1.53 0,-1.63 0.1,-0.1 1.66,-0.09 1.77,-0.22 a 0.41,0.41 0 0 0 -0.12,-0.64 c 0.33,0.37 3.47,2 2.88,0.51 -0.18,-0.49 -2.25,-2.86 -2.61,-2.73 0.94,-0.33 2.51,0.74 3.13,0.44 0.38,-0.13 0.38,0 0.88,0.43 0.5,0.43 0.84,-1.53 0.9,-1.56 a 0.62,0.62 0 0 0 0.58,0.54 0.68,0.68 0 0 1 0.05,-0.69 c 1.53,0.12 2.38,2.23 3.82,2.46 a 0.8,0.8 0 0 1 -0.26,-1.07 c 1.91,-1 2.82,4.83 3.5,5.41 a 31.93,31.93 0 0 1 -4.21,-4.56 c 0.33,2 2.41,3.3 2.94,5.37 0.18,0.66 1.09,3.93 2.17,4.08 0.61,0.1 -1.05,-1.76 -0.27,-2 0.21,-0.06 2.07,3.43 2.84,2.24 0.1,-0.86 -0.74,0.47 -1,-0.35 a 28.7,28.7 0 0 0 -0.76,-2.86 c 0.39,-0.44 1.07,1.66 1.13,1.77 l 3.23,5.58 c -0.79,0 -0.66,-1.43 -1.3,-1.49 0.51,0.92 3.37,7.49 3.8,6.69 0,0 1.19,3.61 1.27,3.93 0.35,1.34 1.22,2 1.77,3.23 0.49,1.05 0.24,2.29 0.85,3.14 a 2.68,2.68 0 0 1 0.28,-0.74 c 2.22,3.19 2.8,7.24 3.61,11.09 0.26,1.25 4.72,10.43 3.7,10.82 -0.64,0.23 -1.67,-3.93 -2.58,-3.93 0.62,0 -0.82,2.44 -0.81,2.37 -0.06,0.45 -0.89,2.66 -0.5,2.94 a 1.57,1.57 0 0 1 0.68,1.25 2.5,2.5 0 0 1 -0.49,-0.11 5,5 0 0 0 0.16,0.64 c -0.57,1.65 -0.55,-0.14 -1,0.5 -0.1,0.12 -1.18,3.16 -1.12,2.78 -0.6,3.08 0.34,5.33 0.7,8.27 0.35,2.69 0.48,5.42 2,7.83 1.36,2.15 2.47,-1.68 2.67,-2.84 0.38,-2.21 -1.22,-6.41 0.7,-8.32 -0.34,0.36 0.6,8.75 0.91,9.28 -0.55,-0.34 1.09,-4.26 1.23,-4.18 0.43,0.18 -0.45,6.67 -0.43,7.49 a 21.93,21.93 0 0 1 -0.14,-2.69 c -0.12,1 0.93,5.07 -0.25,5.65 0.49,-0.24 -0.17,-2.71 -0.29,-2.58 -0.5,0.54 -0.36,1.44 -1.06,1.86 -1.75,1 -1.17,-0.16 -2.25,2 -1,2 -4,1.39 -4.91,2.92 l -0.21,0 c -0.22,-0.51 0.07,0 0,0 M 173.84,53.9 a 1.23,1.23 0 0 0 -0.27,1.66 c -1.15,-1.19 2.11,-1.56 2.13,-1.65 -0.07,0.31 -1.33,0.75 -1.44,0.8 a 1.64,1.64 0 0 1 0.65,-0.16 c 0.4,0.11 0,1.51 0,1.73 0,1.29 1.54,-0.93 1.13,-0.88 0,0 0.41,0.84 0.58,0.55 0.17,-0.29 -0.61,-1.42 -0.58,-1.46 l 0.85,-0.22 a 2,2 0 0 0 -0.75,-1.17 c 0.34,0.35 -0.65,0.83 -0.7,0.83 -0.52,0 0.08,-1 -0.14,-1.07 -0.22,-0.07 -1.31,0.83 -1.46,1 -0.45,0.55 0.09,-0.13 0,0 M 206,62 c 0.85,0.78 -0.37,-1.77 -0.37,-0.58 0,0.26 0.25,0.47 0.37,0.58 m 4.09,0.81 c 0,0 -1.3,-1.33 -1.24,-1.3 a 0.82,0.82 0 0 0 -0.54,0.6 c -0.7,0.2 -0.3,-0.51 -0.67,-0.65 -0.37,-0.14 -0.17,5.63 0.68,6.12 0.67,0.39 0.33,-2.22 0.47,-2.63 a 0.42,0.42 0 0 0 0.34,0.38 7.62,7.62 0 0 0 1,-2.52 c -0.13,-0.36 0.07,0.22 0,0 m 0.16,-0.28 a 2.5,2.5 0 0 0 0.65,0.76 c -0.12,0.41 -0.23,0.82 -0.38,1.24 a 4.49,4.49 0 0 0 0.26,2.23 c 0.17,0.26 3.43,4.4 3.44,4.36 0.57,-0.92 -2.54,-4.3 -2.9,-5.2 -0.42,-1.07 -0.46,-3.25 0.76,-1.56 -0.31,-0.45 0.67,0.78 0.64,0.76 -0.03,-0.02 0.42,-0.27 0.84,0.54 a 5.91,5.91 0 0 0 -0.14,-1.41 c -0.35,-0.76 -1.28,-1.14 -1.62,-1.88 a 1.51,1.51 0 0 1 0.7,0.05 c 0.54,-2 -2.06,-1.56 -2.25,0.11 -0.05,0.43 0,-0.25 0,0 m 4.35,3.71 c 0,0.35 -0.48,1.36 -0.05,1.62 1.17,0.69 -0.12,-4.45 -0.33,-4 0,0.73 0.34,1.47 0.38,2.41 m -28.87,14.3 c 0.25,0.61 1.13,-0.66 0.38,-0.31 -0.14,0 -0.45,0.14 -0.38,0.31"
       id="path3702"
       inkscape:connector-curvature="0"
       style="fill:#91ba4d;fill-rule:evenodd" />
    <path
       d="m 145.35,14.94 c 0.57,-0.18 -2.41,0.79 -2.74,0 0,-1.43 2,-0.31 2,-0.27 0.21,-0.37 -2.33,-1.8 -2.22,-1.92 0.94,-1.12 1.55,1 2,0.85 0.84,-0.24 -0.36,-1.78 1,-1.16 1.36,0.62 0.46,1.32 0.41,1.26 0.14,0.17 2.41,0.16 1.68,1.33 0.15,-0.26 -2.58,0 -2.06,-0.09"
       id="path3704"
       inkscape:connector-curvature="0"
       style="fill:#91ba4d;fill-rule:evenodd" />
    <path
       d="m 169.94,14.71 c -0.75,0.1 -6.78,-3 -6.39,-3.66 0.65,-1.1 8,3.66 6.39,3.66 -0.42,0.06 0,0 0,0"
       id="path3706"
       inkscape:connector-curvature="0"
       style="fill:#91ba4d;fill-rule:evenodd" />
    <path
       d="m 165.28,15.19 c 1.1,-1.15 6.26,2.6 7.08,2.79 a 10,10 0 0 1 4,2.2 c 0.76,0.53 3.77,1.1 4.33,1.76 a 9.11,9.11 0 0 0 1.9,1.24 c 1.24,0.53 4.41,0.65 4.41,3 a 0.3,0.3 0 0 1 -0.43,0.11 0.36,0.36 0 0 0 0.33,0.37 c -0.31,0.67 -0.53,-0.08 -0.71,-0.05 a 0.52,0.52 0 0 0 -0.1,0.48 c -1.23,0.38 -3.4,-0.25 -4.46,-0.48 -1.33,-0.29 -1.12,0.14 -2.31,-1 0,0 0.09,0.5 0.07,0.51 -0.27,0.06 -2,-1.61 -2.54,-1.25 -0.32,0.19 0.52,0.9 -0.22,1.23 -0.74,0.33 -0.29,-1.86 -1.5,-0.8 -0.22,0.19 0.58,1 0.49,1 -0.94,0.26 -3.25,-0.79 -4.25,-0.53 -3.38,0 -0.26,2.46 -0.8,3.17 -0.54,0.71 -0.52,-0.29 -0.75,-0.27 a 0.65,0.65 0 0 0 -0.53,0.59 c -0.49,-0.23 -0.57,-1.55 -1.08,-1.56 -0.51,-0.01 -0.09,1.84 -1.67,0.65 -0.51,-0.41 -1.74,-2 -2.52,-1.88 -0.4,0 0.18,0.61 0,0.69 a 21.51,21.51 0 0 1 -4.48,-2.29 c -0.12,-0.36 0.78,-0.39 0.48,-0.81 -0.3,-0.42 -0.81,0.25 -1.05,0 0,-0.28 0,-0.57 0.08,-0.87 -1.27,0.14 -0.3,-0.33 -1.23,-0.64 -0.21,-0.07 -0.31,1.25 -0.75,0.64 a 5.49,5.49 0 0 1 0.05,-0.7 c 0,0 -3.8,-1.37 -2.5,-2.27 0.95,-0.67 1.85,1.25 2.45,1.14 0.13,0 -1.44,-1.23 -1.46,-1.34 0.1,0.43 0,-0.32 -0.4,0 -0.06,0.06 1.19,-0.37 1,-0.48 -0.44,-0.29 -3.23,-0.12 -2.88,-1.15 0.17,-0.51 2.67,0.11 3.11,0.11 a 0.63,0.63 0 0 0 -0.64,-0.28 c 0.3,-0.11 3.16,-0.45 2.28,-1.3 -0.52,-0.5 2.1,0.17 1.79,0.28 0.48,-0.18 -0.23,-0.84 -0.21,-0.86 0.27,-0.33 1.42,-0.19 0.78,-0.8 0.31,0.29 2.55,0.24 2.51,0.32 0.29,-0.47 0.75,0.06 1.17,-0.55 1,-1.53 1.33,1.25 2,1.45 -0.48,-0.14 0.22,-1 0.27,-0.75 a 1.37,1.37 0 0 0 -1.12,-0.86 c 0.4,-0.43 0.35,0.12 0,0 m -1.94,1.41 c 0.08,-0.15 -0.29,-0.73 -0.38,-0.61 -0.09,0.12 0.29,0.74 0.38,0.61 m 0.48,0.09 c 0.15,0.54 0.73,-0.23 0.66,-0.47 -0.07,-0.24 -0.69,0.37 -0.66,0.47 z m 3.65,0 a 0.51,0.51 0 0 0 -0.38,0.33 c 1.5,0.91 -0.11,-1.19 0,-0.8 0,0.12 0.42,0.41 0.41,0.47 -0.01,0.06 0,-0.12 0,0"
       id="path3708"
       inkscape:connector-curvature="0"
       style="fill:#91ba4d;fill-rule:evenodd" />
    <path
       d="m 167.38,34.52 c 0.05,-0.11 -0.07,-0.69 0.32,-0.53 0.23,0.09 -0.62,1.38 -0.32,0.53"
       id="path3710"
       inkscape:connector-curvature="0"
       style="fill:#91ba4d;fill-rule:evenodd" />
    <path
       d="m 169.31,37.69 a 1.82,1.82 0 0 0 -1,-0.43 0.48,0.48 0 0 1 0.38,-0.33 c 0,0 -0.58,-0.64 -0.22,-0.85 0.36,-0.21 1.86,0.71 2.14,1 1.69,1.5 -1.11,0.3 -0.9,0.32 -0.09,0 -0.55,0.32 -0.38,0.32 -0.33,-0.22 0,0 0,0"
       id="path3712"
       inkscape:connector-curvature="0"
       style="fill:#91ba4d;fill-rule:evenodd" />
    <path
       d="m 166.25,38.23 c 0.56,-0.43 1.25,0.76 1.78,0.69 a 0.53,0.53 0 0 0 -0.16,-0.64 c 2.18,0.79 0.82,1 0.86,2.52 0,2 -1,-0.07 -1.41,-0.1 -0.07,0 -0.17,1.53 -1.17,0.75 0.28,0.2 -0.37,-1.4 -0.32,-1.15 -0.48,-2.48 2.14,0.68 2.35,-0.73 0,-0.26 -1.77,-0.82 -1.93,-1.34 0.44,-0.34 0.25,0.79 0,0"
       id="path3714"
       inkscape:connector-curvature="0"
       style="fill:#91ba4d;fill-rule:evenodd" />
    <path
       d="m 144.21,78.67 c -0.26,0.2 0.75,-1.54 0.75,-0.65 0,0.89 -1.49,0.65 -1.75,1 a 3.23,3.23 0 0 1 1,-0.31"
       id="path3716"
       inkscape:connector-curvature="0"
       style="fill:#91ba4d;fill-rule:evenodd" />
    <path
       d="m 178.57,78.27 c -0.55,-0.39 -1.72,-1.3 -1.67,-2.09 0,-0.07 2,0.83 0.92,0 0.44,0.34 1.42,2.57 0.75,2.09 z"
       id="path3718"
       inkscape:connector-curvature="0"
       style="fill:#91ba4d;fill-rule:evenodd" />
    <path
       d="m 181,77 c 0,0 -0.38,-0.24 -0.06,-0.21 0.32,0.03 0.62,1.5 0.06,0.21"
       id="path3720"
       inkscape:connector-curvature="0"
       style="fill:#91ba4d;fill-rule:evenodd" />
    <path
       d="m 223.64,96.13 c -0.17,-0.67 -0.31,-8.49 0.24,-8.72 -0.13,0.06 0.73,3.8 0.67,4.09 a 1.12,1.12 0 0 1 -0.33,-0.32 c -0.78,1.43 0.19,4.58 -0.53,5.16 -0.25,0.13 -0.28,0 -0.05,-0.21 -0.23,-1 -0.2,0.25 0,0"
       id="path3722"
       inkscape:connector-curvature="0"
       style="fill:#91ba4d;fill-rule:evenodd" />
    <path
       d="m 107.26,180.26 c -1.8,8.73 -6.09,24.51 -5.88,24.57 9.77,2.82 25.83,2.6 25.83,2.6 l 0.05,-1.47 -1.37,-13.39 z"
       id="path3724"
       inkscape:connector-curvature="0"
       style="fill:url(#linearGradient3760)" />
    <path
       d="m 86.69,95.38 c 3.12,-9.15 1.18,-16.18 21,-14.41 1.7,-1.65 6.52,-11.15 5.46,-13.26 -5.49,-2.8 -18.9,-5.84 -18.9,-5.84 0,0 -2.84,-4 -6.43,-5.46 a 34.25,34.25 0 0 0 -13.08,-2.7 32.85,32.85 0 0 0 -12.1,2.37 c -0.89,-0.51 -4.48,-2 -7.52,-0.55 -4.88,2.35 -3.94,6.23 -3.93,6.39 a 16.08,16.08 0 0 0 -1.94,2 69.24,69.24 0 0 0 -12.89,20.5 C 35.75,85.84 28.74,99.9 26,110.49 a 60.75,60.75 0 0 0 -2.14,11.64 c 7.17,43.63 38.64,64.47 38.64,64.47 l 0.76,-18.22 -4.06,-4.58 0.38,-1.25 5.58,4.56 3,23.61 a 138.24,138.24 0 0 0 28.47,13 c 4.23,-11.22 7.19,-15.56 6.26,-32.59 l 1.8,4 c -0.06,1 2.7,3.35 2.72,3.45 l 19.91,13 3,15.66 a 106.22,106.22 0 0 0 43.55,-12.14 c 2.6,-19.76 4.55,-40.09 -3.9,-53.46 -20.33,-32.17 -68.46,-39.35 -83.28,-46.26 z"
       id="path3726"
       inkscape:connector-curvature="0"
       style="fill:url(#g)" />
    <path
       d="m 86.69,95.38 c 3.12,-9.15 1.18,-16.18 21,-14.41 1.7,-1.65 6.52,-11.15 5.46,-13.26 -5.49,-2.8 -18.9,-5.84 -18.9,-5.84 0,0 -2.84,-4 -6.43,-5.46 a 34.25,34.25 0 0 0 -13.08,-2.7 32.85,32.85 0 0 0 -12.1,2.37 c -0.89,-0.51 -4.48,-2 -7.52,-0.55 -4.88,2.35 -3.94,6.23 -3.93,6.39 a 16.08,16.08 0 0 0 -1.94,2 69.24,69.24 0 0 0 -12.89,20.5 C 35.75,85.84 28.74,99.9 26,110.49 a 60.75,60.75 0 0 0 -2.14,11.64 c 7.17,43.63 38.64,64.47 38.64,64.47 l 0.76,-18.22 -4.06,-4.58 0.38,-1.25 5.58,4.56 3,23.61 a 138.24,138.24 0 0 0 28.47,13 c 4.23,-11.22 7.19,-15.56 6.26,-32.59 l 1.8,4 c -0.06,1 2.7,3.35 2.72,3.45 l 19.91,13 3,15.66 a 106.22,106.22 0 0 0 43.55,-12.14 c 2.6,-19.76 4.55,-40.09 -3.9,-53.46 -20.33,-32.17 -68.46,-39.35 -83.28,-46.26 z"
       id="path3728"
       inkscape:connector-curvature="0"
       style="fill:none" />
    <path
       d="m 107.26,180.26 c -1.8,8.73 -6.09,24.51 -5.88,24.57 9.77,2.82 25.83,2.6 25.83,2.6 l 0.05,-1.47 -1.37,-13.39 z"
       id="path3730"
       inkscape:connector-curvature="0"
       style="fill:none" />
    <path
       d="m 127.21,207.43 c 0,0 -16.06,0.22 -25.83,-2.6 -0.21,-0.06 4.08,-15.84 5.88,-24.57 l 18.63,12.31 1.37,13.43 z m 46.66,-12.37 a 106.22,106.22 0 0 1 -43.55,12.14 l -3,-15.66 -19.91,-13 c 0,-0.1 -2.78,-2.49 -2.72,-3.45 l -1.8,-4 c 0.93,17 -2,21.37 -6.26,32.59 a 138.24,138.24 0 0 1 -28.47,-13 l -3,-23.61 -5.58,-4.56 -0.38,1.25 4.09,4.58 -0.76,18.22 c 0,0 -31.47,-20.84 -38.64,-64.47 A 60.75,60.75 0 0 1 26,110.49 C 28.71,99.9 35.72,85.84 36.33,84.42 A 69.24,69.24 0 0 1 49.29,64 16.08,16.08 0 0 1 51.23,62 c 0,-0.16 -0.95,-4 3.93,-6.39 3,-1.46 6.63,0 7.52,0.55 a 32.85,32.85 0 0 1 12.1,-2.37 34.25,34.25 0 0 1 13.08,2.7 c 3.59,1.47 6.43,5.46 6.43,5.46 0,0 13.41,3 18.9,5.84 1.06,2.11 -3.76,11.61 -5.46,13.26 -19.86,-1.77 -17.92,5.26 -21,14.41 14.82,6.91 62.95,14.09 83.28,46.22 8.41,13.32 6.46,33.62 3.86,53.38 z"
       id="path3732"
       inkscape:connector-curvature="0"
       style="fill:none" />
    <path
       d="m 127.21,207.43 0.05,-1.47 -1.37,-13.39 -18.63,-12.31 c -1.8,8.73 -6.09,24.51 -5.88,24.57 9.77,2.82 25.83,2.6 25.83,2.6 z m 46.66,-12.37 c 2.6,-19.76 4.55,-40.09 -3.9,-53.46 -20.33,-32.13 -68.46,-39.31 -83.28,-46.22 3.12,-9.16 1.18,-16.18 21,-14.41 1.69,-1.65 6.51,-11.15 5.45,-13.26 -5.49,-2.8 -18.9,-5.84 -18.9,-5.84 0,0 -2.84,-4 -6.43,-5.46 A 32.64,32.64 0 0 0 62.63,56.08 c -0.9,-0.51 -4.48,-2 -7.52,-0.55 -4.88,2.35 -3.94,6.23 -3.93,6.39 a 16.08,16.08 0 0 0 -1.94,2 69.24,69.24 0 0 0 -12.88,20.5 C 35.75,85.84 28.74,99.9 26,110.49 a 60.75,60.75 0 0 0 -2.14,11.64 c 7.17,43.63 38.64,64.47 38.64,64.47 l 0.76,-18.22 -4.06,-4.58 0.38,-1.25 5.58,4.56 3,23.61 a 138,138 0 0 0 28.47,13 c 4.23,-11.22 7.19,-15.56 6.26,-32.59 l 1.8,4 c -0.06,1 2.7,3.35 2.72,3.45 l 19.91,13 3,15.66 a 106.22,106.22 0 0 0 43.55,-12.18 z"
       id="path3734"
       inkscape:connector-curvature="0"
       style="fill:none;stroke:#8badd3;stroke-width:0.22;stroke-linecap:round;stroke-linejoin:round" />
    <path
       d="m 228.17,103.86 c 0,57.17 -46.34,103.78 -103.52,103.51 C 66.38,207.11 22.55,161.15 22.55,104 22.55,42.18 76.74,0.34 124.65,0.34 a 103.52,103.52 0 0 1 103.52,103.52 z"
       id="path3736"
       inkscape:connector-curvature="0"
       style="fill:none;stroke:#8badd3;stroke-width:0.44999999" />
  </g>
  <g
     clip-path="url(#h)"
     id="g3738"
     transform="translate(-0.00161519,-0.00957586)">
    <path
       d="m 22.47,0.5 206.1,0 0,207.03 -206.1,0 z"
       id="path3740"
       inkscape:connector-curvature="0"
       style="fill:none;stroke:#ffffff" />
  </g>
  <path
     d="m 22.468385,104.12042 c 0,57.18 45,103.4 102.339995,103.4 a 103.52,103.52 0 1 0 0,-206.99999586 C 76.778385,0.49042414 22.468385,42.320424 22.468385,104.12042"
     id="path3742"
     inkscape:connector-curvature="0"
     style="fill:none;stroke:#ffffff" />
  <path
     d="m 1.4583848,172.11042 0.01,-84.819996 -0.84999999,-3.97 14.05000019,0 -0.83,3.99 0,84.799996 0.83,3.96 -14.05000019,0 z"
     stroke-miterlimit="10"
     id="path3744"
     inkscape:connector-curvature="0"
     style="fill:#ffffff;stroke:#0065a4;stroke-miterlimit:10" />
  <path
     d="m 102.31838,175.99042 -15.679995,0 a 21.39,21.39 0 0 0 -0.25,-4.11 c -1,-2.74 -8.32,-21.8 -10.63,-27.51 -0.53,-1.35 -1.07,-2.7 -1.61,-4 -1.44,-0.05 -34.09,-0.07 -34.09,-0.07 0,0 -10.15,24.46 -13.09,31.61 a 20.86,20.86 0 0 0 -0.74,4.25 l -9.21,-0.17 39.37,-92.639996 4.08,0 c 0,0 41.999995,92.739996 41.849995,92.679996 m -30.049995,-41.94 -15,-34.229996 q -7.29,17.129996 -14.65,34.229996 z"
     stroke-miterlimit="10"
     id="path3746"
     inkscape:connector-curvature="0"
     style="fill:#ffffff;stroke:#0065a4;stroke-miterlimit:10" />
  <path
     d="m 107.42838,171.99042 0,-84.659996 -1,-4 c 0,0 25.37,0.08 30.51,0 8.83,-0.1 19.42,1.21 25.26,8.66 5.34,6.82 4.9,18.399996 0.15,25.459996 -4.64,6 -9.88,8.67 -15.27,11.66 6.07,7.57 44.2,60 44.2,60 0,0 -3.14,1.88 -7.45,-2.12 -0.41,-0.34 -42.73,-46.17 -51.51,-55.53 l -12.77,0 c 0,2.31 0.71,30 1,40.44 l 1.1,4 -15.1,0 z m 12,-45.07 c 8.76,-0.11 28.16,-1.54 33.24,-12.38 5,-10.58 -0.56,-22.799996 -12.08,-25.449996 -3.77,-0.86 -20.71,-1.65 -20.71,-1.65 0,0 -0.45,39.059996 -0.45,39.479996"
     stroke-miterlimit="10"
     id="path3748"
     inkscape:connector-curvature="0"
     style="fill:#ffffff;stroke:#0065a4;stroke-miterlimit:10" />
  <path
     d="m 221.56838,177.61042 c -7,0 -15.93,-1 -21.89,-3 a 41.15,41.15 0 0 1 -15.42,-9 42.52,42.52 0 0 1 -10.12,-14.92 51.32,51.32 0 0 1 -3.67,-20 51.43,51.43 0 0 1 3.67,-20 41.61,41.61 0 0 1 10.27,-14.879996 44.5,44.5 0 0 1 15.83,-9.25 61.71,61.71 0 0 1 20.28,-3.18 67.36,67.36 0 0 1 16.08,1.79 c 4.86,1.19 12.89,4.3 12.89,4.3 a 29.32,29.32 0 0 1 -2.18,15.859996 c -0.87,-1.36 -3.31,-6.359996 -4.91,-8.429996 a 23.68,23.68 0 0 0 -5.86,-4.26 35.68,35.68 0 0 0 -7.21,-3.11 29.53,29.53 0 0 0 -8.81,-1.26 41.42,41.42 0 0 0 -14.62,2.52 31,31 0 0 0 -11.76,7.68 35.89,35.89 0 0 0 -7.81,13.219996 57.45,57.45 0 0 0 -2.8,19 57.48,57.48 0 0 0 2.8,19 36,36 0 0 0 7.81,13.17 31,31 0 0 0 11.74,7.74 c 4.49,1.68 11.77,2.52 17,2.52 a 31.24,31.24 0 0 0 8.87,-1.2 47.89,47.89 0 0 0 7.48,-2.84 44.49,44.49 0 0 0 6.14,-3.57 c 1.83,-1.28 4.61,-3.37 4.61,-3.37 0,0 -0.62,8.87 -4.47,10.64 -6.94,3.85 -15.62,4.82 -24,4.83"
     stroke-miterlimit="10"
     id="path3750"
     inkscape:connector-curvature="0"
     style="fill:#ffffff;stroke:#0065a4;stroke-miterlimit:10" />
</svg>
