<?xml version="1.0" encoding="utf-8"?>
<!-- Generator: Adobe Illustrator 23.0.1, SVG Export Plug-In . SVG Version: 6.00 Build 0)  -->
<svg version="1.1" xmlns="http://www.w3.org/2000/svg" xmlns:xlink="http://www.w3.org/1999/xlink" x="0px" y="0px"
	 viewBox="0 0 450.1 122.8" style="enable-background:new 0 0 450.1 122.8;" xml:space="preserve">
<style type="text/css">
	.st0{fill:url(#SVGID_1_);}
	.st1{fill:url(#SVGID_2_);}
	.st2{fill:#2C496F;}
</style>
<g id="Layer_2">
	<g>
		
			<linearGradient id="SVGID_1_" gradientUnits="userSpaceOnUse" x1="117.4496" y1="-353.1105" x2="83.2595" y2="-247.8844" gradientTransform="matrix(0.9806 0.1959 -0.1959 0.9806 -68.666 353.4392)">
			<stop  offset="0" style="stop-color:#839BCF"/>
			<stop  offset="0.2607" style="stop-color:#8199CC"/>
			<stop  offset="0.4283" style="stop-color:#7991C4"/>
			<stop  offset="0.5697" style="stop-color:#6B85B5"/>
			<stop  offset="0.6965" style="stop-color:#5873A0"/>
			<stop  offset="0.8124" style="stop-color:#405C85"/>
			<stop  offset="0.8873" style="stop-color:#2C496F"/>
		</linearGradient>
		<path class="st0" d="M30.7,120.6l1.6,1l4.1-7l3.8,6.6l3.7-3.1l-4.7-8.3l2.1-3.7l5.4,9.6l3.7-3.1l-6.3-11.2l7.7-13.1l2.8,7.9
			l6.5-5.3l0,7.1L51,106.2l2.3,4.1l7.7-6.3l0,5.6l4.7,0l0-5.6l7.6,6.4l2.4-4.1l-10-8.4l0-7.1l6.4,5.4l2.9-7.8l7.5,13.2l-6.5,11.1
			l3.6,3.2l5.6-9.5l2.1,3.7l-4.8,8.2l3.7,3.1l3.8-6.6l4,7.1l4.2-2.4l-4-7.1l7.6,0.1l-0.8-4.8l-9.5-0.1l-2.1-3.7l11,0.1l-0.9-4.7
			l-12.9-0.1l-7.5-13.2l8.2,1.5l-1.4-8.3l6.1,3.6l2.1,12.8l4.7,0L97.6,86l4.8,2.8l2.4-4.1l-4.8-2.8l9.3-3.4l-2.3-4.1l-12.3,4.4
			l-6.1-3.6l7.9-2.8l-5.3-6.5l15.2,0.1l6.4,11.2l4.5-1.6l-5.5-9.6l4.2,0l4.7,8.3l4.6-1.6l-3.8-6.6l8.1,0.1l0-4.8l-8.1,0l3.9-6.6
			l-4.5-1.7l-4.8,8.2l-4.2,0l5.6-9.5l-4.5-1.6l-6.6,11.1l-15.2-0.1l5.4-6.4l-7.8-3l6.1-3.5l12.2,4.6l2.4-4.1l-9.3-3.5l4.9-2.8
			l-2.3-4.1l-4.9,2.8l1.8-9.8l-4.7,0l-2.3,12.8l-6.1,3.5l1.5-8.3l-8.2,1.4l7.7-13.1l12.9,0l0.9-4.7l-11-0.1l2.2-3.6l9.5,0.1l0.9-4.8
			l-7.6,0l4.1-7l-1.6-1L30.7,120.6L30.7,120.6z M76.6,46L76.6,46l5.6-0.9l-1,5.6l-10.9,6.2L76.6,46L76.6,46z M54.9,83.1L54.9,83.1
			l6.4-10.9l-0.1,12.6l-4.4,3.6L54.9,83.1L54.9,83.1z M83.5,54.8L83.5,54.8l5.3,2l-3.6,4.3L72.6,61L83.5,54.8L83.5,54.8z M65.9,84.8
			L65.9,84.8L66,72.2l6.2,11l-2,5.3L65.9,84.8L65.9,84.8z M85.1,65.9L85.1,65.9l3.6,4.4l-5.3,1.9l-10.9-6.4L85.1,65.9L85.1,65.9z
			 M76.4,80.8L76.4,80.8l-6.2-10.9L81,76.2l0.9,5.6L76.4,80.8L76.4,80.8z"/>
		
			<linearGradient id="SVGID_2_" gradientUnits="userSpaceOnUse" x1="52.7824" y1="-360.7082" x2="22.4007" y2="-280.2267" gradientTransform="matrix(0.9806 0.1959 -0.1959 0.9806 -68.666 353.4392)">
			<stop  offset="0" style="stop-color:#FFF200"/>
			<stop  offset="1" style="stop-color:#FFC10E"/>
		</linearGradient>
		<path class="st1" d="M53.7,36.7c-13.6,3.5-21.8,17.5-18.2,31.1c1.8,7,6.4,12.5,12.2,15.8l25.8-44C67.7,36.2,60.7,34.9,53.7,36.7
			L53.7,36.7z M45.5,87.4c-6.8-3.8-12.1-10.3-14.2-18.5C27.1,53,36.6,36.7,52.6,32.5c8.1-2.1,16.4-0.7,23,3.4L93.8,5
			c-9.5,1.3-15.8,9.9-17.2,19c-0.4,2.6-2,4-3.8,3.5c-1.8-0.5-1.4-3-0.9-4.5c1-2.8,1-10.7-4-14.6c-1.6-1.2-2.5-1.2-2,1
			c1.2,4.9-0.2,7.3-2.8,9.5c-1.4,1.2-3.2,3.5-3.1,5.8c0,1.8-1,1.9-2.2,1.2c-1.2-0.8-2-3.4-1-7.1c1.8-6.4-2.6-15-8-17.5
			c-3-1.4-2.6,0.1-2,1.9c2.2,6.1,1.7,9.2-1.3,13.7c-3.5,5.3-3,8.1-0.9,10.6c1.3,1.6-0.6,3-1.9,0.6c-1-1.9-3.1-4.5-5.2-5.3
			c-2.2-0.8-3.5-3.2-3.6-6.2c0-2.4-1.3-2-2.2-0.6c-1.5,2.1-2.6,6.3-1.3,10.3c0.9,2.8,2.8,5.1,4.8,6.3c1.4,0.8,1.6,2,0.9,2.7
			c-1,1-3.4,0.2-4.3-1.1c-2.8-4.3-5.5-5.7-11.7-4.8c-4.3,0.7-9.3-0.3-13.3-4.5c-2-2.1-3.5-1.4-3.3,1.5c0.6,10.3,9.7,18,19.2,19.1
			c2.6,0.3,4.3,1.4,3.8,3.2c-0.4,1.3-2.4,1.9-4.9,1c-2.8-1-10.7-1-14.6,4c-1.2,1.6-1.2,2.5,1,2c4.9-1.2,7.5,0.1,9.5,2.8
			c1.3,1.8,2.6,3.5,5.4,3.9c2.6,0.3,2.6,2.2-0.1,2.3c-3.5,0.1-6.3,1.1-8.8,6c-2.5,4.8-4.9,6.7-11.3,7.8C0.8,78.6-0.6,79,2.1,81
			c4.8,3.5,14.5,3.1,19.2-1.5c2.7-2.7,5.5-3.3,6.7-2.6c1.2,0.6,1.1,1.9-0.6,2.2c-2.4,0.5-4.5,2.4-5.4,4.4c-1.2,2.3-4,4.4-6.7,4.1
			c-2.4-0.2-2,1.3-0.6,2.2c2.1,1.5,6.3,2.6,10.4,1.3c2.8-0.9,5.1-2.8,6.3-4.8c0.8-1.4,3-1.8,3.3-0.3c0.3,1.5-0.4,2.8-1.8,3.7
			c-4.3,2.8-5.7,5.5-4.8,11.7c0.7,4.3-0.3,9.3-4.5,13.3c-2.1,2-1.4,3.5,1.5,3.3c0.9-0.1,1.8-0.2,2.7-0.4L45.5,87.4L45.5,87.4z"/>
	</g>
</g>
<g id="_x3C_Layer_x3E_">
	<g>
		<path class="st2" d="M176,94.3h-19.4l-2.5,15.8h-21.6l21-97.8H179l21,97.8h-21.6L176,94.3z M159.1,74.9h14.4l-7.2-43.1L159.1,74.9
			z"/>
		<path class="st2" d="M196.8,61.3c0-29.6,10.3-50.6,33.3-50.6c17.6,0,23.5,14.1,26.7,25.2l-17.6,6.5c-1.6-7.5-3.8-12-9.1-12
			c-7.9,0-10.6,12.6-10.6,30.9s2.6,30.9,10.6,30.9c5.7,0,8.2-6,9.2-13.9l17.6,6.3c-2.8,11.6-8.7,27.3-26.8,27.3
			C207.1,111.9,196.8,90.8,196.8,61.3z"/>
		<path class="st2" d="M259.1,61.3c0-29.6,10.3-50.6,33.3-50.6c17.6,0,23.5,14.1,26.7,25.2l-17.6,6.5c-1.6-7.5-3.8-12-9.1-12
			c-7.9,0-10.6,12.6-10.6,30.9s2.6,30.9,10.6,30.9c5.7,0,8.2-6,9.2-13.9l17.6,6.3c-2.8,11.6-8.7,27.3-26.8,27.3
			C269.4,111.9,259.1,90.8,259.1,61.3z"/>
		<path class="st2" d="M362.4,94.3H343l-2.5,15.8h-21.6l21-97.8h25.5l21,97.8h-21.6L362.4,94.3z M345.5,74.9h14.4l-7.2-43.1
			L345.5,74.9z"/>
		<path class="st2" d="M389.9,12.3h29.5c20.4,0,29.8,15,29.8,31.8c0,16.9-9.4,31.7-29.8,31.7h-7.3v34.3h-22.1V12.3z M416.9,31.7
			h-4.8v24.8h4.8c6,0,9.7-4.8,9.7-12.5C426.6,36.5,422.9,31.7,416.9,31.7z"/>
	</g>
</g>
</svg>
