<?xml version="1.0" encoding="UTF-8" standalone="no"?>
<svg
   xmlns:dc="http://purl.org/dc/elements/1.1/"
   xmlns:cc="http://creativecommons.org/ns#"
   xmlns:rdf="http://www.w3.org/1999/02/22-rdf-syntax-ns#"
   xmlns:svg="http://www.w3.org/2000/svg"
   xmlns="http://www.w3.org/2000/svg"
   xmlns:sodipodi="http://sodipodi.sourceforge.net/DTD/sodipodi-0.dtd"
   xmlns:inkscape="http://www.inkscape.org/namespaces/inkscape"
   version="1.1"
   x="0px"
   y="0px"
   viewBox="0 0 32 32"
   style="enable-background:new 0 0 32 32;"
   xml:space="preserve"
   id="svg3397"
   inkscape:version="0.91 r13725"
   sodipodi:docname="lightning-positive.svg"><metadata
     id="metadata3407"><rdf:RDF><cc:Work
         rdf:about=""><dc:format>image/svg+xml</dc:format><dc:type
           rdf:resource="http://purl.org/dc/dcmitype/StillImage" /><dc:title></dc:title></cc:Work></rdf:RDF></metadata><defs
     id="defs3405" /><sodipodi:namedview
     pagecolor="#ffffff"
     bordercolor="#666666"
     borderopacity="1"
     objecttolerance="10"
     gridtolerance="10"
     guidetolerance="10"
     inkscape:pageopacity="0"
     inkscape:pageshadow="2"
     inkscape:window-width="1081"
     inkscape:window-height="777"
     id="namedview3403"
     showgrid="false"
     inkscape:zoom="7.375"
     inkscape:cx="-3.6610169"
     inkscape:cy="16"
     inkscape:window-x="0"
     inkscape:window-y="0"
     inkscape:window-maximized="0"
     inkscape:current-layer="svg3397" /><g
     id="g3399"
     style="fill:#ff0000;fill-opacity:0.84076434;stroke:none;stroke-opacity:1"><path
       d="M 10,32 C 9.816,32 9.63,31.949 9.465,31.845 9.058,31.587 8.893,31.076 9.071,30.629 l 4.906,-12.266 -6.704,0 C 6.939,18.363 6.627,18.196 6.441,17.918 6.255,17.64 6.221,17.287 6.35,16.979 L 13.168,0.616 C 13.323,0.243 13.687,0 14.091,0 L 25,0 c 0.363,0 0.698,0.197 0.875,0.515 0.176,0.318 0.166,0.707 -0.027,1.015 l -5.861,9.379 7.741,0 c 0.397,0 0.758,0.236 0.917,0.6 0.158,0.365 0.087,0.789 -0.185,1.081 L 10.733,31.681 C 10.538,31.891 10.27,32 10,32 Z m -1.227,-15.637 6.682,0 c 0.332,0 0.642,0.165 0.828,0.439 0.186,0.274 0.224,0.624 0.101,0.932 l -3.458,8.646 12.51,-13.472 -7.253,0 c -0.363,0 -0.698,-0.197 -0.875,-0.515 -0.176,-0.318 -0.166,-0.707 0.027,-1.015 L 23.195,2 14.757,2 8.773,16.363 Z"
       id="path3401"
       style="fill:#ff0000;fill-opacity:0.84076436;stroke:#ff0000;stroke-opacity:1"
       inkscape:connector-curvature="0" /></g><path
     style="fill:#f9ea31;fill-opacity:1;stroke:none;stroke-opacity:1"
     d="m 13.233898,25.863115 c 0,-0.05416 0.732204,-1.929847 1.627119,-4.1682 0.894915,-2.238352 1.627119,-4.18634 1.627119,-4.328861 0,-1.006119 -0.346587,-1.094868 -4.275753,-1.094868 -1.992065,0 -3.3218255,-0.0507 -3.2948689,-0.12562 0.024859,-0.06909 1.3562969,-3.272481 2.9587509,-7.1186441 l 2.913554,-6.9930236 4.162464,0 4.162464,0 -2.974323,4.7628064 c -1.761437,2.820603 -2.974322,4.8977233 -2.974322,5.0936593 0,0.423139 0.198073,0.791899 0.504707,0.939631 0.132581,0.06387 1.884034,0.147325 3.892119,0.185444 l 3.651063,0.06931 -5.531603,5.966101 c -6.210729,6.698573 -6.44849,6.949746 -6.44849,6.812268 z"
     id="path5653"
     inkscape:connector-curvature="0" /></svg>