<?xml version="1.0" encoding="UTF-8" standalone="no"?>
<svg
   xmlns:dc="http://purl.org/dc/elements/1.1/"
   xmlns:cc="http://creativecommons.org/ns#"
   xmlns:rdf="http://www.w3.org/1999/02/22-rdf-syntax-ns#"
   xmlns:svg="http://www.w3.org/2000/svg"
   xmlns="http://www.w3.org/2000/svg"
   xmlns:sodipodi="http://sodipodi.sourceforge.net/DTD/sodipodi-0.dtd"
   xmlns:inkscape="http://www.inkscape.org/namespaces/inkscape"
   version="1.1"
   x="0px"
   y="0px"
   viewBox="0 0 32 32"
   style="enable-background:new 0 0 32 32;"
   xml:space="preserve"
   id="svg3397"
   inkscape:version="0.91 r13725"
   sodipodi:docname="lightning.svg"><metadata
     id="metadata3407"><rdf:RDF><cc:Work
         rdf:about=""><dc:format>image/svg+xml</dc:format><dc:type
           rdf:resource="http://purl.org/dc/dcmitype/StillImage" /><dc:title></dc:title></cc:Work></rdf:RDF></metadata><defs
     id="defs3405" /><sodipodi:namedview
     pagecolor="#ffffff"
     bordercolor="#666666"
     borderopacity="1"
     objecttolerance="10"
     gridtolerance="10"
     guidetolerance="10"
     inkscape:pageopacity="0"
     inkscape:pageshadow="2"
     inkscape:window-width="1081"
     inkscape:window-height="777"
     id="namedview3403"
     showgrid="false"
     inkscape:zoom="7.375"
     inkscape:cx="-3.6610169"
     inkscape:cy="16"
     inkscape:window-x="0"
     inkscape:window-y="0"
     inkscape:window-maximized="0"
     inkscape:current-layer="svg3397" /><g
     id="g3399"
     style="fill:#333359;fill-opacity:0.84076434;stroke:none;stroke-opacity:1"><path
       d="M10,32c-0.184,0-0.37-0.051-0.535-0.155c-0.407-0.258-0.572-0.769-0.394-1.216l4.906-12.266H7.273   c-0.334,0-0.646-0.167-0.832-0.445s-0.22-0.631-0.091-0.939l6.818-16.363C13.323,0.243,13.687,0,14.091,0H25   c0.363,0,0.698,0.197,0.875,0.515c0.176,0.318,0.166,0.707-0.027,1.015l-5.861,9.379h7.741c0.397,0,0.758,0.236,0.917,0.6   c0.158,0.365,0.087,0.789-0.185,1.081L10.733,31.681C10.538,31.891,10.27,32,10,32z M8.773,16.363h6.682   c0.332,0,0.642,0.165,0.828,0.439c0.186,0.274,0.224,0.624,0.101,0.932l-3.458,8.646l12.51-13.472h-7.253   c-0.363,0-0.698-0.197-0.875-0.515c-0.176-0.318-0.166-0.707,0.027-1.015L23.195,2h-8.438L8.773,16.363z"
       id="path3401"
       style="fill:#333359;fill-opacity:0.84076434;stroke:none;stroke-opacity:1" /></g><path
     style="fill:#f9ea31;fill-opacity:1;stroke:none;stroke-opacity:1"
     d="m 13.233898,25.863115 c 0,-0.05416 0.732204,-1.929847 1.627119,-4.1682 0.894915,-2.238352 1.627119,-4.18634 1.627119,-4.328861 0,-1.006119 -0.346587,-1.094868 -4.275753,-1.094868 -1.992065,0 -3.3218255,-0.0507 -3.2948689,-0.12562 0.024859,-0.06909 1.3562969,-3.272481 2.9587509,-7.1186441 l 2.913554,-6.9930236 4.162464,0 4.162464,0 -2.974323,4.7628064 c -1.761437,2.820603 -2.974322,4.8977233 -2.974322,5.0936593 0,0.423139 0.198073,0.791899 0.504707,0.939631 0.132581,0.06387 1.884034,0.147325 3.892119,0.185444 l 3.651063,0.06931 -5.531603,5.966101 c -6.210729,6.698573 -6.44849,6.949746 -6.44849,6.812268 z"
     id="path5653"
     inkscape:connector-curvature="0" /></svg>