<svg height="136.25" viewBox="0 0 161.25 136.25" width="161.25" xmlns="http://www.w3.org/2000/svg" xmlns:xlink="http://www.w3.org/1999/xlink"><clipPath id="a"><path d="m11.099 54.971c0-29.64 23.295-53.604 52.932-53.604 29.64 0 53.662 24.026 53.662 53.666 0 29.639-24.022 53.66-53.662 53.66-24.839 0-52.932-21.683-52.932-53.722"/></clipPath><radialGradient id="b" cx="75.450684" cy="90.8125" gradientUnits="userSpaceOnUse" r="107.66882" spreadMethod="pad"><stop offset="0" stop-color="#fff"/><stop offset="1" stop-color="#9d9b9b"/></radialGradient><clipPath id="c"><path d="m0 109h129v-109h-129z"/></clipPath><clipPath id="d"><path d="m32.018 79.878c-.462.266-2.323 1.045-3.897.289-2.53-1.221-2.046-3.232-2.036-3.316-.494-.4-.595-.606-1.006-1.051-2.961-3.193-4.993-6.637-6.706-10.609-.314-.737-3.947-8.026-5.356-13.515-.806-3.131-.758-3.209-1.106-6.037 3.715-22.618 20.028-33.421 20.028-33.421l.396 9.444-2.118 2.375.193.648 2.895-2.361 1.558-12.24c3.276-1.934 7.901-4.477 14.761-6.724 2.192 5.816 3.728 8.062 3.246 16.894l.931-2.061c-.028-.494 1.401-1.736 1.411-1.785l10.322-6.752 1.548-8.117s10.953.145 22.576 6.291c1.351 10.244 2.363 20.787-2.021 27.715-10.538 16.66-35.487 20.38-43.169 23.964 1.616 4.743.608 8.385 10.907 7.471.882.852 3.379 5.775 2.83 6.869-2.85 1.455-9.798 3.028-9.798 3.028s-1.475 2.069-3.336 2.833c-2.181.895-4.446 1.396-6.778 1.396-2.043 0-4.137-.384-6.275-1.228m20.061-77.112c5.067-1.461 13.392-1.348 13.392-1.348l.027.762-.712 6.943-9.657 6.383c-.931-4.528-3.158-12.707-3.05-12.74"/></clipPath><linearGradient id="e" gradientTransform="matrix(-7.8842721 -91.494682 91.494682 -7.8842721 55.013184 76.4375)" gradientUnits="userSpaceOnUse" spreadMethod="pad" x1="0" x2="1" y1="0" y2="0"><stop offset="0" stop-color="#fff"/><stop offset=".46948476" stop-color="#fff"/><stop offset="1" stop-color="#9d9b9b"/></linearGradient><clipPath id="f"><path d="m0 109h129v-109h-129z"/></clipPath><g transform="matrix(1.25 0 0 -1.25 0 136.25)"><g clip-path="url(#a)"><path d="m11.099 54.971c0-29.64 23.295-53.604 52.932-53.604 29.64 0 53.662 24.026 53.662 53.666 0 29.639-24.022 53.66-53.662 53.66-24.839 0-52.932-21.683-52.932-53.722" fill="url(#b)"/></g><g clip-path="url(#c)"><path d="m0 0c0-29.642-24.021-53.665-53.661-53.665-29.638 0-52.934 23.961-52.934 53.601 0 32.04 28.094 53.723 52.934 53.723 29.64 0 53.661-24.02 53.661-53.659z" fill="none" stroke="#5b5859" stroke-width=".065" transform="translate(117.6934 55.0342)"/><path d="m0 0c-.097-.273-.301-.516-.392-.805-.076-.243-.014-.404-.012-.649.002-.342-.064-.65-.022-.998.114-.918.028-1.823-.107-2.735-.032-.213-.136-.413-.151-.625-.016-.213.029-.4.018-.605-.011-.135-.103-.16-.08-.351.029-.19.103-.282.221-.419.359-.433.816-.97 1.273-1.304.555-.405.923-1.225 1.315-1.836.199-.305.459-.555.644-.85.198-.311.375-.363.711-.505.184-.077.588-.424.769-.294.122.094.153.483.24.624.084.132.298.4.432.478.281.174.669.229.98.353.375.147.576.348.919.559-.235-.388.026.183.062-.006.025-.141-1.037-1.02-1.216-1.074-.518-.164-.372-.424-.62-.992-.149-.348-.296-.969-.086-1.344.18-.324.788-.605 1.127-.742.525-.215.982-.621 1.457-.94.183-.13.499-.404.705-.453.276-.06.485.006.777-.103.213-.076.345-.168.531-.305.19-.146.255-.297.412-.455-.105.158-.29.117-.441.197.536-.213 1.026-1.187 1.663-.888.362.173.817.472 1.119.73.25.217.399.518.644.733.112.099.296.115.284.3-.009.088-.196.301-.232.42-.094.324.057.645.178.936.12.291.476.631.824.39.133-.093.225-.302.355-.42.099-.093.227-.169.335-.25.199-.156.393-.339.594-.488.2-.15.583-.539.801-.619.146-.059.455-.033.619-.059.312-.046.361-.07.61-.257.253-.2.495-.422.762-.614.659-.47 1.313.039 1.987-.179.154-.047.352-.217.486-.243.202-.042.37.061.568.051.234-.008.495-.037.732-.051.193-.015.415-.146.587-.054-.296.394-.166 1.002-.291 1.451-.103.373-.278.254-.543.529-.143.151-.265.377-.371.557.009.096-.009.183-.063.266-.057.078-.187.107-.26.177-.156.149-.263.362-.4.508-.209.236-.48.496-.748.674-.223.152-.49.182-.711.355.221-.023.269.067.417.166.243.162.214.055.22.37 0 .209.596.156.417.209.135-.514.585-.686.997-.622.433.073.582.219.635-.214.016-.168-.344.525-.207.422.151-.116.481-.338.66-.354.226-.022.533-.15.773-.203.185-.041.787-.252.95-.192.196.073.102.573.219.792.179-.036.374-.192.567-.251.22-.068.429-.107.656-.17.353-.105.735-.093 1.099-.152.249-.047.799.043.96-.148.186.201.413.15.682.213.377.089.738.386 1.139.283.331-.08.67-.457.896-.686.117-.113.237-.168.312-.32.045-.094.026-.363.111-.424.137-.098.559.067.725.078.389.037.632-.107.949-.318.358-.246.677-.49 1.011-.744.213-.164.531-.164.785-.194.248-.029.506.018.733.094.334.119 1.053.354 1.305.606.223.222.052.484-.116.75-.144.23-.198.476-.358.711-.274.388-.629.915-.692 1.411-.027.229-.185.61-.006.8.211.216.487-.089.779.088-.193.452-1.211.696-1.629.952-.184.114-.324.292-.509.399-.209.121-.43.143-.641.238-.389.18-.789.439-1.165.65.043-.019.081-.048.121-.073-.293-.028-.448-.052-.709.062-.332.143-.382.369-.586.679-.255.379-.34.416-.792.337-.213-.03-.539-.001-.738-.087-.151-.064-.193-.205-.374-.234-.01-.232.044-.305-.096-.486-.141-.191-.621-.332-.835-.475-.345.777.029 1.768-.933 2.213-.768.346-1.648.478-2.465.596.128.17.348.252.51.377.212.152.364.328.49.554.108.186.402.436.424.621.034.269-.272.52-.452.673-.465.4-.531.765-.768 1.318-.128.298-.449.877-.716 1.055-.227.15-.526.043-.734.226.217.233.052.92.092 1.213.523.192 1.069.285 1.571.565.204.12.55.402.497.64-.049.202-.392.381-.543.498-.198.146-.406.467-.637.53-.252.073-.641-.063-.896-.101-.516-.071-.97-.143-1.465-.319-.436-.151-1.092-.022-1.476-.264.086-.122.178-.338.306-.428.219-.154.506-.031.759-.002-.394.025-.541-.33-.979-.259-.211.035-.416.237-.635.201-.219-.03-.457-.227-.692-.282.098-.613-.731-.298-1.193-.29-.257.003-.757-.137-.917.028-.066.063-.513-.331-.574-.232-.15.246-.149-.022.21.932.177.481-.36.942-.839 1.216-.264.149-.622.173-.911.253-.231.064-.543.231-.769.25-.045-.106-.002-.198.098-.25-.246.279-.705.304-1.045.366-.459.081-.75-.069-1.178-.232-.139-.055-.474-.195-.574-.301-.188-.197-.074-.265-.072-.515.007-.306-.002-.254-.245-.448-.122-.09-.202-.263-.337-.228-.112-.117-.239-.172-.388-.222-.153-.011-.306-.028-.456-.045-.147-.03-.279-.089-.396-.178-.347-.116-.704-.1-1.02-.327-.188-.138-.295-.429-.515-.532-.249-.112-.733-.1-1.003-.125.294-.132.584-.057.882-.143.294-.088.659-.109.927-.259-.046-.132-.249-.566.067-.533-.038.222-.407.049-.594.074-.255.04-.549.193-.795.277-.107.039-.212.079-.319.116-.142.021-.34-.075-.457-.041-.24.062-.193.307-.203.537-.16-.276-.51-.371-.689-.651-.195-.298-.134-.448-.22-.752-.055-.182-.308-.638-.472-.716-.376-.175-.979-.077-1.365-.021-.717.093-1.239.461-1.907.649-.618.168-1.322-.037-1.952-.121" fill="#fff" transform="translate(59.7734 98.3418)"/><path d="m0 0c-.029.213.782.358.501-.108.014.013-.484-.005-.501.108" fill="#dcdbdb" fill-rule="evenodd" transform="translate(63.7695 104.4561)"/><path d="m0 0c-.029.213.782.358.501-.108.014.013-.484-.005-.501.108z" fill="none" stroke="#777475" stroke-linecap="round" stroke-linejoin="round" stroke-width=".065" transform="translate(63.7695 104.4561)"/><path d="m0 0c-.144.185.554.271.664.169.227-.195-.664-.169-.664-.169" fill="#dcdbdb" fill-rule="evenodd" transform="translate(61.8516 103.1475)"/><path d="m0 0c-.144.185.554.271.664.169.227-.195-.664-.169-.664-.169z" fill="none" stroke="#777475" stroke-linecap="round" stroke-linejoin="round" stroke-width=".065" transform="translate(61.8516 103.1475)"/><path d="m0 0c-.069.043-.112.063-.072.043.072-.043.109-.064.072-.043" fill="#dcdbdb" fill-rule="evenodd" transform="translate(77.2568 107.0693)"/><path d="m0 0c-.069.043-.112.063-.072.043.072-.043.109-.064.072-.043z" fill="none" stroke="#777475" stroke-linecap="round" stroke-linejoin="round" stroke-width=".065" transform="translate(77.2568 107.0693)"/><path d="m0 0c.27.234 1.551.352 1.836.223-.07.026.685-1.101.706-1.039-.114-.318.647-.312.483-1.043.022.091-.69-1.05-.435-.927-.669-.345-.583 1.422-.721 1.879-.251.803-1.378.586-2.065.736.039.088.1.148.196.171" fill="#dcdbdb" fill-rule="evenodd" transform="translate(63.3252 103.4023)"/><path d="m0 0c.27.234 1.551.352 1.836.223-.07.026.685-1.101.706-1.039-.114-.318.647-.312.483-1.043.022.091-.69-1.05-.435-.927-.669-.345-.583 1.422-.721 1.879-.251.803-1.378.586-2.065.736.039.088.1.148.196.171z" fill="none" stroke="#777475" stroke-linecap="round" stroke-linejoin="round" stroke-width=".065" transform="translate(63.3252 103.4023)"/><path d="m0 0c-.069.042.05.161.088.143.069-.048-.044-.163-.088-.143" fill="#dcdbdb" fill-rule="evenodd" transform="translate(85.7266 104.1641)"/><path d="m0 0c-.069.042.05.161.088.143.069-.048-.044-.163-.088-.143z" fill="none" stroke="#777475" stroke-linecap="round" stroke-linejoin="round" stroke-width=".065" transform="translate(85.7266 104.1641)"/><path d="m0 0c.356.071.953.062 1.321-.428.169-.23-4.187-.378-1.321.428.033.007-.256-.076 0 0" fill="#dcdbdb" fill-rule="evenodd" transform="translate(66.5283 97.6963)"/><path d="m0 0c.356.071.953.062 1.321-.428.169-.23-4.187-.378-1.321.428.033.007-.256-.076 0 0z" fill="none" stroke="#777475" stroke-linecap="round" stroke-linejoin="round" stroke-width=".065" transform="translate(66.5283 97.6963)"/><path d="m0 0c.01.058 1.211-.074 1.195-.052.326-.495-1.413-.747-1.195.052.064.271-.023-.071 0 0" fill="#dcdbdb" fill-rule="evenodd" transform="translate(64.8359 96.915)"/><path d="m0 0c.01.058 1.211-.074 1.195-.052.326-.495-1.413-.747-1.195.052.064.271-.023-.071 0 0z" fill="none" stroke="#777475" stroke-linecap="round" stroke-linejoin="round" stroke-width=".065" transform="translate(64.8359 96.915)"/><path d="m0 0c-.087.168.326.116.335.085.051-.159-.272-.197-.335-.085" fill="#dcdbdb" fill-rule="evenodd" transform="translate(82.082 100.7666)"/><path d="m0 0c-.087.168.326.116.335.085.051-.159-.272-.197-.335-.085z" fill="none" stroke="#777475" stroke-linecap="round" stroke-linejoin="round" stroke-width=".065" transform="translate(82.082 100.7666)"/><path d="m0 0c-.068.044.044.164.084.139.072-.041-.046-.162-.084-.139" fill="#dcdbdb" fill-rule="evenodd" transform="translate(86.3721 100.1855)"/><path d="m0 0c-.068.044.044.164.084.139.072-.041-.046-.162-.084-.139z" fill="none" stroke="#777475" stroke-linecap="round" stroke-linejoin="round" stroke-width=".065" transform="translate(86.3721 100.1855)"/><path d="m0 0c.263.213.562.287.888.226-.051-.127-.103-.259-.137-.394.02-.024 1.139-.666.414-.826-.436-.101-1.394.184-1.471.802.083.091.182.159.306.192.229.248-.065-.069 0 0" fill="#dcdbdb" fill-rule="evenodd" transform="translate(64.7803 91.46)"/><path d="m0 0c.263.213.562.287.888.226-.051-.127-.103-.259-.137-.394.02-.024 1.139-.666.414-.826-.436-.101-1.394.184-1.471.802.083.091.182.159.306.192.229.248-.065-.069 0 0z" fill="none" stroke="#777475" stroke-linecap="round" stroke-linejoin="round" stroke-width=".065" transform="translate(64.7803 91.46)"/><path d="m0 0c.067-.022-.207-.119-.194-.168.09-.36.53.037.194.168m-2.646 2.528c.441-.127 1.859-.936 1.977-1.276-.012.026.343-.48.364-.502.111 0 .177.058.195.166.104-.135.145-.283.11-.442.12.08.212.182.28.302.088-.032.15-.095.165-.194.085.022.11.065.085.144.434-.144.922-.695.752-1.058.035.076.883.304 1.085-.196.022-.058-.359-1.246-.501-1.25.338.015-1.132.841-1.003.69-.171.198.505.176.53.254.131.49-1.1.026-.832.026.15.028-.628.286-.365.017.133-.131.555.006.446-.353-.079-.276-.963-.166-1.058-.028.052.116.061.237.027.364.207-.043-.895-.612-.92-.114.002-.057-.961.803-.947.807.061.011 1.767-.029 1.729-.137-.111-.31-.91 1.301-.918 1.31-.018.005.142-.614.133-.56-.073-.019-.116.01-.133.084-.244-.054.127-.795-.631-.392.101-.052-.403-.024-.317-.082-.253.175-.568 1.097-.335.864-.382.532-1.194.525-.836 1.444.077.028.12 0 .14-.078.166.481.168.368.778.19.113-.03-.397.116 0 0" fill="#dcdbdb" fill-rule="evenodd" transform="translate(85.5693 93.0049)"/><path d="m0 0c.067-.022-.207-.119-.194-.168.09-.36.53.037.194.168zm-2.646 2.528c.441-.127 1.859-.936 1.977-1.276-.012.026.343-.48.364-.502.111 0 .177.058.195.166.104-.135.145-.283.11-.442.12.08.212.182.28.302.088-.032.15-.095.165-.194.085.022.11.065.085.144.434-.144.922-.695.752-1.058.035.076.883.304 1.085-.196.022-.058-.359-1.246-.501-1.25.338.015-1.132.841-1.003.69-.171.198.505.176.53.254.131.49-1.1.026-.832.026.15.028-.628.286-.365.017.133-.131.555.006.446-.353-.079-.276-.963-.166-1.058-.028.052.116.061.237.027.364.207-.043-.895-.612-.92-.114.002-.057-.961.803-.947.807.061.011 1.767-.029 1.729-.137-.111-.31-.91 1.301-.918 1.31-.018.005.142-.614.133-.56-.073-.019-.116.01-.133.084-.244-.054.127-.795-.631-.392.101-.052-.403-.024-.317-.082-.253.175-.568 1.097-.335.864-.382.532-1.194.525-.836 1.444.077.028.12 0 .14-.078.166.481.168.368.778.19.113-.03-.397.116 0 0z" fill="none" stroke="#777475" stroke-linecap="round" stroke-linejoin="round" stroke-width=".065" transform="translate(85.5693 93.0049)"/><path d="m0 0c.025.201.299.221.511.08.593-.402-.679-.849-.511-.08.003.01-.092-.397 0 0" fill="#dcdbdb" fill-rule="evenodd" transform="translate(63.8076 90.1514)"/><path d="m0 0c.025.201.299.221.511.08.593-.402-.679-.849-.511-.08.003.01-.092-.397 0 0z" fill="none" stroke="#777475" stroke-linecap="round" stroke-linejoin="round" stroke-width=".065" transform="translate(63.8076 90.1514)"/><path d="m0 0c.223.151.626-.291.587-.442-.135-.455-1.134.061-.587.442.136.092-.54-.375 0 0" fill="#dcdbdb" fill-rule="evenodd" transform="translate(66.1729 90.1514)"/><path d="m0 0c.223.151.626-.291.587-.442-.135-.455-1.134.061-.587.442.136.092-.54-.375 0 0z" fill="none" stroke="#777475" stroke-linecap="round" stroke-linejoin="round" stroke-width=".065" transform="translate(66.1729 90.1514)"/><path d="m0 0c.19.31.845-.279.586-.44-.176-.116-.745.179-.586.44" fill="#dcdbdb" fill-rule="evenodd" transform="translate(91.3008 95.6221)"/><path d="m0 0c.19.31.845-.279.586-.44-.176-.116-.745.179-.586.44z" fill="none" stroke="#777475" stroke-linecap="round" stroke-linejoin="round" stroke-width=".065" transform="translate(91.3008 95.6221)"/><path d="m0 0c.042-.002-.424.365-.418.248-.027.461.762.18.82-.099-.063-.164-.198-.211-.402-.149-.064.002 1.124-.043 0 0" fill="#dcdbdb" fill-rule="evenodd" transform="translate(85.5986 90.999)"/><path d="m0 0c.042-.002-.424.365-.418.248-.027.461.762.18.82-.099-.063-.164-.198-.211-.402-.149-.064.002 1.124-.043 0 0z" fill="none" stroke="#777475" stroke-linecap="round" stroke-linejoin="round" stroke-width=".065" transform="translate(85.5986 90.999)"/><path d="m0 0c.091.082.714-.054.588.024.336-.235.433-1.041.251-1.473-.099-.021-.188.002-.262.072.405-.102-.496-.31-.631-.295-.22.047-1.107.026-.944 0-.19.026-.746.109-.699.418-.008-.095.928.355.973.364-.115 0 .197-.453.65-.106.419.317-.238.69.074.996.259.246-.221-.218 0 0" fill="#dcdbdb" fill-rule="evenodd" transform="translate(88.4082 92.0596)"/><path d="m0 0c.091.082.714-.054.588.024.336-.235.433-1.041.251-1.473-.099-.021-.188.002-.262.072.405-.102-.496-.31-.631-.295-.22.047-1.107.026-.944 0-.19.026-.746.109-.699.418-.008-.095.928.355.973.364-.115 0 .197-.453.65-.106.419.317-.238.69.074.996.259.246-.221-.218 0 0z" fill="none" stroke="#777475" stroke-linecap="round" stroke-linejoin="round" stroke-width=".065" transform="translate(88.4082 92.0596)"/><path d="m0 0c.068-.097.163-.154.281-.17-.415-.977-1.346.25-1.45.114.191.25.911.175 1.169.056.014-.008-.026.015 0 0" fill="#dcdbdb" fill-rule="evenodd" transform="translate(85.459 91.085)"/><path d="m0 0c.068-.097.163-.154.281-.17-.415-.977-1.346.25-1.45.114.191.25.911.175 1.169.056.014-.008-.026.015 0 0z" fill="none" stroke="#777475" stroke-linecap="round" stroke-linejoin="round" stroke-width=".065" transform="translate(85.459 91.085)"/><path d="m0 0c-.007.147.194.172.225.06-.01-.177-.098-.019-.225-.06" fill="#dcdbdb" fill-rule="evenodd" transform="translate(86.5439 91.4717)"/><path d="m0 0c-.007.147.194.172.225.06-.01-.177-.098-.019-.225-.06z" fill="none" stroke="#777475" stroke-linecap="round" stroke-linejoin="round" stroke-width=".065" transform="translate(86.5439 91.4717)"/><path d="m0 0c.196.321-.569.463-.529.221.006-.027.52-.243.529-.221m.113 1.444c.029-.151-.676.351-.476 0 .177-.309.505-.157.476 0m1.783-1.92c-.129-.505-.289-.188-.502-.358-.391-.299.621-.545-.51-.39-.432.062-.152.532-.239.558-.352.099-.119-.558-.634-.164-.421.315-1.473.877-1.484 1.522.128.123.274.159.44.116-.05.181-.098.366-.135.552.118-.048.236-.059.362-.024.019.058-.739.27-.277.635.435.355.737-.2.638-.193.418-.024.267.005.611-.084.068.075.089.159.056.254.085-.069.177-.127.28-.17.191.763.294.159.608.39.3.226-.472.51.224.53.511.015.186-.2.562-.329.039.141.131.241.277.303.095-.023.181-.705.765-.224.067.056.507.781.509.781.096.01 1.563-1.074 1.563-1.031 0-.095-1.156-.592-.888-.618.388-.043.457-.351.663-.382.075.073.091.156.057.25.048.031.699.187.778.194.02-.073.041-.146.059-.218.168-.096.791.05 1.028-.334.107-.18-.356-.262-.387-.336.021.054.159-.317.054-.221.216-.205.848.154.977-.113.026-.056-.385-1.015-.447-1.06-.066-.047-.782.566-1.059-.026-.025-.049.658-.746.249-1-.131-.072-.663.408-.72.526-.419.918.053.556-.726.998-.862.502-.993 1.443-2.04.761.038.027-1.104.102-1.214-.031-.054-.069.688-.303.502-.112-.078.071-.016-.991 0-.952-.011-.028.104.359 0 0" fill="#dcdbdb" fill-rule="evenodd" transform="translate(91.1934 89.9189)"/><path d="m0 0c.196.321-.569.463-.529.221.006-.027.52-.243.529-.221zm.113 1.444c.029-.151-.676.351-.476 0 .177-.309.505-.157.476 0zm1.783-1.92c-.129-.505-.289-.188-.502-.358-.391-.299.621-.545-.51-.39-.432.062-.152.532-.239.558-.352.099-.119-.558-.634-.164-.421.315-1.473.877-1.484 1.522.128.123.274.159.44.116-.05.181-.098.366-.135.552.118-.048.236-.059.362-.024.019.058-.739.27-.277.635.435.355.737-.2.638-.193.418-.024.267.005.611-.084.068.075.089.159.056.254.085-.069.177-.127.28-.17.191.763.294.159.608.39.3.226-.472.51.224.53.511.015.186-.2.562-.329.039.141.131.241.277.303.095-.023.181-.705.765-.224.067.056.507.781.509.781.096.01 1.563-1.074 1.563-1.031 0-.095-1.156-.592-.888-.618.388-.043.457-.351.663-.382.075.073.091.156.057.25.048.031.699.187.778.194.02-.073.041-.146.059-.218.168-.096.791.05 1.028-.334.107-.18-.356-.262-.387-.336.021.054.159-.317.054-.221.216-.205.848.154.977-.113.026-.056-.385-1.015-.447-1.06-.066-.047-.782.566-1.059-.026-.025-.049.658-.746.249-1-.131-.072-.663.408-.72.526-.419.918.053.556-.726.998-.862.502-.993 1.443-2.04.761.038.027-1.104.102-1.214-.031-.054-.069.688-.303.502-.112-.078.071-.016-.991 0-.952-.011-.028.104.359 0 0z" fill="none" stroke="#777475" stroke-linecap="round" stroke-linejoin="round" stroke-width=".065" transform="translate(91.1934 89.9189)"/><path d="m0 0c.014.043.176.256.304.192.31-.143-.526-.895-.304-.192" fill="#dcdbdb" fill-rule="evenodd" transform="translate(84.1787 90.0537)"/><path d="m0 0c.014.043.176.256.304.192.31-.143-.526-.895-.304-.192z" fill="none" stroke="#777475" stroke-linecap="round" stroke-linejoin="round" stroke-width=".065" transform="translate(84.1787 90.0537)"/><path d="m0 0c.215.36.628-.062.529-.224-.14-.237-.665-.005-.529.224" fill="#dcdbdb" fill-rule="evenodd" transform="translate(84.6514 89.5791)"/><path d="m0 0c.215.36.628-.062.529-.224-.14-.237-.665-.005-.529.224z" fill="none" stroke="#777475" stroke-linecap="round" stroke-linejoin="round" stroke-width=".065" transform="translate(84.6514 89.5791)"/><path d="m0 0c.034.203.896.188.65-.181-.235-.345-.722-.173-.65.181.021.135.03.176 0 0" fill="#dcdbdb" fill-rule="evenodd" transform="translate(87.9688 90.0537)"/><path d="m0 0c.034.203.896.188.65-.181-.235-.345-.722-.173-.65.181.021.135.03.176 0 0z" fill="none" stroke="#777475" stroke-linecap="round" stroke-linejoin="round" stroke-width=".065" transform="translate(87.9688 90.0537)"/><path d="m0 0c.324.428.655-.354.729-.531-.128.059-.258.107-.392.139.125-.196.22-.41.278-.641.025.084-.65-.03-.418-.221-.37.297-.496.857-.197 1.254.294.385-.308-.412 0 0" fill="#dcdbdb" fill-rule="evenodd" transform="translate(84.375 88.8018)"/><path d="m0 0c.324.428.655-.354.729-.531-.128.059-.258.107-.392.139.125-.196.22-.41.278-.641.025.084-.65-.03-.418-.221-.37.297-.496.857-.197 1.254.294.385-.308-.412 0 0z" fill="none" stroke="#777475" stroke-linecap="round" stroke-linejoin="round" stroke-width=".065" transform="translate(84.375 88.8018)"/><path d="m0 0c0 .142.193.166.223.053-.081-.09-.161-.189-.223-.053" fill="#dcdbdb" fill-rule="evenodd" transform="translate(94.4746 90.5068)"/><path d="m0 0c0 .142.193.166.223.053-.081-.09-.161-.189-.223-.053z" fill="none" stroke="#777475" stroke-linecap="round" stroke-linejoin="round" stroke-width=".065" transform="translate(94.4746 90.5068)"/><path d="m0 0c-.018.183.131.037.143-.086.016-.183-.127-.037-.143.086" fill="#dcdbdb" fill-rule="evenodd" transform="translate(93.1689 90.0596)"/><path d="m0 0c-.018.183.131.037.143-.086.016-.183-.127-.037-.143.086z" fill="none" stroke="#777475" stroke-linecap="round" stroke-linejoin="round" stroke-width=".065" transform="translate(93.1689 90.0596)"/><path d="m0 0c-.077.144-.018.168.168.062.062-.314-.374-.431-.168-.062.003.006-.009-.021 0 0" fill="#dcdbdb" fill-rule="evenodd" transform="translate(85.2139 87.8291)"/><path d="m0 0c-.077.144-.018.168.168.062.062-.314-.374-.431-.168-.062.003.006-.009-.021 0 0z" fill="none" stroke="#777475" stroke-linecap="round" stroke-linejoin="round" stroke-width=".065" transform="translate(85.2139 87.8291)"/><path d="m0 0c.026.012 2.285-.707 1.755-1.334-.418-.483-1.441.313-1.666.524.182-.117.289-.082.327.125-.016.181-1.319.359-.416.685.202.112-.009 0 0 0" fill="#dcdbdb" fill-rule="evenodd" transform="translate(89.1045 88.8018)"/><path d="m0 0c.026.012 2.285-.707 1.755-1.334-.418-.483-1.441.313-1.666.524.182-.117.289-.082.327.125-.016.181-1.319.359-.416.685.202.112-.009 0 0 0z" fill="none" stroke="#777475" stroke-linecap="round" stroke-linejoin="round" stroke-width=".065" transform="translate(89.1045 88.8018)"/><path d="m0 0c.238.397.892-.25.721-.533-.01-.014-.851.316-.721.533" fill="#dcdbdb" fill-rule="evenodd" transform="translate(94.4531 90.1455)"/><path d="m0 0c.238.397.892-.25.721-.533-.01-.014-.851.316-.721.533z" fill="none" stroke="#777475" stroke-linecap="round" stroke-linejoin="round" stroke-width=".065" transform="translate(94.4531 90.1455)"/><path d="m0 0c.209.092.477.268.655-.045.153-.26-.819-.394-.958-.148.057.125.161.187.303.193.12.053-.082-.037 0 0" fill="#dcdbdb" fill-rule="evenodd" transform="translate(71.7686 83.8662)"/><path d="m0 0c.209.092.477.268.655-.045.153-.26-.819-.394-.958-.148.057.125.161.187.303.193.12.053-.082-.037 0 0z" fill="none" stroke="#777475" stroke-linecap="round" stroke-linejoin="round" stroke-width=".065" transform="translate(71.7686 83.8662)"/><path d="m0 0c.256.047-.006.515.149.586.214.101.296-.424.408-.445-.554.095 1.187.59.669.168.145.119-.071.531-.148.527.097.006.881-.392.924-.332-.086-.111-1.031 1.033-.999 1.168.164.718.974-.362 1.229-.555.682-.518 1.311-.537 1.682-.589.488-.071.835-.448.624-.901v.213c.326.113.389-.295.314-.5-.168-.459-.545-.061-.792-.264-.313-.258.267-1.156-.497-1.496-.008-.004-1.453.168-1.618.197-.828.164.713 1.03.501 1.17-.342.233-.894-.445-1.185-.515-.704-.164-.006.709-.12.791-.115-.082-.208-.182-.278-.305-.027-.008-1.022.447-.748.641-.38-.235.512-1.788-.53-1.202-.273.161-.178.348-.544.215-.478-.176-.474.963-.657 1.26-.526.858-.362.701.532.726.283.011.197.366.507.282.817-.237.127-.432.577-.84.275.053-.189.172 0 0" fill="#dcdbdb" fill-rule="evenodd" transform="translate(87.2168 85.9619)"/><path d="m0 0c.256.047-.006.515.149.586.214.101.296-.424.408-.445-.554.095 1.187.59.669.168.145.119-.071.531-.148.527.097.006.881-.392.924-.332-.086-.111-1.031 1.033-.999 1.168.164.718.974-.362 1.229-.555.682-.518 1.311-.537 1.682-.589.488-.071.835-.448.624-.901v.213c.326.113.389-.295.314-.5-.168-.459-.545-.061-.792-.264-.313-.258.267-1.156-.497-1.496-.008-.004-1.453.168-1.618.197-.828.164.713 1.03.501 1.17-.342.233-.894-.445-1.185-.515-.704-.164-.006.709-.12.791-.115-.082-.208-.182-.278-.305-.027-.008-1.022.447-.748.641-.38-.235.512-1.788-.53-1.202-.273.161-.178.348-.544.215-.478-.176-.474.963-.657 1.26-.526.858-.362.701.532.726.283.011.197.366.507.282.817-.237.127-.432.577-.84.275.053-.189.172 0 0z" fill="none" stroke="#777475" stroke-linecap="round" stroke-linejoin="round" stroke-width=".065" transform="translate(87.2168 85.9619)"/><path d="m0 0c-.101.537.065-.004.226.051.243.093.6.209 1.002.255 1.279 0 .094-.31.11-.45.043-.257.718-.577.584-.917.016.045-.584.016-.403-.142-.246.211-1.472 1.004-1.519 1.203-.092.487.004-.021 0 0" fill="#dcdbdb" fill-rule="evenodd" transform="translate(96.0938 86.8896)"/><path d="m0 0c-.101.537.065-.004.226.051.243.093.6.209 1.002.255 1.279 0 .094-.31.11-.45.043-.257.718-.577.584-.917.016.045-.584.016-.403-.142-.246.211-1.472 1.004-1.519 1.203-.092.487.004-.021 0 0z" fill="none" stroke="#777475" stroke-linecap="round" stroke-linejoin="round" stroke-width=".065" transform="translate(96.0938 86.8896)"/><path d="m0 0c.036.016.481.084.478 0-.028-.355-.796-.219-.775-.186.102.063.196.124.297.186.087.037-.902-.414 0 0" fill="#dcdbdb" fill-rule="evenodd" transform="translate(61.5303 77.042)"/><path d="m0 0c.036.016.481.084.478 0-.028-.355-.796-.219-.775-.186.102.063.196.124.297.186.087.037-.902-.414 0 0z" fill="none" stroke="#777475" stroke-linecap="round" stroke-linejoin="round" stroke-width=".065" transform="translate(61.5303 77.042)"/><path d="m0 0c.005.196.51-.414.387-.609-.323-.166-.387.558-.387.609 0 .151-.015-.715 0 0" fill="#dcdbdb" fill-rule="evenodd" transform="translate(98.377 86.2725)"/><path d="m0 0c.005.196.51-.414.387-.609-.323-.166-.387.558-.387.609 0 .151-.015-.715 0 0z" fill="none" stroke="#777475" stroke-linecap="round" stroke-linejoin="round" stroke-width=".065" transform="translate(98.377 86.2725)"/><path d="m0 0c.081.771.435-1.25.086-.336-.029.074-.091.258-.086.336" fill="#dcdbdb" fill-rule="evenodd" transform="translate(105.752 86.5889)"/><path d="m0 0c.081.771.435-1.25.086-.336-.029.074-.091.258-.086.336z" fill="none" stroke="#777475" stroke-linecap="round" stroke-linejoin="round" stroke-width=".065" transform="translate(105.752 86.5889)"/><path d="m0 0c.217.365 1.188-.533 1.197-.525-.253-.418-1.32.322-1.197.525.211.354-.089-.148 0 0" fill="#dcdbdb" fill-rule="evenodd" transform="translate(73.2236 77.1299)"/><path d="m0 0c.217.365 1.188-.533 1.197-.525-.253-.418-1.32.322-1.197.525.211.354-.089-.148 0 0z" fill="none" stroke="#777475" stroke-linecap="round" stroke-linejoin="round" stroke-width=".065" transform="translate(73.2236 77.1299)"/><path d="m0 0c-.014.207.66-.17.472-.479-.003-.003-.464.342-.472.479" fill="#dcdbdb" fill-rule="evenodd" transform="translate(102.748 83.9443)"/><path d="m0 0c-.014.207.66-.17.472-.479-.003-.003-.464.342-.472.479z" fill="none" stroke="#777475" stroke-linecap="round" stroke-linejoin="round" stroke-width=".065" transform="translate(102.748 83.9443)"/><path d="m0 0c.148.557.934-.1.643-.41-.166-.178-.679.26-.643.41.038.139-.005-.016 0 0" fill="#dcdbdb" fill-rule="evenodd" transform="translate(74.7266 73.9619)"/><path d="m0 0c.148.557.934-.1.643-.41-.166-.178-.679.26-.643.41.038.139-.005-.016 0 0z" fill="none" stroke="#777475" stroke-linecap="round" stroke-linejoin="round" stroke-width=".065" transform="translate(74.7266 73.9619)"/><path d="m0 0c-.048.143-.09.297-.111.445.252.299.548-.558.111-.445-.014.008.013-.002 0 0" fill="#dcdbdb" fill-rule="evenodd" transform="translate(104.8643 81.1572)"/><path d="m0 0c-.048.143-.09.297-.111.445.252.299.548-.558.111-.445-.014.008.013-.002 0 0z" fill="none" stroke="#777475" stroke-linecap="round" stroke-linejoin="round" stroke-width=".065" transform="translate(104.8643 81.1572)"/><path d="m0 0c-.307.123.259.588.391.338.046-.094-.234-.397-.391-.338" fill="#dcdbdb" fill-rule="evenodd" transform="translate(81.3506 71.5967)"/><path d="m0 0c-.307.123.259.588.391.338.046-.094-.234-.397-.391-.338z" fill="none" stroke="#777475" stroke-linecap="round" stroke-linejoin="round" stroke-width=".065" transform="translate(81.3506 71.5967)"/><path d="m0 0c1.111-.311-.777-1.869-.837-.445-.004.14.42-.133.392-.141.076.113.086.236.028.363-.068-.158.518.192.417.223.146-.043-.215.064 0 0" fill="#dcdbdb" fill-rule="evenodd" transform="translate(81.3506 71.5967)"/><path d="m0 0c1.111-.311-.777-1.869-.837-.445-.004.14.42-.133.392-.141.076.113.086.236.028.363-.068-.158.518.192.417.223.146-.043-.215.064 0 0z" fill="none" stroke="#777475" stroke-linecap="round" stroke-linejoin="round" stroke-width=".065" transform="translate(81.3506 71.5967)"/><path d="m0 0c.249.432.354-.592-.027-.361-.068.043.014.338.027.361" fill="#dcdbdb" fill-rule="evenodd" transform="translate(108.9033 76.8467)"/><path d="m0 0c.249.432.354-.592-.027-.361-.068.043.014.338.027.361z" fill="none" stroke="#777475" stroke-linecap="round" stroke-linejoin="round" stroke-width=".065" transform="translate(108.9033 76.8467)"/><path d="m0 0c.194.25-.703.465-.645.195-.017.059.518-.351.645-.195.176.227-.141-.18 0 0m13.599 17.961c-.122-.073.014.629.109.502-.274.386-.627-.843-.109-.502.027.017-.227-.148 0 0m-1.896 3.31c-.436-.04-1.113.341-1.417 0 .481.121 1.127-.322 1.417 0m-1.501 1.285c-.104.144-1.078-.099-1.033-.145.165-.182 1.102.042 1.033.145.039-.06.124-.176 0 0m-9.737 5.002c.846.207.049.143.896.345.054-.118.314.02.296.078 1.705.431 4.593 1.204 6.298 1.629 1.401.237 13.539 1.291 16.114-.072-.239.126-2.16.328-2.581-.38-.156-.257-2.239.294-2.413-.005-.009-.021 4.052.11 3.844-.927.081.399-.919-.017-1.01-.161-.153-.239 2.262.123 2.317.368.08.399-1.072.395-1.058.444.004.056 1.122.528 1.278.556.283 0 .75-.037.661-.065.718-.055.464-.158 1.206-.297.286-.049 1.934-.416 2.112-.327-.258-.123-2.347.098-2.307.161-.053-.095 3.846-.78 3.398-1.276.173.19-4.088-.411-3.651-.76.102-.022.205-.052.31-.079-.304-.042-.591.005-.863.143-.142-.105-.271-.216-.389-.339-.163-.047-.587-.043-.808-.081-.219-.035-1.196-.241-1.255-.201-.014.078-.034.151-.053.227-.065-.076-.079-.157-.055-.246-.467-.207-1.551.497-1.75.308-.119-.118-3.829.084-3.985.378-.443.933 2.129.235 2.255.452-.02-.035-1.975 1.127-2.396.579.021.029.525-.148.612-.086-.315-.209-.76-.09-1.075-.327 1.03.772-.681-1.446-.511-.423-.068-.405.974-.618.974-.582-.036-.611-1.393.137-1.557.08-.013-.006-.103-.5-.026-.36-.065-.113-.699-.791-.813-.782-.251.028-.142.532-.599.039-.07-.075-.596-.929-.874-.715-.029.028.687-.173.588-.27-.617-.573-2.116-.101-2.562-.64-.142-.181 2.212-.175 2.212-.17.143-.031 1.405-.971 1.438-1.166.028-.175-.647.257-.31.28-.453-.037-.676-.638-1.151-.102-.29.324-1.04-.038-1.474.135-.635.264-1.146-.07-1.658.076-.268.074-.893.925-.698.891-.248-.019-.46-.114-.638-.28-.204-.735 1.404-.591 1.586-.668-.053-.119-.06-.239-.027-.366.155.083.285.198.388.342.473.133.996-.274 1.532-.164.295.06 1.144-.519 1.109-.541-.193-.148-.725.369-.777-.131.152-.043.25-.136.305-.279-.056-.049-1.117-.381-1.054-.5.044-.086 1.467.377 1.723.193.335-.238-.271-.716-.11-.972.283-.447 1.069.325 1.248-.566.086-.443.57-.908.49-1.303-.061-.299 1.258-.207 1.301-.8.002-.073-.929-.166-1.004-.25-.254-.323.558-.517.101-.804-.409-.262-.747-.174-1.175-.312-.449-.138-1.352.686-1.432.719-.136.065-.453.145-.597.07-.221-.114.789-.416.822-.484.273-.593-.423-.389-.448-.587-.071-.496 1.036-.643.166-.972-1.052-.395 1.087-.899.978-.752.216-.3-.51-1.475-.559-1.282-.026.111-1.284-.637-1.167-.803.34-.465.813.289 1.17.053-.075.047.229-1.199.17-1.141-.14.123.851-.362.554-.336.257-.007.528.397.974.366.583-.03 1.279-1.23 1.422-1.898-.118.056-.24.07-.361.036-.204-.748.419-1.064.976-1.28.961-.366.639-.893.545-1.673-.038-.304 1.622-.734 1.971-.935.346-.205-.176-.873.657-.873.066 0 .081.695.278.777.23.096.692-.537.864-.611.484-.211.749.06 1.081-.41.483-.692 1.072-1.26 1.669-1.852.259-.256.183-.652.398-.849.513-.479 1.291-.331 1.651-1.096.314-.672-.898-.358-.932-.385.128.104-.487-.795-.444-.58.084-.137.16-.275.226-.42-1.001-.435-1.077.971-1.503 1.283-.227.016-.44.08-.642.192-.057.111.259.814-.084.806-.252-.004-.103-.509-.19-.636-.374-.53-.918-.299-1.402-.319.278.012.172-1.51.187-1.685.052-.619-1.209.117-1.457.09-.7-.081-1.388-.118-2.072-.297-.155-.041-1.192-.686-1.159-.686-.257.031-.15.602-.471.734-.239.098-1.328.153-1.381-.017.031.094.489.273.264.422-.218.14-.507-.328-.75-.313-.282.022.011.555-.473.477-.234-.035-1.586-.895-1.612-1.113.137-.127.286-.25.443-.362-.034-.103-.66-1.312-.723-1.365-.206.094-.42.158-.642.193-.417-.127-.133-.773-.472-.947-.366-.182-.886.211-1.304.027-.307-.128-.278-.627-.533-.722-.221-.076-.371-.004-.452.199-.391.4-.579-.383-.772-.51-.204-.133-1.317-.627-1.529-.502-.116.073 2.467 5.727 4.077 4.953 1.14-.552 2.376 1.125 3.488.782.155-.049 1.795.929 1.779.873.108.482-2.208-.571-2.643-.313-.218.127.15.463.225.533.623.557-.602.532-.897.729-.381.252-1.29-.162-1.676-.295-.502-.176-.492-.854-.407-.826-.243-.074-1.917.562-1.69.924.064.107.538-.182.55-.145.322.731-1.23.883-1.339 1.055-.201.324-1.324 1.316-1.742 1.385-1.051.173-2.372-.416-3.462-.416-.493.005-.986.166-1.485.183-.759.02.004-.553-.017-.795-.139-.052-.504-.156-.533-.328-.039-.219.498-.057.504-.076-.151-.084-.292-.19-.424-.297.253.508 1.152-.428 1.096-.908-.029-.227-.874-1.055-.782-1.143.17-.162 1.529.846 1.781.916.15-.603-1.364-1.55-1.639-1.949-.319-.441-.663-2.281-1.167-2.422-.388-.094-.134 1.379-1.283.225-.409-.404-.451-1.463-.968-1.617.813.242-.525.955-.592.445-.041.516 4.142 3.957 3.812 4.15-.389.233-1.704-.773-1.931-1.035-.776-.869-1.672-.945-2.778-1.303-1.016-.33-4.504-1.64-4.671.102-.086.898-2.432-.277-2.87-.18-1.494.348-.882-.379-1.519-1.314-.522-.762-.694-2.092-1.894-2.205-.028.111-.058.217-.086.334-.079-.1-.179-.164-.305-.199-.199.107-.242.199-.554.334.163-.063-.361.531-.366.503.052.37.925.534 1.113.752.513.592.098.5.669.637.674.18.309 1.02.169 1.381-.173.449.511.424.751.623 1.596 1.326-1.097 1.162-1.227 1.588-.058.168 1.105.498 1.276.555 1.671.615-1.428.843-1.557 1.033-.473.697-.649-.789-.914-1.061-.394-.377 1.442-1.422.527-2.115-.05-.035-1.671.879-2.338.363-.203-.162-.28-1.134-.542-1.488-.424-.572-.42-1.258-.765-1.795-.04-.064-.308.358-.221.414-.286-.181-.042-.662-.29-.873-.175-.141-.558.234-.602.176-.319-.422.149-.914-.361-1.391-.094.03-.15.092-.167.192-.069-.071-.087-.155-.056-.246-.056-.055-.447-.327-.611-.391-.028.111-.055.223-.085.336-.355.006-.71-.608-1.142-.645.044.118.051.241.029.362-.05-.024-.82-.817-.828-.889.018.148-.761.359-.814.361-.159.002-1.225-.359-1.382-.007-.071.173-.126.693-.396.677-.497-.039.111.496.051.551-.182.176-.237-.283-.276-.301-.086.051-.108.121-.054.217-.11-.033-.224-.064-.336-.08-.043.1-.026.186.056.248-.047.068-.436.215-.588.447-.288.446-.514-.341-.644-.213.013-.011.169.684.173.686.388.543.424.412.389 1.121-.055 1.014-1.557.053-1.752-.4-.733-1.707-.926-3.6-1.816-5.286-.204-.392-.344-.568-.41-.662-.827-1.173-.717.151-1.224-.119-.026.112-.056.221-.083.332-.003 1.145.317 2.297.692 3.367.084.239.59 1.981.557 2.036.017-.026-.857-.989-.932-1.127-.333-.651-1.405.55-1.152 1.261.479 1.342 1.058 2.6 1.662 3.887.465.988.831 2.072 1.437 2.965.555.826 1.946 3.08 2.689 4.103 6.392 8.833 14.846 16.731 27.905 21.078 2.87.709.669.266 0 0" fill="#dcdbdb" fill-rule="evenodd" transform="translate(48.1445 78.5361)"/><path d="m0 0c.194.25-.703.465-.645.195-.017.059.518-.351.645-.195.176.227-.141-.18 0 0zm13.599 17.961c-.122-.073.014.629.109.502-.274.386-.627-.843-.109-.502.027.017-.227-.148 0 0zm-1.896 3.31c-.436-.04-1.113.341-1.417 0 .481.121 1.127-.322 1.417 0zm-1.501 1.285c-.104.144-1.078-.099-1.033-.145.165-.182 1.102.042 1.033.145.039-.06.124-.176 0 0zm-9.737 5.002c.846.207.049.143.896.345.054-.118.314.02.296.078 1.705.431 4.593 1.204 6.298 1.629 1.401.237 13.539 1.291 16.114-.072-.239.126-2.16.328-2.581-.38-.156-.257-2.239.294-2.413-.005-.009-.021 4.052.11 3.844-.927.081.399-.919-.017-1.01-.161-.153-.239 2.262.123 2.317.368.08.399-1.072.395-1.058.444.004.056 1.122.528 1.278.556.283 0 .75-.037.661-.065.718-.055.464-.158 1.206-.297.286-.049 1.934-.416 2.112-.327-.258-.123-2.347.098-2.307.161-.053-.095 3.846-.78 3.398-1.276.173.19-4.088-.411-3.651-.76.102-.022.205-.052.31-.079-.304-.042-.591.005-.863.143-.142-.105-.271-.216-.389-.339-.163-.047-.587-.043-.808-.081-.219-.035-1.196-.241-1.255-.201-.014.078-.034.151-.053.227-.065-.076-.079-.157-.055-.246-.467-.207-1.551.497-1.75.308-.119-.118-3.829.084-3.985.378-.443.933 2.129.235 2.255.452-.02-.035-1.975 1.127-2.396.579.021.029.525-.148.612-.086-.315-.209-.76-.09-1.075-.327 1.03.772-.681-1.446-.511-.423-.068-.405.974-.618.974-.582-.036-.611-1.393.137-1.557.08-.013-.006-.103-.5-.026-.36-.065-.113-.699-.791-.813-.782-.251.028-.142.532-.599.039-.07-.075-.596-.929-.874-.715-.029.028.687-.173.588-.27-.617-.573-2.116-.101-2.562-.64-.142-.181 2.212-.175 2.212-.17.143-.031 1.405-.971 1.438-1.166.028-.175-.647.257-.31.28-.453-.037-.676-.638-1.151-.102-.29.324-1.04-.038-1.474.135-.635.264-1.146-.07-1.658.076-.268.074-.893.925-.698.891-.248-.019-.46-.114-.638-.28-.204-.735 1.404-.591 1.586-.668-.053-.119-.06-.239-.027-.366.155.083.285.198.388.342.473.133.996-.274 1.532-.164.295.06 1.144-.519 1.109-.541-.193-.148-.725.369-.777-.131.152-.043.25-.136.305-.279-.056-.049-1.117-.381-1.054-.5.044-.086 1.467.377 1.723.193.335-.238-.271-.716-.11-.972.283-.447 1.069.325 1.248-.566.086-.443.57-.908.49-1.303-.061-.299 1.258-.207 1.301-.8.002-.073-.929-.166-1.004-.25-.254-.323.558-.517.101-.804-.409-.262-.747-.174-1.175-.312-.449-.138-1.352.686-1.432.719-.136.065-.453.145-.597.07-.221-.114.789-.416.822-.484.273-.593-.423-.389-.448-.587-.071-.496 1.036-.643.166-.972-1.052-.395 1.087-.899.978-.752.216-.3-.51-1.475-.559-1.282-.026.111-1.284-.637-1.167-.803.34-.465.813.289 1.17.053-.075.047.229-1.199.17-1.141-.14.123.851-.362.554-.336.257-.007.528.397.974.366.583-.03 1.279-1.23 1.422-1.898-.118.056-.24.07-.361.036-.204-.748.419-1.064.976-1.28.961-.366.639-.893.545-1.673-.038-.304 1.622-.734 1.971-.935.346-.205-.176-.873.657-.873.066 0 .081.695.278.777.23.096.692-.537.864-.611.484-.211.749.06 1.081-.41.483-.692 1.072-1.26 1.669-1.852.259-.256.183-.652.398-.849.513-.479 1.291-.331 1.651-1.096.314-.672-.898-.358-.932-.385.128.104-.487-.795-.444-.58.084-.137.16-.275.226-.42-1.001-.435-1.077.971-1.503 1.283-.227.016-.44.08-.642.192-.057.111.259.814-.084.806-.252-.004-.103-.509-.19-.636-.374-.53-.918-.299-1.402-.319.278.012.172-1.51.187-1.685.052-.619-1.209.117-1.457.09-.7-.081-1.388-.118-2.072-.297-.155-.041-1.192-.686-1.159-.686-.257.031-.15.602-.471.734-.239.098-1.328.153-1.381-.017.031.094.489.273.264.422-.218.14-.507-.328-.75-.313-.282.022.011.555-.473.477-.234-.035-1.586-.895-1.612-1.113.137-.127.286-.25.443-.362-.034-.103-.66-1.312-.723-1.365-.206.094-.42.158-.642.193-.417-.127-.133-.773-.472-.947-.366-.182-.886.211-1.304.027-.307-.128-.278-.627-.533-.722-.221-.076-.371-.004-.452.199-.391.4-.579-.383-.772-.51-.204-.133-1.317-.627-1.529-.502-.116.073 2.467 5.727 4.077 4.953 1.14-.552 2.376 1.125 3.488.782.155-.049 1.795.929 1.779.873.108.482-2.208-.571-2.643-.313-.218.127.15.463.225.533.623.557-.602.532-.897.729-.381.252-1.29-.162-1.676-.295-.502-.176-.492-.854-.407-.826-.243-.074-1.917.562-1.69.924.064.107.538-.182.55-.145.322.731-1.23.883-1.339 1.055-.201.324-1.324 1.316-1.742 1.385-1.051.173-2.372-.416-3.462-.416-.493.005-.986.166-1.485.183-.759.02.004-.553-.017-.795-.139-.052-.504-.156-.533-.328-.039-.219.498-.057.504-.076-.151-.084-.292-.19-.424-.297.253.508 1.152-.428 1.096-.908-.029-.227-.874-1.055-.782-1.143.17-.162 1.529.846 1.781.916.15-.603-1.364-1.55-1.639-1.949-.319-.441-.663-2.281-1.167-2.422-.388-.094-.134 1.379-1.283.225-.409-.404-.451-1.463-.968-1.617.813.242-.525.955-.592.445-.041.516 4.142 3.957 3.812 4.15-.389.233-1.704-.773-1.931-1.035-.776-.869-1.672-.945-2.778-1.303-1.016-.33-4.504-1.64-4.671.102-.086.898-2.432-.277-2.87-.18-1.494.348-.882-.379-1.519-1.314-.522-.762-.694-2.092-1.894-2.205-.028.111-.058.217-.086.334-.079-.1-.179-.164-.305-.199-.199.107-.242.199-.554.334.163-.063-.361.531-.366.503.052.37.925.534 1.113.752.513.592.098.5.669.637.674.18.309 1.02.169 1.381-.173.449.511.424.751.623 1.596 1.326-1.097 1.162-1.227 1.588-.058.168 1.105.498 1.276.555 1.671.615-1.428.843-1.557 1.033-.473.697-.649-.789-.914-1.061-.394-.377 1.442-1.422.527-2.115-.05-.035-1.671.879-2.338.363-.203-.162-.28-1.134-.542-1.488-.424-.572-.42-1.258-.765-1.795-.04-.064-.308.358-.221.414-.286-.181-.042-.662-.29-.873-.175-.141-.558.234-.602.176-.319-.422.149-.914-.361-1.391-.094.03-.15.092-.167.192-.069-.071-.087-.155-.056-.246-.056-.055-.447-.327-.611-.391-.028.111-.055.223-.085.336-.355.006-.71-.608-1.142-.645.044.118.051.241.029.362-.05-.024-.82-.817-.828-.889.018.148-.761.359-.814.361-.159.002-1.225-.359-1.382-.007-.071.173-.126.693-.396.677-.497-.039.111.496.051.551-.182.176-.237-.283-.276-.301-.086.051-.108.121-.054.217-.11-.033-.224-.064-.336-.08-.043.1-.026.186.056.248-.047.068-.436.215-.588.447-.288.446-.514-.341-.644-.213.013-.011.169.684.173.686.388.543.424.412.389 1.121-.055 1.014-1.557.053-1.752-.4-.733-1.707-.926-3.6-1.816-5.286-.204-.392-.344-.568-.41-.662-.827-1.173-.717.151-1.224-.119-.026.112-.056.221-.083.332-.003 1.145.317 2.297.692 3.367.084.239.59 1.981.557 2.036.017-.026-.857-.989-.932-1.127-.333-.651-1.405.55-1.152 1.261.479 1.342 1.058 2.6 1.662 3.887.465.988.831 2.072 1.437 2.965.555.826 1.946 3.08 2.689 4.103 6.392 8.833 14.846 16.731 27.905 21.078 2.87.709.669.266 0 0z" fill="none" stroke="#777475" stroke-linecap="round" stroke-linejoin="round" stroke-width=".065" transform="translate(48.1445 78.5361)"/><path d="m0 0c.131-.312.589.344.197.164-.071-.029-.23-.072-.197-.164m14.942 7.41c.008-.18-.249-.703-.025-.838.604-.361-.06 2.305-.169 2.088.024-.377.176-.764.194-1.25.008-.148-.018.486 0 0m-2.254 1.924c.087-.154.197-.285.334-.393-.057-.216-.118-.429-.195-.642-.028-.313-.024-.903.138-1.16.084-.135 1.776-2.282 1.783-2.258.295.476-1.319 2.226-1.507 2.693-.216.559-.234 1.688.396.809-.161.234.348-.403.332-.391.023-.015.219.141.437-.283.039-.074-.044.658-.075.73-.184.397-.662.592-.84.975.124.022.244.014.365-.023.28 1.009-1.069.81-1.168-.057-.025-.225.015.131 0 0m-.082-.146c.008-.024-.677.687-.644.671-.149-.05-.24-.156-.277-.306-.367-.108-.16.263-.349.336-.207.076-.09-2.922.352-3.174.348-.203.17 1.15.246 1.363.011-.109.069-.172.171-.195.132.084.539 1.189.501 1.305-.069.185.038-.112 0 0m-2.119.417c.44-.404-.193.918-.193.305 0-.139.131-.246.193-.305m-16.671 4.221c-.274-.258-.322-.543-.14-.857-.593.615 1.097.808 1.107.851-.036-.156-.69-.386-.745-.41.107.051.216.074.334.082.209-.058 0-.783 0-.898 0-.668.8.48.584.455.004 0 .216-.434.305-.283.116.203-.317.736-.305.755.148.038.295.079.443.114-.055.25-.187.455-.391.609.178-.183-.334-.433-.36-.433-.27.005.04.509-.075.556-.162.061-.676-.431-.757-.541-.23-.285.049.07 0 0m23.288-33.911c-.308.717-1.01.342-.917 1.309.079.914-.514 1.322-1.203 1.713-.259.062-.392.209-.398.435-.037.395-.526.002-.773.215-.416.375.497.57-.459.779-1.128.25.179.24-.344.559-.024.01-1.305-.145-1.136.461.308 1.074-1.706 1.449-1.706 1.426-.486-.817 1.258-1.78 1.616-2.196.418-.496 2.8-3.377 2.201-3.592-.622-.285-1.663 2.002-2.089 2.198-.013-.143-.054-.27-.139-.393-.046-.014-.711.297-.758.381-.066.131.79.801.043 1.146-1.199.553-1.438 1.643-2.246 2.602-.445.526-2.094.474-2.159.741-.214.842-1.565 1.184-1.592 2.086 0-.006.439-.082.193.166-.234.242-.287-.219-.554-.137-.205.063-.485.67-.579.819-.185.303-.358.607-.584.879-.39.465 0 1.074-.375 1.599-.82 1.157-.811 2.328-1.113 3.672-.084.34-1.292 1.51-1.084 1.797.102.143.887.041 1.054.029.082.27-.696 1.114-.916 1.305-.004-.123-.06-.215-.168-.277-.073.021.337.441-.221.416.503.019-.245-.449-.309-.192.056-.22 1.191-.812 1.086-1.031-.267-.566-.93.256-.888.248-.348.055-.84-.24-1.099.377.016-.039-1.16.322-.907.545.208.176.741-.086 1.029.137-.323.281-.788.103-1.056.445-.278.35-.011.57-.224.889.154-.227-.468.468-.476.474-.353.147-.705.295-1.057.448-.031.123-.023.242.031.363-.081.078-.503-.305-.505.062 0 .479.201.188-.138.598.058-.127.053-.248-.025-.355-.139.084-.431 1.199-.613 1.023-.487-.057.501-.451.166-.666-.446-.275-.473 1.572-1.087 1.031-.212-.189 1.019-1.595 1.019-1.595-.481.105-.997.761-1.267 1.173.17-.263-.47.002-.19.412.144.215.083 1.102-.367.94.076.027.346-1.008-.032-.904-.226.07-.174.632-.414.724.173-.064-.299-.338-.268-.338-.166.149-.255.332-.263.557-.022-.031.588-.107.333.086-1.162-.201-1.531.553-2.365.947-.243.108-1.794-.211-1.99.156.007-.009-1.54.657-1.633.594-.267-.203.062-.523.161-.701.276-.469-.365-.258-.389-.33-.125-.254-.041-.209-.239-.391-.704-.689-.544.084-.668.088-1.103.049.59 1.363.468 1.166-.096.125-.086.244.031.363-.557-.238-2.112-2.435-1.213-2.16.035.016-.863-.879-1.066-1.019-.733-.475-1.08-1.522-1.897-1.895-.239 0-.933-.285-1.333-.332-.022.092-.077.158-.165.196.062.023-.721-1.004-1.1-.489.036-.052 2.209 1.313 2.198 1.006.023.582.896.902 1.332 1.17.411.25-.038.834.236 1.285-.289-.474-.543.133-.719.121.038-.16-.011-.289-.141-.394-.175.027-.421.363-.557.484-.291.262-.679-.488-.918-.262.103-.097.106 1.038.082 1.12-.145.531-.642-.059-.975.08-.131.048-.834 1.334-.785 1.582.051.267.578 1.121.785 1.257.246.161.454-.41.646.088.079.207 1.013-.048.793.371-.031.063-.216.833-.073.708-.355.316-.459-.278-.751-.305.031.004-1.256.414-.882.322-.148.033-.956 1.037-.867 1.197.713 1.239 1.687-.578 2.3.037.364.372-2.454 2.036-1.575 2.303.917.287.851.821 1.651 1.211.286.141.658.027.896.16.659.377.063.389.699.057.016.105.08.16.196.172.05-.115.112-.215.195-.307.176.067.363.11.551.135.282-.135-.463-.238.153-.422.611-.184 1.492-.019 2.112.006.828.029 2.191-1.031 2.969-.637-.399-.205.002.674.06.725-.182-.16.336-.279.414-.252.27.107.176.783.45.906.133.057.136-.726.304-.601.137.117.198.998.222 1.003.106.016.705-.58.973-.582-.045 0-.31.561-.263.604.049.055.42-.418.556-.356.303.135.07.385.347.506.337.143 1.577.119 1.979.139.562.021.372-1.262 1.276-.391.22.209-.043.504.338.559.439.059.553-.525.944-.477.093.069-.648.893-.837.977-1.243.611.84.326 1.169.529 1.118 0-.897 1.952-.897 1.947.169.682 1.688-1.08 1.954-.972.007.248-.539.568-.62.869-.226.832-.342.024-.635.353-.127.162.071.673-.432.251-.378-.326-.382.232-.807.351-.425.114-.456.541-.762.789-.465.373-1.125.444-1.555.855-.35.334.12 1.089.521.668.412-.435.185-.58.418-.964.183-.282 3.29-1.665 3.539-1.365-.327.045-.485.208-.476.474.404.4 1.084-.511 1.469-.561.092-.015-.781.793-.828.837-.229.23-1.445.95-.779 1.226.566.25 2.668-1.192 2.423-1.638-.123.03-.243.036-.365.03.091-.28.653-.166.479-.474-.092-.156.318-.705.447-.836.3-.328 1.211-.508.891-1.182-.234-.486.398-.371.398-.806 0-.156.471-1.049.569-1.289.305-.762 1.328-2.18 2.179-2.455-.072.025.119.734.474.236.227-.303.479-.449.801-.623-.084-.01.483.738.862.801.295.051.768.045 1.006.256.145.121-.03.754.278.779.425.041.881-1.035 1.251-1.227.343-.179.782-.086 1.143-.298.311.32-.938 1.578-1.282 1.806-1.164.748-1.426 2.016-2.762 2.813-.366.216-.706-.104-.95.275-.399.631-.756.645-1.33.971-.274.154-1.206.759-1.065 1.13.101.255-.051.793-.022.843.034.06.859.045.919.114.088.14.068.254-.064.332.171-.192 1.801-1.06 1.494-.265-.096.254-1.167 1.481-1.356 1.416.491.172 1.302-.386 1.623-.227.198.065.196.026.46-.226.33-.317.436.795.463.809.035-.166.138-.255.303-.28-.057.131-.046.25.027.363.793-.066 1.233-1.159 1.98-1.279-.195.15-.242.336-.137.555.991.529 1.461-2.506 1.814-2.803-.788.652-1.543 1.566-2.183 2.362.173-1.014 1.25-1.71 1.527-2.782.09-.344.563-2.037 1.122-2.117.316-.051-.543.912-.141 1.029.11.032 1.074-1.781 1.477-1.166.049.45-.385-.242-.498.184-.011.041-.354 1.531-.395 1.484.202.229.552-.863.583-.92-.002.01 1.676-2.892 1.676-2.892-.409-.016-.343.744-.672.773.263-.476 1.746-3.885 1.97-3.469 0 .006.613-1.869.657-2.039.182-.693.634-1.05.915-1.671.255-.547.126-1.186.445-1.631.028.132.072.263.141.384 1.153-1.652 1.452-3.753 1.872-5.75.135-.644 2.45-5.406 1.918-5.605-.329-.119-.862 2.035-1.335 2.035.323 0-.423-1.265-.419-1.226-.034-.235-.463-1.381-.258-1.524.178-.125.356-.373.347-.648-.089.008-.169.027-.253.054.024-.109.05-.22.084-.332-.295-.855-.283.073-.533-.255-.05-.065-.611-1.641-.58-1.444-.314-1.596.177-2.762.364-4.287.181-1.395.245-2.81 1.038-4.06.707-1.111 1.282.872 1.385 1.475.198 1.147-.629 3.319.366 4.31-.18-.188.31-4.533.47-4.81-.283.18.566 2.21.64 2.167.222-.096-.237-3.458-.226-3.884-.011.453-.116.94-.071 1.395-.063-.516.482-2.629-.128-2.928.254.125-.092 1.406-.155 1.338-.257-.281-.182-.748-.547-.965-.906-.535-.606.084-1.168-1.039-.514-1.037-2.083-.723-2.544-1.516-.037-.007-.075-.017-.11-.025-.111.262.035.008 0 0" fill="#dcdbdb" fill-rule="evenodd" transform="translate(95.8271 67.1826)"/><path d="m0 0c.131-.312.589.344.197.164-.071-.029-.23-.072-.197-.164zm14.942 7.41c.008-.18-.249-.703-.025-.838.604-.361-.06 2.305-.169 2.088.024-.377.176-.764.194-1.25.008-.148-.018.486 0 0zm-2.254 1.924c.087-.154.197-.285.334-.393-.057-.216-.118-.429-.195-.642-.028-.313-.024-.903.138-1.16.084-.135 1.776-2.282 1.783-2.258.295.476-1.319 2.226-1.507 2.693-.216.559-.234 1.688.396.809-.161.234.348-.403.332-.391.023-.015.219.141.437-.283.039-.074-.044.658-.075.73-.184.397-.662.592-.84.975.124.022.244.014.365-.023.28 1.009-1.069.81-1.168-.057-.025-.225.015.131 0 0zm-.082-.146c.008-.024-.677.687-.644.671-.149-.05-.24-.156-.277-.306-.367-.108-.16.263-.349.336-.207.076-.09-2.922.352-3.174.348-.203.17 1.15.246 1.363.011-.109.069-.172.171-.195.132.084.539 1.189.501 1.305-.069.185.038-.112 0 0zm-2.119.417c.44-.404-.193.918-.193.305 0-.139.131-.246.193-.305zm-16.671 4.221c-.274-.258-.322-.543-.14-.857-.593.615 1.097.808 1.107.851-.036-.156-.69-.386-.745-.41.107.051.216.074.334.082.209-.058 0-.783 0-.898 0-.668.8.48.584.455.004 0 .216-.434.305-.283.116.203-.317.736-.305.755.148.038.295.079.443.114-.055.25-.187.455-.391.609.178-.183-.334-.433-.36-.433-.27.005.04.509-.075.556-.162.061-.676-.431-.757-.541-.23-.285.049.07 0 0zm23.288-33.911c-.308.717-1.01.342-.917 1.309.079.914-.514 1.322-1.203 1.713-.259.062-.392.209-.398.435-.037.395-.526.002-.773.215-.416.375.497.57-.459.779-1.128.25.179.24-.344.559-.024.01-1.305-.145-1.136.461.308 1.074-1.706 1.449-1.706 1.426-.486-.817 1.258-1.78 1.616-2.196.418-.496 2.8-3.377 2.201-3.592-.622-.285-1.663 2.002-2.089 2.198-.013-.143-.054-.27-.139-.393-.046-.014-.711.297-.758.381-.066.131.79.801.043 1.146-1.199.553-1.438 1.643-2.246 2.602-.445.526-2.094.474-2.159.741-.214.842-1.565 1.184-1.592 2.086 0-.006.439-.082.193.166-.234.242-.287-.219-.554-.137-.205.063-.485.67-.579.819-.185.303-.358.607-.584.879-.39.465 0 1.074-.375 1.599-.82 1.157-.811 2.328-1.113 3.672-.084.34-1.292 1.51-1.084 1.797.102.143.887.041 1.054.029.082.27-.696 1.114-.916 1.305-.004-.123-.06-.215-.168-.277-.073.021.337.441-.221.416.503.019-.245-.449-.309-.192.056-.22 1.191-.812 1.086-1.031-.267-.566-.93.256-.888.248-.348.055-.84-.24-1.099.377.016-.039-1.16.322-.907.545.208.176.741-.086 1.029.137-.323.281-.788.103-1.056.445-.278.35-.011.57-.224.889.154-.227-.468.468-.476.474-.353.147-.705.295-1.057.448-.031.123-.023.242.031.363-.081.078-.503-.305-.505.062 0 .479.201.188-.138.598.058-.127.053-.248-.025-.355-.139.084-.431 1.199-.613 1.023-.487-.057.501-.451.166-.666-.446-.275-.473 1.572-1.087 1.031-.212-.189 1.019-1.595 1.019-1.595-.481.105-.997.761-1.267 1.173.17-.263-.47.002-.19.412.144.215.083 1.102-.367.94.076.027.346-1.008-.032-.904-.226.07-.174.632-.414.724.173-.064-.299-.338-.268-.338-.166.149-.255.332-.263.557-.022-.031.588-.107.333.086-1.162-.201-1.531.553-2.365.947-.243.108-1.794-.211-1.99.156.007-.009-1.54.657-1.633.594-.267-.203.062-.523.161-.701.276-.469-.365-.258-.389-.33-.125-.254-.041-.209-.239-.391-.704-.689-.544.084-.668.088-1.103.049.59 1.363.468 1.166-.096.125-.086.244.031.363-.557-.238-2.112-2.435-1.213-2.16.035.016-.863-.879-1.066-1.019-.733-.475-1.08-1.522-1.897-1.895-.239 0-.933-.285-1.333-.332-.022.092-.077.158-.165.196.062.023-.721-1.004-1.1-.489.036-.052 2.209 1.313 2.198 1.006.023.582.896.902 1.332 1.17.411.25-.038.834.236 1.285-.289-.474-.543.133-.719.121.038-.16-.011-.289-.141-.394-.175.027-.421.363-.557.484-.291.262-.679-.488-.918-.262.103-.097.106 1.038.082 1.12-.145.531-.642-.059-.975.08-.131.048-.834 1.334-.785 1.582.051.267.578 1.121.785 1.257.246.161.454-.41.646.088.079.207 1.013-.048.793.371-.031.063-.216.833-.073.708-.355.316-.459-.278-.751-.305.031.004-1.256.414-.882.322-.148.033-.956 1.037-.867 1.197.713 1.239 1.687-.578 2.3.037.364.372-2.454 2.036-1.575 2.303.917.287.851.821 1.651 1.211.286.141.658.027.896.16.659.377.063.389.699.057.016.105.08.16.196.172.05-.115.112-.215.195-.307.176.067.363.11.551.135.282-.135-.463-.238.153-.422.611-.184 1.492-.019 2.112.006.828.029 2.191-1.031 2.969-.637-.399-.205.002.674.06.725-.182-.16.336-.279.414-.252.27.107.176.783.45.906.133.057.136-.726.304-.601.137.117.198.998.222 1.003.106.016.705-.58.973-.582-.045 0-.31.561-.263.604.049.055.42-.418.556-.356.303.135.07.385.347.506.337.143 1.577.119 1.979.139.562.021.372-1.262 1.276-.391.22.209-.043.504.338.559.439.059.553-.525.944-.477.093.069-.648.893-.837.977-1.243.611.84.326 1.169.529 1.118 0-.897 1.952-.897 1.947.169.682 1.688-1.08 1.954-.972.007.248-.539.568-.62.869-.226.832-.342.024-.635.353-.127.162.071.673-.432.251-.378-.326-.382.232-.807.351-.425.114-.456.541-.762.789-.465.373-1.125.444-1.555.855-.35.334.12 1.089.521.668.412-.435.185-.58.418-.964.183-.282 3.29-1.665 3.539-1.365-.327.045-.485.208-.476.474.404.4 1.084-.511 1.469-.561.092-.015-.781.793-.828.837-.229.23-1.445.95-.779 1.226.566.25 2.668-1.192 2.423-1.638-.123.03-.243.036-.365.03.091-.28.653-.166.479-.474-.092-.156.318-.705.447-.836.3-.328 1.211-.508.891-1.182-.234-.486.398-.371.398-.806 0-.156.471-1.049.569-1.289.305-.762 1.328-2.18 2.179-2.455-.072.025.119.734.474.236.227-.303.479-.449.801-.623-.084-.01.483.738.862.801.295.051.768.045 1.006.256.145.121-.03.754.278.779.425.041.881-1.035 1.251-1.227.343-.179.782-.086 1.143-.298.311.32-.938 1.578-1.282 1.806-1.164.748-1.426 2.016-2.762 2.813-.366.216-.706-.104-.95.275-.399.631-.756.645-1.33.971-.274.154-1.206.759-1.065 1.13.101.255-.051.793-.022.843.034.06.859.045.919.114.088.14.068.254-.064.332.171-.192 1.801-1.06 1.494-.265-.096.254-1.167 1.481-1.356 1.416.491.172 1.302-.386 1.623-.227.198.065.196.026.46-.226.33-.317.436.795.463.809.035-.166.138-.255.303-.28-.057.131-.046.25.027.363.793-.066 1.233-1.159 1.98-1.279-.195.15-.242.336-.137.555.991.529 1.461-2.506 1.814-2.803-.788.652-1.543 1.566-2.183 2.362.173-1.014 1.25-1.71 1.527-2.782.09-.344.563-2.037 1.122-2.117.316-.051-.543.912-.141 1.029.11.032 1.074-1.781 1.477-1.166.049.45-.385-.242-.498.184-.011.041-.354 1.531-.395 1.484.202.229.552-.863.583-.92-.002.01 1.676-2.892 1.676-2.892-.409-.016-.343.744-.672.773.263-.476 1.746-3.885 1.97-3.469 0 .006.613-1.869.657-2.039.182-.693.634-1.05.915-1.671.255-.547.126-1.186.445-1.631.028.132.072.263.141.384 1.153-1.652 1.452-3.753 1.872-5.75.135-.644 2.45-5.406 1.918-5.605-.329-.119-.862 2.035-1.335 2.035.323 0-.423-1.265-.419-1.226-.034-.235-.463-1.381-.258-1.524.178-.125.356-.373.347-.648-.089.008-.169.027-.253.054.024-.109.05-.22.084-.332-.295-.855-.283.073-.533-.255-.05-.065-.611-1.641-.58-1.444-.314-1.596.177-2.762.364-4.287.181-1.395.245-2.81 1.038-4.06.707-1.111 1.282.872 1.385 1.475.198 1.147-.629 3.319.366 4.31-.18-.188.31-4.533.47-4.81-.283.18.566 2.21.64 2.167.222-.096-.237-3.458-.226-3.884-.011.453-.116.94-.071 1.395-.063-.516.482-2.629-.128-2.928.254.125-.092 1.406-.155 1.338-.257-.281-.182-.748-.547-.965-.906-.535-.606.084-1.168-1.039-.514-1.037-2.083-.723-2.544-1.516-.037-.007-.075-.017-.11-.025-.111.262.035.008 0 0z" fill="none" stroke="#777475" stroke-linecap="round" stroke-linejoin="round" stroke-width=".065" transform="translate(95.8271 67.1826)"/><path d="m0 0c.296.091-1.251-.409-1.42 0 0 .739 1.042.158 1.031.141.109.188-1.211.929-1.154.993.491.58.805-.499 1.022-.439.435.121-.185.921.503.599.709-.334.242-.687.212-.653.073-.086 1.252-.08.871-.689.081.133-1.338.005-1.065.048.006.005-.064-.011 0 0" fill="#dcdbdb" fill-rule="evenodd" transform="translate(74.877 101.209)"/><path d="m0 0c.296.091-1.251-.409-1.42 0 0 .739 1.042.158 1.031.141.109.188-1.211.929-1.154.993.491.58.805-.499 1.022-.439.435.121-.185.921.503.599.709-.334.242-.687.212-.653.073-.086 1.252-.08.871-.689.081.133-1.338.005-1.065.048.006.005-.064-.011 0 0z" fill="none" stroke="#777475" stroke-linecap="round" stroke-linejoin="round" stroke-width=".065" transform="translate(74.877 101.209)"/><path d="m0 0c-.39-.056-3.516 1.554-3.313 1.894.34.573 4.133-1.894 3.313-1.894-.219-.035-.01 0 0 0" fill="#dcdbdb" fill-rule="evenodd" transform="translate(87.6221 101.3291)"/><path d="m0 0c-.39-.056-3.516 1.554-3.313 1.894.34.573 4.133-1.894 3.313-1.894-.219-.035-.01 0 0 0z" fill="none" stroke="#777475" stroke-linecap="round" stroke-linejoin="round" stroke-width=".065" transform="translate(87.6221 101.3291)"/><path d="m0 0c.616-.478-.328.26 0 0m6.232 2.513c-.095-.021-.161-.075-.195-.169.777-.473-.06.617-.015.412.009-.062.217-.212.21-.243 0-.014.015.063 0 0m-1.89 0c.077-.278.379.12.341.246-.041.146-.359-.194-.341-.246.099-.36-.032.108 0 0m-.25.05c.04.075-.15.377-.196.312-.042-.076.151-.383.196-.312m1.003.728c.574.595 3.249-1.349 3.673-1.447 1.039-.256 1.522-.747 2.06-1.138.391-.273 1.953-.568 2.244-.915.134-.168.812-.563.984-.642.642-.272 2.288-.336 2.288-1.559-.057-.086-.129-.103-.223-.057.006-.109.06-.179.166-.19-.16-.348-.272.039-.364.024-.062-.072-.075-.157-.055-.252-.637-.196-1.76.132-2.31.252-.692.15-.579-.072-1.2.527-.009.007.049-.259.04-.261-.142-.032-1.04.833-1.318.647-.166-.097.268-.468-.112-.638-.454-.202-.155.964-.78.416-.114-.103.302-.511.253-.525-.488-.134-1.682.407-2.2.275-1.755 0-.137-1.275-.415-1.642-.224-.299-.272.149-.389.137-.163-.043-.259-.145-.279-.307-.252.123-.295.806-.559.81-.236 0-.045-.953-.862-.334-.267.209-.904 1.018-1.31.974-.204-.022.094-.316-.014-.362-.126-.058-2.29 1.067-2.325 1.19-.058.185.404.204.252.422-.197.28-.423-.133-.546-.009.007.147.021.298.043.453-.661-.073-.158.173-.638.332-.107.036-.163-.651-.389-.332 0 .121.008.243.027.362-.019.013-1.973.709-1.299 1.179.492.343.959-.648 1.272-.593.067.013-.745.64-.756.692.051-.218-.024.171-.21-.013-.031-.03.621.19.537.248-.232.151-1.678.061-1.494.597.089.267 1.382-.058 1.61-.058-.073.112-.181.161-.329.147.154.054 1.638.236 1.179.675-.269.257 1.091-.089.932-.147.245.09-.121.435-.111.447.142.173.738.098.406.414.158-.15 1.322-.125 1.3-.166.148.244.391-.032.605.287.54.791.69-.649 1.059-.755-.249.074.116.516.14.388-.115.26-.311.412-.583.447.212.222.182-.06 0 0" fill="#dcdbdb" fill-rule="evenodd" transform="translate(80.1104 97.7861)"/><path d="m0 0c-.096-.021-.161-.074-.195-.169.777-.473-.061.617-.015.412.009-.061.217-.212.21-.243 0-.014.015.063 0 0zm-1.891 0c.078-.277.379.12.341.246-.041.147-.358-.193-.341-.246.1-.359-.032.108 0 0zm-.25.051c.04.074-.149.377-.195.311-.043-.076.15-.383.195-.311zm1.003.727c.575.595 3.249-1.348 3.673-1.447 1.039-.256 1.523-.747 2.061-1.138.39-.273 1.953-.568 2.244-.915.134-.168.811-.563.983-.641.643-.273 2.288-.336 2.288-1.56-.056-.086-.129-.102-.222-.056.006-.11.059-.179.166-.191-.16-.348-.273.039-.365.024-.061-.072-.075-.157-.054-.251-.637-.197-1.76.131-2.311.251-.691.15-.579-.072-1.199.527-.01.008.049-.259.04-.261-.143-.032-1.04.833-1.318.648-.166-.098.267-.469-.113-.639-.454-.201-.154.965-.779.416-.114-.103.302-.511.253-.524-.488-.134-1.683.407-2.2.274-1.755 0-.138-1.274-.415-1.642-.225-.299-.273.15-.389.137-.163-.043-.26-.144-.279-.307-.252.123-.295.806-.56.81-.235 0-.045-.953-.861-.334-.268.209-.904 1.019-1.311.975-.204-.023.095-.317-.013-.363-.126-.057-2.29 1.068-2.326 1.191-.057.184.405.203.252.422-.197.279-.422-.133-.545-.01.006.147.021.299.042.453-.661-.072-.158.174-.637.332-.108.036-.163-.65-.39-.332 0 .121.009.243.027.362-.018.013-1.972.709-1.298 1.179.492.344.959-.647 1.271-.593.068.013-.744.64-.756.693.052-.219-.023.17-.21-.014-.03-.029.621.19.537.248-.231.151-1.677.061-1.494.598.089.266 1.382-.059 1.611-.059-.074.112-.181.161-.329.147.154.054 1.637.236 1.178.675-.268.257 1.092-.089.933-.146.245.09-.121.434-.111.446.141.173.738.099.406.414.158-.149 1.322-.125 1.3-.166.148.244.39-.032.604.287.54.791.691-.649 1.06-.755-.249.075.116.516.139.388-.114.261-.31.412-.583.447.212.222.183-.059 0 0z" fill="none" stroke="#777475" stroke-linecap="round" stroke-linejoin="round" stroke-width=".065" transform="translate(86.3428 100.2988)"/><path d="m0 0c.023.062-.039.36.165.276.121-.048-.32-.713-.165-.276" fill="#dcdbdb" fill-rule="evenodd" transform="translate(86.2969 91.0557)"/><path d="m0 0c.023.062-.039.36.165.276.121-.048-.32-.713-.165-.276z" fill="none" stroke="#777475" stroke-linecap="round" stroke-linejoin="round" stroke-width=".065" transform="translate(86.2969 91.0557)"/><path d="m0 0c-.16.129-.334.205-.529.221.03.094.095.15.195.171.014.022-.3.334-.112.44.217.125.962-.365 1.106-.5.88-.779-.573-.156-.466-.168-.044.006-.281-.164-.194-.164-.173.112.003 0 0 0" fill="#dcdbdb" fill-rule="evenodd" transform="translate(87.2979 89.415)"/><path d="m0 0c-.16.129-.334.205-.529.221.03.094.095.15.195.171.014.022-.3.334-.112.44.217.125.962-.365 1.106-.5.88-.779-.573-.156-.466-.168-.044.006-.281-.164-.194-.164-.173.112.003 0 0 0z" fill="none" stroke="#777475" stroke-linecap="round" stroke-linejoin="round" stroke-width=".065" transform="translate(87.2979 89.415)"/><path d="m0 0c.289.221.646-.397.919-.358.054.125.022.237-.082.332 1.134-.412.429-.517.445-1.31.009-1.054-.493.037-.726.053-.037.004-.089-.793-.611-.387.146-.106-.191.726-.166.594-.246 1.285 1.112-.351 1.222.382.025.132-.919.423-1.001.694.226.172.13-.414 0 0" fill="#dcdbdb" fill-rule="evenodd" transform="translate(85.7119 89.1357)"/><path d="m0 0c.289.221.646-.397.919-.358.054.125.022.237-.082.332 1.134-.412.429-.517.445-1.31.009-1.054-.493.037-.726.053-.037.004-.089-.793-.611-.387.146-.106-.191.726-.166.594-.246 1.285 1.112-.351 1.222.382.025.132-.919.423-1.001.694.226.172.13-.414 0 0z" fill="none" stroke="#777475" stroke-linecap="round" stroke-linejoin="round" stroke-width=".065" transform="translate(85.7119 89.1357)"/><path d="m0 0c-.139-.105.388.801.388.336.062-.502-.774-.336-.909-.494.167.08.34.131.521.158.084.064-.07-.051 0 0" fill="#dcdbdb" fill-rule="evenodd" transform="translate(74.2861 68.1689)"/><path d="m0 0c-.139-.105.388.801.388.336.062-.502-.774-.336-.909-.494.167.08.34.131.521.158.084.064-.07-.051 0 0z" fill="none" stroke="#777475" stroke-linecap="round" stroke-linejoin="round" stroke-width=".065" transform="translate(74.2861 68.1689)"/><path d="m0 0c-.289.205-.895.674-.865 1.084.005.037 1.018-.43.477 0 .226-.176.734-1.332.388-1.084-.289.205.473-.336 0 0" fill="#dcdbdb" fill-rule="evenodd" transform="translate(92.0986 68.376)"/><path d="m0 0c-.289.205-.895.674-.865 1.084.005.037 1.018-.43.477 0 .226-.176.734-1.332.388-1.084-.289.205.473-.336 0 0z" fill="none" stroke="#777475" stroke-linecap="round" stroke-linejoin="round" stroke-width=".065" transform="translate(92.0986 68.376)"/><path d="m0 0c.007-.008-.194.123-.027.109.159-.009.321-.777.027-.109" fill="#dcdbdb" fill-rule="evenodd" transform="translate(93.3496 69.0459)"/><path d="m0 0c.007-.008-.194.123-.027.109.159-.009.321-.777.027-.109z" fill="none" stroke="#777475" stroke-linecap="round" stroke-linejoin="round" stroke-width=".065" transform="translate(93.3496 69.0459)"/><path d="m0 0c-.085.346-.159 4.4.125 4.518-.066-.03.381-1.967.349-2.122-.068.042-.125.1-.169.167-.407-.741.097-2.372-.278-2.674-.131-.069-.141-.028-.027.111-.119.512-.099-.133 0 0" fill="#dcdbdb" fill-rule="evenodd" transform="translate(117.0146 59.1201)"/><path d="m0 0c-.085.346-.159 4.4.125 4.518-.066-.03.381-1.967.349-2.122-.068.042-.125.1-.169.167-.407-.741.097-2.372-.278-2.674-.131-.069-.141-.028-.027.111-.119.512-.099-.133 0 0z" fill="none" stroke="#777475" stroke-linecap="round" stroke-linejoin="round" stroke-width=".065" transform="translate(117.0146 59.1201)"/></g><g clip-path="url(#d)"><path d="m32.018 79.878c-.462.266-2.323 1.045-3.897.289-2.53-1.221-2.046-3.232-2.036-3.316-.494-.4-.595-.606-1.006-1.051-2.961-3.193-4.993-6.637-6.706-10.609-.314-.737-3.947-8.026-5.356-13.515-.806-3.131-.758-3.209-1.106-6.037 3.715-22.618 20.028-33.421 20.028-33.421l.396 9.444-2.118 2.375.193.648 2.895-2.361 1.558-12.24c3.276-1.934 7.901-4.477 14.761-6.724 2.192 5.816 3.728 8.062 3.246 16.894l.931-2.061c-.028-.494 1.401-1.736 1.411-1.785l10.322-6.752 1.548-8.117s10.953.145 22.576 6.291c1.351 10.244 2.363 20.787-2.021 27.715-10.538 16.66-35.487 20.38-43.169 23.964 1.616 4.743.608 8.385 10.907 7.471.882.852 3.379 5.775 2.83 6.869-2.85 1.455-9.798 3.028-9.798 3.028s-1.475 2.069-3.336 2.833c-2.181.895-4.446 1.396-6.778 1.396-2.043 0-4.137-.384-6.275-1.228m20.061-77.112c5.067-1.461 13.392-1.348 13.392-1.348l.027.762-.712 6.943-9.657 6.383c-.931-4.528-3.158-12.707-3.05-12.74" fill="url(#e)"/></g><g clip-path="url(#f)"><path d="m0 0c1.351 10.242 2.361 20.785-2.021 27.713-10.538 16.66-35.487 20.38-43.169 23.964 1.616 4.744.607 8.385 10.908 7.47.881.854 3.378 5.776 2.829 6.87-2.85 1.455-9.797 3.029-9.797 3.029s-1.476 2.068-3.337 2.832c-4.091 1.678-8.476 1.975-13.053.168-.464.266-2.324 1.045-3.896.289-2.532-1.221-2.047-3.232-2.037-3.316-.495-.401-.595-.606-1.007-1.051-2.961-3.194-4.991-6.637-6.705-10.61-.314-.736-3.947-8.025-5.357-13.514-.804-3.131-.757-3.209-1.105-6.037 3.715-22.618 20.028-33.42 20.028-33.42l.397 9.443-2.12 2.375.194.649 2.894-2.362 1.559-12.24c3.276-1.934 7.899-4.477 14.762-6.725 2.19 5.817 3.726 8.065 3.246 16.895l.93-2.061c-.028-.494 1.402-1.736 1.412-1.785l10.321-6.752 1.549-8.115s10.951.143 22.575 6.291zm-24.187-6.414.028.762-.713 6.943-9.657 6.383c-.931-4.529-3.159-12.707-3.049-12.74 5.065-1.461 13.391-1.348 13.391-1.348z" fill="none" stroke="#bdbcbd" stroke-linecap="round" stroke-linejoin="round" stroke-width=".224" transform="translate(89.6582 7.832)"/><path d="m0 0c0-29.634-24.025-53.798-53.665-53.659-30.211.135-52.931 23.961-52.931 53.598 0 32.04 28.094 53.729 52.931 53.729 29.64 0 53.665-24.027 53.665-53.668z" fill="none" stroke="#bdbcbd" stroke-width=".447" transform="translate(117.8105 55.1084)"/><path d="m0 0c5.129 0 10.238-.187 15.369 0-2.585 5.916-5.169 11.83-7.753 17.745-2.537-5.915-5.077-11.829-7.616-17.745m30.946-21.725-8.127.018s.031 1.695-.13 2.135c-.502 1.416-4.314 11.297-5.507 14.26-.279.699-.558 1.4-.835 2.099-.747.024-13.243.125-16.443.035-1.221-.033-1.236-.043-1.698-1.177-.301-.749-.602-1.5-.903-2.25-.45-1.127-3.892-9.252-5.416-12.957-.259-.635-.385-2.206-.385-2.206l-4.772.043 20.406 48.027 2.119.015s21.786-48.075 21.691-48.042" fill="#5b5859" stroke="#5b5859" stroke-linecap="round" stroke-linejoin="round" stroke-width="1.018" transform="translate(22.5557 39.5898)"/><path d="m0 0c4.541.053 14.599.795 17.232 6.418 2.57 5.483-.289 11.817-6.26 13.19-1.957.448-10.74.856-10.74.856-.022-.022-.232-20.247-.232-20.464m-6.212-23.367.026 43.889-.492 2.055s13.155-.041 15.82-.004c4.575.055 10.064-.625 13.091-4.488 2.768-3.535 2.543-9.536.078-13.196-2.405-3.092-5.123-4.496-7.913-6.047 3.144-3.926 22.912-31.106 22.912-31.106s-1.689-.986-3.914 1.077c-.212.179-22.15 23.937-26.704 28.792l-6.619-.001c0-1.198.366-15.573.509-20.965l.567-2.061-7.827.006z" fill="#5b5859" transform="translate(61.6064 43.2813)"/><path d="m0 0c4.541.053 14.599.795 17.232 6.418 2.57 5.483-.289 11.817-6.26 13.19-1.957.448-10.74.856-10.74.856-.022-.022-.232-20.247-.232-20.464m-6.212-23.367.026 43.889-.492 2.055s13.155-.041 15.82-.004c4.575.055 10.064-.625 13.091-4.488 2.768-3.535 2.543-9.536.078-13.196-2.405-3.092-5.123-4.496-7.913-6.047 3.144-3.926 22.912-31.106 22.912-31.106s-1.689-.986-3.914 1.077c-.212.179-22.15 23.937-26.704 28.792l-6.619-.001c0-1.198.366-15.573.509-20.965l.567-2.061-7.827.006z" fill="none" stroke="#5b5859" stroke-linecap="round" stroke-linejoin="round" stroke-width="1.018" transform="translate(61.6064 43.2813)"/><path d="m0 0c-3.645 0-8.255.514-11.348 1.543-3.093 1.025-5.755 2.592-7.99 4.693-2.242 2.104-3.992 4.672-5.261 7.715-1.271 3.039-1.9 6.5-1.9 10.387 0 3.879.629 7.342 1.9 10.385 1.269 3.036 3.042 5.61 5.328 7.71 2.286 2.101 5.017 3.699 8.203 4.798 3.18 1.096 6.685 1.645 10.516 1.645 3.045 0 5.825-.311 8.337-.928 2.517-.615 6.679-2.226 6.679-2.226s.752-4.215-1.129-8.223c-.452.705-1.715 3.299-2.547 4.371-.704.818-1.925 1.568-3.035 2.207-1.108.639-2.355 1.182-3.738 1.613-1.383.432-2.906.653-4.567.653-2.722 0-5.251-.436-7.579-1.307-2.328-.865-4.355-2.203-6.087-4.01-1.73-1.806-3.081-4.088-4.051-6.852-.966-2.768-1.45-6.045-1.45-9.836 0-3.797.484-7.076 1.45-9.84.97-2.764 2.321-5.051 4.051-6.855 1.732-1.807 3.759-3.143 6.087-4.01 2.328-.871 6.101-1.305 8.823-1.305 1.659 0 3.193.207 4.6.621 1.404.406 2.699.899 3.877 1.469 1.179.576 2.236 1.189 3.182 1.853.946.665 2.387 1.749 2.387 1.749s-.317-4.598-2.316-5.52c-3.597-1.994-8.096-2.498-12.422-2.5" fill="#5b5859" transform="translate(113.7529 17.0469)"/><path d="m0 0c-3.645 0-8.255.514-11.348 1.543-3.093 1.025-5.755 2.592-7.99 4.693-2.242 2.104-3.992 4.672-5.261 7.715-1.271 3.039-1.9 6.5-1.9 10.387 0 3.879.629 7.342 1.9 10.385 1.269 3.036 3.042 5.61 5.328 7.71 2.286 2.101 5.017 3.699 8.203 4.798 3.18 1.096 6.685 1.645 10.516 1.645 3.045 0 5.825-.311 8.337-.928 2.517-.615 6.679-2.226 6.679-2.226s.752-4.215-1.129-8.223c-.452.705-1.715 3.299-2.547 4.371-.704.818-1.925 1.568-3.035 2.207-1.108.639-2.355 1.182-3.738 1.613-1.383.432-2.906.653-4.567.653-2.722 0-5.251-.436-7.579-1.307-2.328-.865-4.355-2.203-6.087-4.01-1.73-1.806-3.081-4.088-4.051-6.852-.966-2.768-1.45-6.045-1.45-9.836 0-3.797.484-7.076 1.45-9.84.97-2.764 2.321-5.051 4.051-6.855 1.732-1.807 3.759-3.143 6.087-4.01 2.328-.871 6.101-1.305 8.823-1.305 1.659 0 3.193.207 4.6.621 1.404.406 2.699.899 3.877 1.469 1.179.576 2.236 1.189 3.182 1.853.946.665 2.387 1.749 2.387 1.749s-.317-4.598-2.316-5.52c-3.597-1.994-8.096-2.498-12.422-2.5z" style="fill:none;stroke:#5b5859;stroke-width:1.018;stroke-linecap:round;stroke-linejoin:round;stroke-miterlimit:10" transform="translate(113.7529 17.0469)"/><path d="m0 0 .006 43.97-.443 2.058h7.286l-.435-2.066v-43.962l.435-2.053h-7.286z" fill="#5b5859" transform="translate(.9463 19.8848)"/><path d="m0 0 .006 43.97-.443 2.058h7.286l-.435-2.066v-43.962l.435-2.053h-7.286z" fill="none" stroke="#5b5859" stroke-linecap="round" stroke-linejoin="round" stroke-width="1.018" transform="translate(.9463 19.8848)"/><g fill="#fff"><path d="m0 0 .009 43.968-.445 2.06h7.285l-.434-2.068v-43.96l.434-2.053h-7.285z" transform="translate(.9326 19.8535)"/><path d="m0 0c5.131 0 10.238-.187 15.37 0-2.584 5.914-5.169 11.828-7.753 17.743-2.54-5.915-5.078-11.829-7.617-17.743m30.946-21.725-8.128.016s.031 1.693-.129 2.137c-.503 1.418-4.312 11.293-5.509 14.261-.279.696-.555 1.397-.833 2.098-.75.022-13.243.125-16.442.035-1.224-.033-1.237-.043-1.699-1.177-.302-.747-.602-1.499-.905-2.247-.447-1.13-3.89-9.253-5.415-12.964-.258-.631-.382-2.202-.382-2.202l-4.775.043 20.406 48.025 2.12.017s21.784-48.075 21.691-48.042" transform="translate(22.543 39.5586)"/><path d="m0 0c4.54.051 14.6.791 17.231 6.418 2.571 5.479-.29 11.813-6.259 13.186-1.957.448-10.74.856-10.74.856-.023-.023-.232-20.241-.232-20.46m-6.214-23.369.027 43.89-.491 2.052s13.153-.039 15.82-.002c4.575.053 10.064-.625 13.092-4.49 2.765-3.533 2.541-9.534.077-13.194-2.406-3.096-5.123-4.496-7.913-6.047 3.146-3.928 22.912-31.108 22.912-31.108s-1.691-.986-3.914 1.079c-.211.179-22.149 23.937-26.703 28.793h-6.62c0-1.2.366-15.577.508-20.971l.568-2.057-7.827.006z" transform="translate(61.5938 43.252)"/><path d="m0 0c-3.644 0-8.255.516-11.347 1.547-3.093 1.025-5.757 2.592-7.99 4.693-2.239 2.104-3.994 4.674-5.262 7.713-1.27 3.039-1.901 6.5-1.901 10.389 0 3.879.631 7.342 1.901 10.385 1.268 3.034 3.044 5.61 5.328 7.71 2.285 2.101 5.019 3.699 8.205 4.8 3.179 1.096 6.684 1.645 10.515 1.645 3.043 0 5.825-.311 8.337-.928 2.516-.619 6.679-2.228 6.679-2.228s.752-4.217-1.128-8.225c-.456.707-1.714 3.303-2.547 4.373-.704.816-1.929 1.566-3.036 2.205-1.109.641-2.353 1.18-3.737 1.615-1.384.432-2.907.653-4.568.653-2.723 0-5.25-.44-7.582-1.305-2.325-.871-4.355-2.207-6.084-4.012-1.729-1.804-3.08-4.091-4.05-6.854-.967-2.766-1.451-6.043-1.451-9.834 0-3.799.484-7.076 1.451-9.842.97-2.764 2.321-5.047 4.05-6.855 1.729-1.805 3.759-3.143 6.084-4.006 2.332-.873 6.104-1.309 8.824-1.309 1.662 0 3.194.209 4.603.621 1.405.408 2.697.899 3.874 1.471 1.179.572 2.236 1.189 3.183 1.851.948.666 2.388 1.75 2.388 1.75s-.318-4.597-2.317-5.517c-3.598-1.996-8.094-2.502-12.422-2.506" transform="translate(113.7393 17.0117)"/></g></g></g></svg>