<svg height="500" viewBox="0 0 700 500" width="700" xmlns="http://www.w3.org/2000/svg" xmlns:xlink="http://www.w3.org/1999/xlink"><clipPath id="a"><path d="m0 0h540v277h-540z"/></clipPath><clipPath id="b"><path d="m0 0h122v63h-122z"/></clipPath><path d="m0 0h700v500h-700z" fill="#fff"/><path d="m80 100h540v277h-540z" fill="#fff"/><path d="m80 0h540" stroke="#eee" transform="translate(0 335.36)"/><path d="m80 0h540" stroke="#eee" transform="translate(0 293.72)"/><path d="m80 0h540" stroke="#eee" transform="translate(0 252.09)"/><path d="m80 0h540" stroke="#eee" transform="translate(0 210.45)"/><path d="m80 0h540" stroke="#eee" transform="translate(0 168.81)"/><path d="m80 0h540" stroke="#eee" transform="translate(0 127.17)"/><path d="m80 0h540" stroke="#444" transform="translate(0 377)"/><g clip-path="url(#a)" transform="translate(80 100)"><g fill="#1f77b4"><path d="m3.86 277v-128.09h15.43v128.09z"/><path d="m42.43 277v-72.89h15.43v72.89z"/><path d="m81 277v-42.71h15.43v42.71z"/><path d="m119.57 277v-56.52h15.43v56.52z"/><path d="m158.14 277v-123.31h15.43v123.31z"/><path d="m196.71 277v-263.15h15.43v263.15z"/></g><g fill="#ff7f0e"><path d="m250.71 277v-42h15.43v42z"/><path d="m289.29 277v-96.76h15.42v96.76z"/><path d="m327.86 277v-103.48h15.43v103.48z"/><path d="m366.43 277v-90.91h15.43v90.91z"/><path d="m405 277v-88.49h15.43v88.49z"/><path d="m443.57 277v-133.19h15.43v133.19z"/><path d="m482.14 277v-85.46h15.43v85.46z"/><path d="m520.71 277v-126.25h15.43v126.25z"/></g></g><g font-family="Cabin, sans-serif"><text fill="#444" font-size="12" text-anchor="middle" transform="translate(99.29)" y="390">1950s</text><text fill="#444" font-size="12" text-anchor="middle" transform="translate(137.86)" y="390">1960s</text><text fill="#444" font-size="12" text-anchor="middle" transform="translate(176.43)" y="390">1970s</text><text fill="#444" font-size="12" text-anchor="middle" transform="translate(215)" y="390">1980s</text><text fill="#444" font-size="12" text-anchor="middle" transform="translate(253.57)" y="390">1990s</text><text fill="#444" font-size="12" text-anchor="middle" transform="translate(292.14)" y="390">2000s</text><text fill="#444" font-size="12" text-anchor="middle" transform="translate(330.71)" y="390">2010s</text><text fill="#444" font-size="12" text-anchor="middle" transform="translate(369.29)" y="390">2020s</text><text fill="#444" font-size="12" text-anchor="middle" transform="translate(407.86)" y="390">2030s</text><text fill="#444" font-size="12" text-anchor="middle" transform="translate(446.43)" y="390">2040s</text><text fill="#444" font-size="12" text-anchor="middle" transform="translate(485)" y="390">2050s</text><text fill="#444" font-size="12" text-anchor="middle" transform="translate(523.57)" y="390">2060s</text><text fill="#444" font-size="12" text-anchor="middle" transform="translate(562.14)" y="390">2070s</text><text fill="#444" font-size="12" text-anchor="middle" transform="translate(600.71)" y="390">2080s</text><text fill="#444" font-size="12" text-anchor="end" transform="translate(0 377)" x="79" y="4.2">0</text><text fill="#444" font-size="12" text-anchor="end" transform="translate(0 335.36)" x="79" y="4.2">10k</text><text fill="#444" font-size="12" text-anchor="end" transform="translate(0 293.72)" x="79" y="4.2">20k</text><text fill="#444" font-size="12" text-anchor="end" transform="translate(0 252.09)" x="79" y="4.2">30k</text><text fill="#444" font-size="12" text-anchor="end" transform="translate(0 210.45)" x="79" y="4.2">40k</text><text fill="#444" font-size="12" text-anchor="end" transform="translate(0 168.81)" x="79" y="4.2">50k</text><text fill="#444" font-size="12" text-anchor="end" transform="translate(0 127.17)" x="79" y="4.2">60k</text></g><g pointer-events="all" transform="translate(80 424.8)"><path d="m0 0h122v63h-122z" fill="#fff" shape-rendering="crispEdges"/><g clip-path="url(#b)"><g transform="translate(0 18.2)"><path d="m6 6h-12v-12h12z" fill="#1f77b4" transform="translate(20)"/><text fill="#444" font-family="Cabin, sans-serif" font-size="18" x="40" y="7.02">Historical</text><path cursor="pointer" d="m0-13.2h162v26.4h-162z" fill="none" pointer-events="all"/></g><g transform="translate(0 44.6)"><path d="m6 6h-12v-12h12z" fill="#ff7f0e" transform="translate(20)"/><text fill="#444" font-family="Cabin, sans-serif" font-size="18" x="40" y="7.02">Projected</text><path cursor="pointer" d="m0-13.2h162v26.4h-162z" fill="none" pointer-events="all"/></g></g></g><text fill="#444" font-family="Cabin, sans-serif" font-size="17" text-anchor="middle" x="350" y="50">Total Area Burned by Decade (km²)</text></svg>