<svg height="300" viewBox="0 0 700 300" width="700" xmlns="http://www.w3.org/2000/svg" xmlns:xlink="http://www.w3.org/1999/xlink"><clipPath id="a"><path d="m0 0h530v220h-530z"/></clipPath><path d="m0 0h700v300h-700z" fill="#fff"/><path d="m160-10h550v240h-550z" fill="#fff"/><path d="m0 0v220" stroke="#eee" transform="translate(330.61)"/><path d="m0 0v220" stroke="#eee" transform="translate(491.21)"/><path d="m0 0v220" stroke="#eee" transform="translate(651.82)"/><path d="m0 0v220" stroke="#444" transform="translate(170)"/><g clip-path="url(#a)" transform="translate(170)"><g><path d="m0 3.14v25.15h501.09v-25.15z" fill="#1f77b4"/><text fill="#333" font-family="Cabin, sans-serif" font-size="16" text-anchor="middle" transform="translate(515.84 21.441563)">156</text><path d="m0 34.57v25.14h430.42v-25.14z" fill="#1f77b4"/><text fill="#333" font-family="Cabin, sans-serif" font-size="16" text-anchor="middle" transform="translate(445.654375 52.866563)">134</text><path d="m0 66v25.14h404.73v-25.14z" fill="#1f77b4"/><text fill="#333" font-family="Cabin, sans-serif" font-size="16" text-anchor="middle" transform="translate(419.4175 84.296563)">126</text><path d="m0 97.43v25.14h359.76v-25.14z" fill="#1f77b4"/><text fill="#333" font-family="Cabin, sans-serif" font-size="16" text-anchor="middle" transform="translate(372.900625 115.726563)">112</text><path d="m0 128.86v25.14h321.21v-25.14z" fill="#1f77b4"/><text fill="#333" font-family="Cabin, sans-serif" font-size="16" text-anchor="middle" transform="translate(338.46 147.156563)">100</text><path d="m0 160.29v25.14h215.21v-25.14z" fill="#1f77b4"/><text fill="#333" font-family="Cabin, sans-serif" font-size="16" text-anchor="middle" transform="translate(226.788125 178.586563)">67</text><path d="m0 191.71v25.15h167.03v-25.15z" fill="#1f77b4"/><text fill="#333" font-family="Cabin, sans-serif" font-size="16" text-anchor="middle" transform="translate(178.56125 210.011563)">52</text></g></g><g fill="#444" font-family="Cabin, sans-serif"><text font-size="16" text-anchor="end" transform="translate(0 204.29)" x="159" y="5.6">Weather</text><text font-size="16" text-anchor="end" transform="translate(0 172.86)" x="159" y="5.6">Sedimentation</text><text font-size="16" text-anchor="end" transform="translate(0 141.43)" x="159" y="5.6">Erosion</text><text font-size="16" text-anchor="end" transform="translate(0 110)" x="159" y="5.6">Vegetation changes</text><text font-size="16" text-anchor="end" transform="translate(0 78.57)" x="159" y="5.6">Snow</text><text font-size="16" text-anchor="end" transform="translate(0 47.14)" x="159" y="5.6">Water levels</text><text font-size="16" text-anchor="end" transform="translate(0 15.71)" x="159" y="5.6">Ice</text><text font-size="19" text-anchor="middle" x="435" y="268"># of observations</text></g></svg>