<svg xmlns:xlink="http://www.w3.org/1999/xlink" version="1.1" style="font-family:'lucida grande', 'lucida sans unicode', arial, helvetica, sans-serif;font-size:12px;" xmlns="http://www.w3.org/2000/svg" width="600" height="400"><desc>Created with Highcharts 4.1.5</desc><defs><clipPath id="highcharts-43"><rect x="0" y="0" width="500" height="230"></rect></clipPath></defs><rect x="0" y="0" width="600" height="400" strokeWidth="0" fill="#FFFFFF" class=" highcharts-background"></rect><g class="highcharts-grid" ></g><g class="highcharts-grid" ><path fill="none" d="M 70 330.5 L 570 330.5" stroke="#D8D8D8" stroke-width="1"  opacity="1"></path><path fill="none" d="M 70 284.5 L 570 284.5" stroke="#D8D8D8" stroke-width="1"  opacity="1"></path><path fill="none" d="M 70 238.5 L 570 238.5" stroke="#D8D8D8" stroke-width="1"  opacity="1"></path><path fill="none" d="M 70 192.5 L 570 192.5" stroke="#D8D8D8" stroke-width="1"  opacity="1"></path><path fill="none" d="M 70 146.5 L 570 146.5" stroke="#D8D8D8" stroke-width="1"  opacity="1"></path><path fill="none" d="M 70 100.5 L 570 100.5" stroke="#D8D8D8" stroke-width="1"  opacity="1"></path></g><g class="highcharts-axis" ><path fill="none" d="M 111.5 330 L 111.5 340" stroke="#C0D0E0" stroke-width="1" opacity="1"></path><path fill="none" d="M 152.5 330 L 152.5 340" stroke="#C0D0E0" stroke-width="1" opacity="1"></path><path fill="none" d="M 194.5 330 L 194.5 340" stroke="#C0D0E0" stroke-width="1" opacity="1"></path><path fill="none" d="M 236.5 330 L 236.5 340" stroke="#C0D0E0" stroke-width="1" opacity="1"></path><path fill="none" d="M 277.5 330 L 277.5 340" stroke="#C0D0E0" stroke-width="1" opacity="1"></path><path fill="none" d="M 319.5 330 L 319.5 340" stroke="#C0D0E0" stroke-width="1" opacity="1"></path><path fill="none" d="M 361.5 330 L 361.5 340" stroke="#C0D0E0" stroke-width="1" opacity="1"></path><path fill="none" d="M 402.5 330 L 402.5 340" stroke="#C0D0E0" stroke-width="1" opacity="1"></path><path fill="none" d="M 444.5 330 L 444.5 340" stroke="#C0D0E0" stroke-width="1" opacity="1"></path><path fill="none" d="M 486.5 330 L 486.5 340" stroke="#C0D0E0" stroke-width="1" opacity="1"></path><path fill="none" d="M 527.5 330 L 527.5 340" stroke="#C0D0E0" stroke-width="1" opacity="1"></path><path fill="none" d="M 570.5 330 L 570.5 340" stroke="#C0D0E0" stroke-width="1" opacity="1"></path><path fill="none" d="M 69.5 330 L 69.5 340" stroke="#C0D0E0" stroke-width="1" opacity="1"></path><path fill="none" d="M 70 330.5 L 570 330.5" stroke="#C0D0E0" stroke-width="1"  visibility="visible"></path></g><g class="highcharts-axis" ><text x="23.515625"  text-anchor="middle" transform="translate(0,0) rotate(270 23.515625 215)" class=" highcharts-yaxis-title" style="color:#707070;font-family:lato;fill:#707070;" visibility="visible" y="215"><tspan>Total Precipitation (in)</tspan></text></g><g class="highcharts-series-group" ><g class="highcharts-series" visibility="visible"  transform="translate(70,100) scale(1 1)" clip-path="url(#highcharts-43)"><rect x="5" y="210" width="6" height="21" fill="#999999" rx="0" ry="0"></rect><rect x="46" y="213" width="6" height="18" fill="#999999" rx="0" ry="0"></rect><rect x="88" y="219" width="6" height="12" fill="#999999" rx="0" ry="0"></rect><rect x="130" y="224" width="6" height="7" fill="#999999" rx="0" ry="0"></rect><rect x="171" y="216" width="6" height="15" fill="#999999" rx="0" ry="0"></rect><rect x="213" y="214" width="6" height="17" fill="#999999" rx="0" ry="0"></rect><rect x="254" y="183" width="7" height="48" fill="#999999" rx="0" ry="0"></rect><rect x="296" y="178" width="6" height="53" fill="#999999" rx="0" ry="0"></rect><rect x="338" y="195" width="6" height="36" fill="#999999" rx="0" ry="0"></rect><rect x="380" y="204" width="6" height="27" fill="#999999" rx="0" ry="0"></rect><rect x="421" y="212" width="6" height="19" fill="#999999" rx="0" ry="0"></rect><rect x="463" y="216" width="6" height="15" fill="#999999" rx="0" ry="0"></rect></g><g class="highcharts-markers" visibility="visible"  transform="translate(70,100) scale(1 1)" clip-path="none"></g><g class="highcharts-series" visibility="visible"  transform="translate(70,100) scale(1 1)" clip-path="url(#highcharts-43)"><rect x="11" y="206" width="6" height="25" fill="#BAE4BC" rx="0" ry="0"></rect><rect x="53" y="211" width="6" height="20" fill="#BAE4BC" rx="0" ry="0"></rect><rect x="94" y="218" width="6" height="13" fill="#BAE4BC" rx="0" ry="0"></rect><rect x="136" y="223" width="6" height="8" fill="#BAE4BC" rx="0" ry="0"></rect><rect x="178" y="213" width="6" height="18" fill="#BAE4BC" rx="0" ry="0"></rect><rect x="220" y="212" width="6" height="19" fill="#BAE4BC" rx="0" ry="0"></rect><rect x="261" y="177" width="6" height="54" fill="#BAE4BC" rx="0" ry="0"></rect><rect x="303" y="180" width="6" height="51" fill="#BAE4BC" rx="0" ry="0"></rect><rect x="344" y="188" width="6" height="43" fill="#BAE4BC" rx="0" ry="0"></rect><rect x="386" y="201" width="6" height="30" fill="#BAE4BC" rx="0" ry="0"></rect><rect x="428" y="208" width="6" height="23" fill="#BAE4BC" rx="0" ry="0"></rect><rect x="469" y="214" width="6" height="17" fill="#BAE4BC" rx="0" ry="0"></rect></g><g class="highcharts-markers" visibility="visible"  transform="translate(70,100) scale(1 1)" clip-path="none"></g><g class="highcharts-series" visibility="visible"  transform="translate(70,100) scale(1 1)" clip-path="url(#highcharts-43)"><rect x="18" y="205" width="6" height="26" fill="#7BCCC4" rx="0" ry="0"></rect><rect x="60" y="212" width="6" height="19" fill="#7BCCC4" rx="0" ry="0"></rect><rect x="101" y="218" width="6" height="13" fill="#7BCCC4" rx="0" ry="0"></rect><rect x="143" y="223" width="6" height="8" fill="#7BCCC4" rx="0" ry="0"></rect><rect x="185" y="209" width="6" height="22" fill="#7BCCC4" rx="0" ry="0"></rect><rect x="226" y="208" width="6" height="23" fill="#7BCCC4" rx="0" ry="0"></rect><rect x="268" y="172" width="6" height="59" fill="#7BCCC4" rx="0" ry="0"></rect><rect x="309" y="165" width="6" height="66" fill="#7BCCC4" rx="0" ry="0"></rect><rect x="351" y="188" width="6" height="43" fill="#7BCCC4" rx="0" ry="0"></rect><rect x="393" y="201" width="6" height="30" fill="#7BCCC4" rx="0" ry="0"></rect><rect x="434" y="206" width="6" height="25" fill="#7BCCC4" rx="0" ry="0"></rect><rect x="476" y="216" width="6" height="15" fill="#7BCCC4" rx="0" ry="0"></rect></g><g class="highcharts-markers" visibility="visible"  transform="translate(70,100) scale(1 1)" clip-path="none"></g><g class="highcharts-series" visibility="visible"  transform="translate(70,100) scale(1 1)" clip-path="url(#highcharts-43)"><rect x="25" y="202" width="6" height="29" fill="#43A2CA" rx="0" ry="0"></rect><rect x="66" y="210" width="6" height="21" fill="#43A2CA" rx="0" ry="0"></rect><rect x="108" y="215" width="6" height="16" fill="#43A2CA" rx="0" ry="0"></rect><rect x="150" y="222" width="6" height="9" fill="#43A2CA" rx="0" ry="0"></rect><rect x="191" y="206" width="6" height="25" fill="#43A2CA" rx="0" ry="0"></rect><rect x="233" y="209" width="6" height="22" fill="#43A2CA" rx="0" ry="0"></rect><rect x="275" y="167" width="6" height="64" fill="#43A2CA" rx="0" ry="0"></rect><rect x="316" y="166" width="6" height="65" fill="#43A2CA" rx="0" ry="0"></rect><rect x="358" y="182" width="6" height="49" fill="#43A2CA" rx="0" ry="0"></rect><rect x="400" y="195" width="6" height="36" fill="#43A2CA" rx="0" ry="0"></rect><rect x="441" y="205" width="6" height="26" fill="#43A2CA" rx="0" ry="0"></rect><rect x="483" y="209" width="6" height="22" fill="#43A2CA" rx="0" ry="0"></rect></g><g class="highcharts-markers" visibility="visible"  transform="translate(70,100) scale(1 1)" clip-path="none"></g><g class="highcharts-series" visibility="visible"  transform="translate(70,100) scale(1 1)" clip-path="url(#highcharts-43)"><rect x="31" y="201" width="6" height="30" fill="#0868AC" rx="0" ry="0"></rect><rect x="73" y="209" width="6" height="22" fill="#0868AC" rx="0" ry="0"></rect><rect x="114" y="216" width="6" height="15" fill="#0868AC" rx="0" ry="0"></rect><rect x="156" y="221" width="6" height="10" fill="#0868AC" rx="0" ry="0"></rect><rect x="198" y="206" width="6" height="25" fill="#0868AC" rx="0" ry="0"></rect><rect x="240" y="206" width="6" height="25" fill="#0868AC" rx="0" ry="0"></rect><rect x="281" y="172" width="6" height="59" fill="#0868AC" rx="0" ry="0"></rect><rect x="323" y="156" width="6" height="75" fill="#0868AC" rx="0" ry="0"></rect><rect x="364" y="177" width="6" height="54" fill="#0868AC" rx="0" ry="0"></rect><rect x="406" y="189" width="6" height="42" fill="#0868AC" rx="0" ry="0"></rect><rect x="448" y="197" width="6" height="34" fill="#0868AC" rx="0" ry="0"></rect><rect x="489" y="206" width="6" height="25" fill="#0868AC" rx="0" ry="0"></rect></g><g class="highcharts-markers" visibility="visible"  transform="translate(70,100) scale(1 1)" clip-path="none"></g></g><text x="300" text-anchor="middle" class="highcharts-title"  style="color:#333333;font-size:14px;font-family:lato;fill:#333333;width:536px;" y="20"><tspan>Average Monthly Precipitation for Nulato, Alaska</tspan></text><text x="300" text-anchor="middle" class="highcharts-subtitle"  style="color:#555555;font-family:lato;fill:#555555;width:536px;font-size:10px;" y="40"><tspan>Historical PRISM and 5-Model Projected Average at 2km resolution, High-Range Emissions (RCP 8.5)</tspan></text><g class="highcharts-legend"  transform="translate(50,50)"><g ><g><g class="highcharts-legend-item"  transform="translate(8,3)"><text x="21" style="color:#333333;font-size:12px;font-weight:bold;cursor:pointer;fill:#333333;" text-anchor="start"  y="15"><tspan style="font-family: lato; baseline-shift: .1ex">1961-1990</tspan></text><rect x="0" y="4" width="16" height="12"  fill="#999999"></rect></g><g class="highcharts-legend-item"  transform="translate(109,3)"><text x="21" y="15" style="color:#333333;font-size:12px;font-weight:bold;cursor:pointer;fill:#333333;" text-anchor="start" ><tspan style="font-family: lato; baseline-shift: .1ex">2010-2019</tspan></text><rect x="0" y="4" width="16" height="12"  fill="#BAE4BC"></rect></g><g class="highcharts-legend-item"  transform="translate(210,3)"><text x="21" y="15" style="color:#333333;font-size:12px;font-weight:bold;cursor:pointer;fill:#333333;" text-anchor="start" ><tspan style="font-family: lato; baseline-shift: .1ex">2040-2049</tspan></text><rect x="0" y="4" width="16" height="12"  fill="#7BCCC4"></rect></g><g class="highcharts-legend-item"  transform="translate(311,3)"><text x="21" y="15" style="color:#333333;font-size:12px;font-weight:bold;cursor:pointer;fill:#333333;" text-anchor="start" ><tspan style="font-family: lato; baseline-shift: .1ex">2060-2069</tspan></text><rect x="0" y="4" width="16" height="12"  fill="#43A2CA"></rect></g><g class="highcharts-legend-item"  transform="translate(412,3)"><text x="21" y="15" style="color:#333333;font-size:12px;font-weight:bold;cursor:pointer;fill:#333333;" text-anchor="start" ><tspan style="font-family: lato; baseline-shift: .1ex">2090-2099</tspan></text><rect x="0" y="4" width="16" height="12"  fill="#0868AC"></rect></g></g></g></g><g class="highcharts-axis-labels highcharts-xaxis-labels" ><text x="90.83333333333333" style="color:#606060;cursor:default;font-size:11px;font-family:lato;fill:#606060;" text-anchor="middle" transform="translate(0,0)" y="349" opacity="1">Jan</text><text x="132.49999999999997" style="color:#606060;cursor:default;font-size:11px;font-family:lato;fill:#606060;" text-anchor="middle" transform="translate(0,0)" y="349" opacity="1">Feb</text><text x="174.16666666666666" style="color:#606060;cursor:default;font-size:11px;font-family:lato;fill:#606060;" text-anchor="middle" transform="translate(0,0)" y="349" opacity="1">Mar</text><text x="215.83333333333331" style="color:#606060;cursor:default;font-size:11px;font-family:lato;fill:#606060;" text-anchor="middle" transform="translate(0,0)" y="349" opacity="1">Apr</text><text x="257.50000000000006" style="color:#606060;cursor:default;font-size:11px;font-family:lato;fill:#606060;" text-anchor="middle" transform="translate(0,0)" y="349" opacity="1">May</text><text x="299.1666666666667" style="color:#606060;cursor:default;font-size:11px;font-family:lato;fill:#606060;" text-anchor="middle" transform="translate(0,0)" y="349" opacity="1">Jun</text><text x="340.8333333333333" style="color:#606060;cursor:default;font-size:11px;font-family:lato;fill:#606060;" text-anchor="middle" transform="translate(0,0)" y="349" opacity="1">Jul</text><text x="382.5" style="color:#606060;cursor:default;font-size:11px;font-family:lato;fill:#606060;" text-anchor="middle" transform="translate(0,0)" y="349" opacity="1">Aug</text><text x="424.16666666666663" style="color:#606060;cursor:default;font-size:11px;font-family:lato;fill:#606060;" text-anchor="middle" transform="translate(0,0)" y="349" opacity="1">Sep</text><text x="465.8333333333333" style="color:#606060;cursor:default;font-size:11px;font-family:lato;fill:#606060;" text-anchor="middle" transform="translate(0,0)" y="349" opacity="1">Oct</text><text x="507.49999999999994" style="color:#606060;cursor:default;font-size:11px;font-family:lato;fill:#606060;" text-anchor="middle" transform="translate(0,0)" y="349" opacity="1">Nov</text><text x="549.1666666666666" style="color:#606060;cursor:default;font-size:11px;font-family:lato;fill:#606060;" text-anchor="middle" transform="translate(0,0)" y="349" opacity="1">Dec</text></g><g class="highcharts-axis-labels highcharts-yaxis-labels" ><text x="55" style="color:#606060;cursor:default;font-size:11px;font-family:lato;fill:#606060;width:50px;text-overflow:clip;" text-anchor="end" transform="translate(0,0)" y="334" opacity="1">0</text><text x="55" style="color:#606060;cursor:default;font-size:11px;font-family:lato;fill:#606060;width:50px;text-overflow:clip;" text-anchor="end" transform="translate(0,0)" y="288" opacity="1">2.5</text><text x="55" style="color:#606060;cursor:default;font-size:11px;font-family:lato;fill:#606060;width:50px;text-overflow:clip;" text-anchor="end" transform="translate(0,0)" y="242" opacity="1">5</text><text x="55" style="color:#606060;cursor:default;font-size:11px;font-family:lato;fill:#606060;width:50px;text-overflow:clip;" text-anchor="end" transform="translate(0,0)" y="196" opacity="1">7.5</text><text x="55" style="color:#606060;cursor:default;font-size:11px;font-family:lato;fill:#606060;width:50px;text-overflow:clip;" text-anchor="end" transform="translate(0,0)" y="150" opacity="1">10</text><text x="55" style="color:#606060;cursor:default;font-size:11px;font-family:lato;fill:#606060;width:50px;text-overflow:clip;" text-anchor="end" transform="translate(0,0)" y="104" opacity="1">12.5</text></g><g class="highcharts-tooltip"  style="cursor:default;padding:0;white-space:nowrap;" transform="translate(0,-9999)"><path fill="none" d="M 3 0 L 13 0 C 16 0 16 0 16 3 L 16 13 C 16 16 16 16 13 16 L 3 16 C 0 16 0 16 0 13 L 0 3 C 0 0 0 0 3 0"  stroke="black" stroke-opacity="0.049999999999999996" stroke-width="5" transform="translate(1, 1)"></path><path fill="none" d="M 3 0 L 13 0 C 16 0 16 0 16 3 L 16 13 C 16 16 16 16 13 16 L 3 16 C 0 16 0 16 0 13 L 0 3 C 0 0 0 0 3 0"  stroke="black" stroke-opacity="0.09999999999999999" stroke-width="3" transform="translate(1, 1)"></path><path fill="none" d="M 3 0 L 13 0 C 16 0 16 0 16 3 L 16 13 C 16 16 16 16 13 16 L 3 16 C 0 16 0 16 0 13 L 0 3 C 0 0 0 0 3 0"  stroke="black" stroke-opacity="0.15" stroke-width="1" transform="translate(1, 1)"></path><path fill="rgb(249, 249, 249)" fill-opacity=" .85" d="M 3 0 L 13 0 C 16 0 16 0 16 3 L 16 13 C 16 16 16 16 13 16 L 3 16 C 0 16 0 16 0 13 L 0 3 C 0 0 0 0 3 0"></path><text x="8"  style="font-size:12px;color:#333333;fill:#333333;" transform="translate(0,20)"></text></g><text x="360" text-anchor="middle"  style="cursor:pointer;color:#909090;font-size:8px;font-family:lato, lato-regular;width:450px;padding:10px;fill:#909090;" y="365"><tspan>Due to variability among climate models and among years in a natural climate system, these graphs are useful for examining</tspan><tspan dy="11" x="360">trends over time, rather than for precisely predicting monthly or yearly values. </tspan><title>Due to variability among climate models and among years in a natural climate system, these graphs are useful for examining trends over time, rather than for precisely predicting monthly or yearly values. </title></text></svg>